{"glyphs":{"0":{"ha":1528,"x_min":-29,"x_max":1413,"o":"m 1394 1100 l 1292 1100 l 1310 1204 l 1413 1204 l 1394 1100 m 1288 1229 l 1185 1229 l 1203 1333 l 1307 1333 l 1288 1229 m 1160 1229 l 1056 1229 l 1074 1333 l 1178 1333 l 1160 1229 m 1372 971 l 1268 971 l 1288 1076 l 1390 1076 l 1372 971 m 1265 1100 l 1163 1100 l 1181 1204 l 1283 1204 l 1265 1100 m 1138 1100 l 1033 1100 l 1051 1204 l 1156 1204 l 1138 1100 m 1349 842 l 1246 842 l 1264 946 l 1368 946 l 1349 842 m 1031 1229 l 926 1229 l 944 1333 l 1049 1333 l 1031 1229 m 1243 971 l 1139 971 l 1158 1076 l 1261 1076 l 1243 971 m 1115 971 l 1010 971 l 1028 1076 l 1133 1076 l 1115 971 m 1326 714 l 1224 714 l 1242 817 l 1344 817 l 1326 714 m 901 1229 l 799 1229 l 817 1333 l 919 1333 l 901 1229 m 1008 1100 l 903 1100 l 922 1204 l 1026 1204 l 1008 1100 m 1219 842 l 1117 842 l 1135 946 l 1238 946 l 1219 842 m 879 1100 l 775 1100 l 793 1204 l 897 1204 l 879 1100 m 1092 842 l 988 842 l 1006 946 l 1110 946 l 1092 842 m 985 971 l 881 971 l 899 1076 l 1004 1076 l 985 971 m 1197 714 l 1094 714 l 1113 817 l 1215 817 l 1197 714 m 772 1229 l 669 1229 l 688 1333 l 790 1333 l 772 1229 m 1304 585 l 1200 585 l 1218 688 l 1322 688 l 1304 585 m 1069 714 l 964 714 l 983 817 l 1088 817 l 1069 714 m 644 1229 l 540 1229 l 558 1333 l 663 1333 l 644 1229 m 856 971 l 753 971 l 771 1076 l 875 1076 l 856 971 m 1281 456 l 1178 456 l 1196 560 l 1300 560 l 1281 456 m 750 1100 l 646 1100 l 664 1204 l 768 1204 l 750 1100 m 1175 585 l 1071 585 l 1089 688 l 1193 688 l 1175 585 m 621 1100 l 517 1100 l 535 1204 l 640 1204 l 621 1100 m 1258 326 l 1156 326 l 1174 431 l 1276 431 l 1258 326 m 726 971 l 624 971 l 642 1076 l 744 1076 l 726 971 m 1046 585 l 942 585 l 960 688 l 1065 688 l 1046 585 m 1151 456 l 1049 456 l 1067 560 l 1169 560 l 1151 456 m 515 1229 l 410 1229 l 428 1333 l 533 1333 l 515 1229 m 1236 197 l 1132 197 l 1150 301 l 1254 301 l 1236 197 m 599 971 l 494 971 l 513 1076 l 617 1076 l 599 971 m 1024 456 l 919 456 l 938 560 l 1042 560 l 1024 456 m 386 1229 l 282 1229 l 300 1333 l 404 1333 l 386 1229 m 492 1100 l 388 1100 l 406 1204 l 510 1204 l 492 1100 m 1129 326 l 1025 326 l 1044 431 l 1147 431 l 1129 326 m 363 1100 l 260 1100 l 278 1204 l 381 1204 l 363 1100 m 1106 197 l 1003 197 l 1021 301 l 1125 301 l 1106 197 m 1001 326 l 896 326 l 915 431 l 1019 431 l 1001 326 m 469 971 l 365 971 l 383 1076 l 488 1076 l 469 971 m 978 197 l 874 197 l 892 301 l 996 301 l 978 197 m 340 971 l 236 971 l 256 1076 l 358 1076 l 340 971 m 233 1100 l 131 1100 l 149 1204 l 251 1204 l 233 1100 m 1083 68 l 981 68 l 999 172 l 1101 172 l 1083 68 m 446 842 l 342 842 l 360 946 l 465 946 l 446 842 m 871 325 l 767 325 l 785 428 l 889 428 l 871 325 m 849 197 l 744 197 l 763 301 l 867 301 l 849 197 m 956 68 l 851 68 l 869 172 l 974 172 l 956 68 m 317 842 l 214 842 l 232 946 l 336 946 l 317 842 m 742 326 l 639 326 l 657 431 l 761 431 l 742 326 m 211 971 l 107 971 l 126 1076 l 229 1076 l 211 971 m 424 714 l 319 714 l 338 817 l 442 817 l 424 714 m 719 197 l 617 197 l 635 301 l 738 301 l 719 197 m 294 714 l 192 714 l 210 817 l 313 817 l 294 714 m 826 68 l 721 68 l 740 172 l 844 172 l 826 68 m 188 842 l 85 842 l 103 946 l 206 946 l 188 842 m 613 326 l 510 326 l 528 431 l 631 431 l 613 326 m 401 585 l 296 585 l 315 688 l 419 688 l 401 585 m 590 197 l 488 197 l 506 301 l 608 301 l 590 197 m 697 68 l 593 68 l 611 172 l 715 172 l 697 68 m 165 714 l 63 714 l 81 817 l 183 817 l 165 714 m 272 585 l 168 585 l 186 688 l 290 688 l 272 585 m 378 456 l 274 456 l 292 560 l 397 560 l 378 456 m 485 325 l 381 325 l 399 428 l 503 428 l 485 325 m 463 197 l 358 197 l 376 301 l 481 301 l 463 197 m 249 456 l 146 456 l 164 560 l 268 560 l 249 456 m 568 68 l 464 68 l 482 172 l 586 172 l 568 68 m 356 326 l 251 326 l 269 431 l 374 431 l 356 326 m 143 585 l 39 585 l 57 688 l 161 688 l 143 585 m 333 197 l 228 197 l 246 301 l 351 301 l 333 197 m 439 68 l 335 68 l 353 172 l 458 172 l 439 68 m 226 326 l 124 326 l 142 431 l 244 431 l 226 326 m 119 456 l 17 456 l 35 560 l 138 560 l 119 456 m 204 197 l 100 197 l 118 301 l 222 301 l 204 197 m 97 326 l -7 326 l 13 431 l 115 431 l 97 326 m 310 68 l 206 68 l 224 172 l 328 172 l 310 68 m 74 197 l -29 197 l -11 301 l 93 301 l 74 197 m 181 68 l 78 68 l 96 172 l 199 172 l 181 68 z "},"1":{"ha":1528,"x_min":-51,"x_max":1276,"o":"m 1031 1229 l 926 1229 l 944 1333 l 1049 1333 l 1031 1229 m 901 1229 l 799 1229 l 817 1333 l 919 1333 l 901 1229 m 1008 1100 l 903 1100 l 922 1204 l 1026 1204 l 1008 1100 m 879 1100 l 775 1100 l 793 1204 l 897 1204 l 879 1100 m 772 1229 l 669 1229 l 688 1333 l 790 1333 l 772 1229 m 985 971 l 881 971 l 899 1076 l 1004 1076 l 985 971 m 856 971 l 753 971 l 771 1076 l 875 1076 l 856 971 m 644 1229 l 540 1229 l 558 1333 l 663 1333 l 644 1229 m 750 1100 l 646 1100 l 664 1204 l 768 1204 l 750 1100 m 961 842 l 858 842 l 876 946 l 981 946 l 961 842 m 515 1229 l 410 1229 l 428 1333 l 533 1333 l 515 1229 m 833 842 l 731 842 l 749 946 l 851 946 l 833 842 m 621 1100 l 517 1100 l 535 1204 l 640 1204 l 621 1100 m 726 971 l 624 971 l 642 1076 l 744 1076 l 726 971 m 1258 326 l 1156 326 l 1174 431 l 1276 431 l 1258 326 m 939 714 l 836 714 l 854 817 l 957 817 l 939 714 m 811 714 l 707 714 l 725 817 l 829 817 l 811 714 m 1236 197 l 1132 197 l 1150 301 l 1254 301 l 1236 197 m 599 971 l 494 971 l 513 1076 l 617 1076 l 599 971 m 386 1229 l 282 1229 l 300 1333 l 404 1333 l 386 1229 m 492 1100 l 388 1100 l 406 1204 l 510 1204 l 492 1100 m 704 842 l 600 842 l 619 946 l 722 946 l 704 842 m 1129 326 l 1025 326 l 1044 431 l 1147 431 l 1129 326 m 917 585 l 813 585 l 831 688 l 935 688 l 917 585 m 256 1229 l 153 1229 l 171 1333 l 275 1333 l 256 1229 m 788 585 l 685 585 l 703 688 l 806 688 l 788 585 m 469 971 l 365 971 l 383 1076 l 488 1076 l 469 971 m 681 714 l 578 714 l 596 817 l 700 817 l 681 714 m 1213 68 l 1110 68 l 1128 172 l 1231 172 l 1213 68 m 1106 197 l 1003 197 l 1021 301 l 1125 301 l 1106 197 m 363 1100 l 260 1100 l 278 1204 l 381 1204 l 363 1100 m 1001 326 l 896 326 l 915 431 l 1019 431 l 1001 326 m 893 456 l 790 456 l 808 560 l 913 560 l 893 456 m 765 456 l 661 456 l 681 560 l 783 560 l 765 456 m 978 197 l 874 197 l 892 301 l 996 301 l 978 197 m 340 971 l 236 971 l 256 1076 l 358 1076 l 340 971 m 233 1100 l 131 1100 l 149 1204 l 251 1204 l 233 1100 m 658 585 l 556 585 l 574 688 l 676 688 l 658 585 m 871 326 l 767 326 l 785 431 l 890 431 l 871 326 m 1083 68 l 981 68 l 999 172 l 1101 172 l 1083 68 m 211 971 l 107 971 l 126 1076 l 229 1076 l 211 971 m 849 197 l 744 197 l 763 301 l 867 301 l 849 197 m 636 456 l 532 456 l 551 560 l 654 560 l 636 456 m 742 326 l 639 326 l 657 431 l 761 431 l 742 326 m 956 68 l 851 68 l 869 172 l 974 172 l 956 68 m 719 197 l 617 197 l 635 301 l 738 301 l 719 197 m 826 68 l 721 68 l 740 172 l 844 172 l 826 68 m 613 326 l 510 326 l 528 431 l 631 431 l 613 326 m 697 68 l 593 68 l 611 172 l 715 172 l 697 68 m 590 197 l 488 197 l 506 301 l 608 301 l 590 197 m 485 326 l 381 326 l 399 431 l 503 431 l 485 326 m 463 197 l 358 197 l 376 301 l 481 301 l 463 197 m 568 68 l 464 68 l 482 172 l 586 172 l 568 68 m 356 326 l 251 326 l 269 431 l 374 431 l 356 326 m 333 197 l 228 197 l 246 301 l 351 301 l 333 197 m 439 68 l 335 68 l 353 172 l 458 172 l 439 68 m 226 326 l 124 326 l 142 431 l 244 431 l 226 326 m 204 197 l 100 197 l 118 301 l 222 301 l 204 197 m 310 68 l 206 68 l 224 172 l 328 172 l 310 68 m 97 326 l -7 326 l 13 431 l 115 431 l 97 326 m 74 197 l -29 197 l -11 301 l 93 301 l 74 197 m 181 68 l 78 68 l 96 172 l 199 172 l 181 68 m 51 68 l -51 68 l -33 172 l 69 172 l 51 68 z "},"2":{"ha":1528,"x_min":-29,"x_max":1413,"o":"m 1394 1100 l 1292 1100 l 1310 1204 l 1413 1204 l 1394 1100 m 1288 1229 l 1185 1229 l 1203 1333 l 1306 1333 l 1288 1229 m 1160 1229 l 1056 1229 l 1074 1333 l 1178 1333 l 1160 1229 m 1372 971 l 1268 971 l 1288 1076 l 1390 1076 l 1372 971 m 1265 1100 l 1163 1100 l 1181 1204 l 1283 1204 l 1265 1100 m 1138 1100 l 1032 1100 l 1050 1204 l 1156 1204 l 1138 1100 m 1349 842 l 1246 842 l 1264 946 l 1367 946 l 1349 842 m 1031 1229 l 926 1229 l 944 1333 l 1049 1333 l 1031 1229 m 1242 971 l 1139 971 l 1157 1076 l 1261 1076 l 1242 971 m 1114 971 l 1010 971 l 1028 1076 l 1133 1076 l 1114 971 m 1326 714 l 1224 714 l 1242 817 l 1344 817 l 1326 714 m 901 1229 l 799 1229 l 817 1333 l 919 1333 l 901 1229 m 1008 1100 l 903 1100 l 921 1204 l 1026 1204 l 1008 1100 m 1219 842 l 1117 842 l 1135 946 l 1238 946 l 1219 842 m 878 1100 l 775 1100 l 793 1204 l 897 1204 l 878 1100 m 1092 842 l 988 842 l 1006 946 l 1110 946 l 1092 842 m 985 971 l 881 971 l 899 1076 l 1003 1076 l 985 971 m 1197 714 l 1093 714 l 1113 817 l 1215 817 l 1197 714 m 772 1229 l 668 1229 l 688 1333 l 790 1333 l 772 1229 m 1303 585 l 1200 585 l 1218 688 l 1322 688 l 1303 585 m 1069 714 l 964 714 l 982 817 l 1088 817 l 1069 714 m 644 1229 l 539 1229 l 557 1333 l 663 1333 l 644 1229 m 856 971 l 753 971 l 771 1076 l 874 1076 l 856 971 m 749 1100 l 646 1100 l 664 1204 l 767 1204 l 749 1100 m 1174 585 l 1071 585 l 1089 688 l 1192 688 l 1174 585 m 621 1100 l 517 1100 l 535 1204 l 639 1204 l 621 1100 m 940 714 l 835 714 l 853 817 l 958 817 l 940 714 m 1046 585 l 942 585 l 960 688 l 1064 688 l 1046 585 m 1258 326 l 1154 326 l 1174 431 l 1276 431 l 1258 326 m 515 1229 l 410 1229 l 428 1333 l 533 1333 l 515 1229 m 726 971 l 624 971 l 642 1076 l 744 1076 l 726 971 m 1235 197 l 1132 197 l 1150 301 l 1253 301 l 1235 197 m 385 1229 l 282 1229 l 300 1333 l 404 1333 l 385 1229 m 599 971 l 493 971 l 513 1076 l 617 1076 l 599 971 m 810 714 l 707 714 l 725 817 l 828 817 l 810 714 m 492 1100 l 388 1100 l 406 1204 l 510 1204 l 492 1100 m 1128 326 l 1025 326 l 1043 431 l 1147 431 l 1128 326 m 917 585 l 813 585 l 831 688 l 935 688 l 917 585 m 363 1100 l 260 1100 l 278 1204 l 381 1204 l 363 1100 m 1000 326 l 896 326 l 914 431 l 1019 431 l 1000 326 m 1106 197 l 1003 197 l 1021 301 l 1124 301 l 1106 197 m 1213 68 l 1110 68 l 1128 172 l 1231 172 l 1213 68 m 256 1229 l 153 1229 l 171 1333 l 274 1333 l 256 1229 m 469 971 l 364 971 l 383 1076 l 488 1076 l 469 971 m 681 714 l 578 714 l 596 817 l 699 817 l 681 714 m 788 585 l 685 585 l 703 688 l 806 688 l 788 585 m 978 197 l 874 197 l 892 301 l 996 301 l 978 197 m 340 971 l 236 971 l 256 1076 l 358 1076 l 340 971 m 553 714 l 449 714 l 467 817 l 571 817 l 553 714 m 233 1100 l 131 1100 l 149 1204 l 251 1204 l 233 1100 m 871 326 l 767 326 l 785 431 l 890 431 l 871 326 m 1083 68 l 981 68 l 999 172 l 1101 172 l 1083 68 m 658 585 l 556 585 l 574 688 l 676 688 l 658 585 m 849 197 l 744 197 l 763 301 l 867 301 l 849 197 m 956 68 l 850 68 l 868 172 l 974 172 l 956 68 m 210 971 l 107 971 l 125 1076 l 229 1076 l 210 971 m 424 714 l 319 714 l 338 817 l 442 817 l 424 714 m 742 326 l 639 326 l 657 431 l 760 431 l 742 326 m 531 585 l 425 585 l 443 688 l 549 688 l 531 585 m 719 197 l 617 197 l 635 301 l 738 301 l 719 197 m 294 714 l 192 714 l 210 817 l 313 817 l 294 714 m 826 68 l 721 68 l 739 172 l 844 172 l 826 68 m 613 326 l 510 326 l 528 431 l 631 431 l 613 326 m 401 585 l 296 585 l 314 688 l 419 688 l 401 585 m 590 197 l 486 197 l 506 301 l 608 301 l 590 197 m 165 714 l 61 714 l 81 817 l 183 817 l 165 714 m 485 326 l 381 326 l 399 431 l 503 431 l 485 326 m 696 68 l 593 68 l 611 172 l 715 172 l 696 68 m 271 585 l 168 585 l 186 688 l 290 688 l 271 585 m 378 456 l 274 456 l 292 560 l 396 560 l 378 456 m 463 197 l 357 197 l 375 301 l 481 301 l 463 197 m 249 456 l 146 456 l 164 560 l 267 560 l 249 456 m 356 326 l 250 326 l 269 431 l 374 431 l 356 326 m 567 68 l 464 68 l 482 172 l 585 172 l 567 68 m 142 585 l 39 585 l 57 688 l 160 688 l 142 585 m 333 197 l 228 197 l 246 301 l 351 301 l 333 197 m 226 326 l 122 326 l 142 431 l 244 431 l 226 326 m 439 68 l 335 68 l 353 172 l 457 172 l 439 68 m 119 456 l 17 456 l 35 560 l 138 560 l 119 456 m 203 197 l 100 197 l 118 301 l 222 301 l 203 197 m 96 326 l -7 326 l 11 431 l 115 431 l 96 326 m 310 68 l 206 68 l 224 172 l 328 172 l 310 68 m 74 197 l -29 197 l -11 301 l 92 301 l 74 197 m 181 68 l 78 68 l 96 172 l 199 172 l 181 68 z "},"3":{"ha":1528,"x_min":-51,"x_max":1413,"o":"m 1288 1229 l 1185 1229 l 1203 1333 l 1306 1333 l 1288 1229 m 1394 1100 l 1292 1100 l 1310 1204 l 1413 1204 l 1394 1100 m 1372 971 l 1268 971 l 1288 1076 l 1390 1076 l 1372 971 m 1160 1229 l 1056 1229 l 1074 1333 l 1178 1333 l 1160 1229 m 1265 1100 l 1163 1100 l 1181 1204 l 1283 1204 l 1265 1100 m 1242 971 l 1139 971 l 1157 1076 l 1261 1076 l 1242 971 m 1031 1229 l 926 1229 l 944 1333 l 1049 1333 l 1031 1229 m 1138 1100 l 1032 1100 l 1050 1204 l 1156 1204 l 1138 1100 m 1349 842 l 1246 842 l 1264 946 l 1367 946 l 1349 842 m 901 1229 l 799 1229 l 817 1333 l 919 1333 l 901 1229 m 1114 971 l 1010 971 l 1028 1076 l 1133 1076 l 1114 971 m 1326 714 l 1224 714 l 1242 817 l 1344 817 l 1326 714 m 1219 842 l 1117 842 l 1135 946 l 1238 946 l 1219 842 m 1008 1100 l 903 1100 l 921 1204 l 1026 1204 l 1008 1100 m 985 971 l 881 971 l 899 1076 l 1003 1076 l 985 971 m 1197 714 l 1093 714 l 1113 817 l 1215 817 l 1197 714 m 878 1100 l 775 1100 l 793 1204 l 897 1204 l 878 1100 m 772 1229 l 668 1229 l 688 1333 l 790 1333 l 772 1229 m 1092 842 l 988 842 l 1006 946 l 1110 946 l 1092 842 m 1303 585 l 1200 585 l 1218 688 l 1322 688 l 1303 585 m 856 971 l 753 971 l 771 1076 l 874 1076 l 856 971 m 644 1229 l 539 1229 l 557 1333 l 663 1333 l 644 1229 m 1281 456 l 1178 456 l 1196 560 l 1299 560 l 1281 456 m 1069 714 l 964 714 l 982 817 l 1088 817 l 1069 714 m 1174 585 l 1071 585 l 1089 688 l 1192 688 l 1174 585 m 749 1100 l 646 1100 l 664 1204 l 767 1204 l 749 1100 m 1151 456 l 1049 456 l 1067 560 l 1169 560 l 1151 456 m 515 1229 l 410 1229 l 428 1333 l 533 1333 l 515 1229 m 621 1100 l 517 1100 l 535 1204 l 639 1204 l 621 1100 m 726 971 l 624 971 l 642 1076 l 744 1076 l 726 971 m 940 714 l 835 714 l 853 817 l 958 817 l 940 714 m 1258 326 l 1154 326 l 1174 431 l 1276 431 l 1258 326 m 1046 585 l 942 585 l 960 688 l 1064 688 l 1046 585 m 385 1229 l 282 1229 l 300 1333 l 404 1333 l 385 1229 m 599 971 l 493 971 l 513 1076 l 617 1076 l 599 971 m 810 714 l 707 714 l 725 817 l 828 817 l 810 714 m 1024 456 l 918 456 l 938 560 l 1042 560 l 1024 456 m 1235 197 l 1132 197 l 1150 301 l 1253 301 l 1235 197 m 1128 326 l 1025 326 l 1043 431 l 1147 431 l 1128 326 m 492 1100 l 388 1100 l 406 1204 l 510 1204 l 492 1100 m 917 585 l 813 585 l 831 688 l 935 688 l 917 585 m 363 1100 l 260 1100 l 278 1204 l 381 1204 l 363 1100 m 469 971 l 364 971 l 383 1076 l 488 1076 l 469 971 m 1106 197 l 1003 197 l 1021 301 l 1124 301 l 1106 197 m 256 1229 l 153 1229 l 171 1333 l 274 1333 l 256 1229 m 788 585 l 685 585 l 703 688 l 806 688 l 788 585 m 1000 326 l 896 326 l 914 431 l 1019 431 l 1000 326 m 681 714 l 578 714 l 596 817 l 699 817 l 681 714 m 340 971 l 236 971 l 256 1076 l 358 1076 l 340 971 m 553 714 l 449 714 l 467 817 l 571 817 l 553 714 m 978 197 l 874 197 l 892 301 l 996 301 l 978 197 m 1083 68 l 981 68 l 999 172 l 1101 172 l 1083 68 m 233 1100 l 131 1100 l 149 1204 l 251 1204 l 233 1100 m 871 326 l 767 326 l 785 431 l 890 431 l 871 326 m 658 585 l 556 585 l 574 688 l 676 688 l 658 585 m 210 971 l 107 971 l 125 1076 l 229 1076 l 210 971 m 424 714 l 319 714 l 338 817 l 442 817 l 424 714 m 742 326 l 639 326 l 657 431 l 760 431 l 742 326 m 849 197 l 744 197 l 763 301 l 867 301 l 849 197 m 531 585 l 425 585 l 443 688 l 549 688 l 531 585 m 956 68 l 850 68 l 868 172 l 974 172 l 956 68 m 294 714 l 192 714 l 210 817 l 313 817 l 294 714 m 719 197 l 617 197 l 635 301 l 738 301 l 719 197 m 401 585 l 296 585 l 314 688 l 419 688 l 401 585 m 826 68 l 721 68 l 739 172 l 844 172 l 826 68 m 613 326 l 510 326 l 528 431 l 631 431 l 613 326 m 271 585 l 168 585 l 186 688 l 290 688 l 271 585 m 485 326 l 381 326 l 399 431 l 503 431 l 485 326 m 696 68 l 593 68 l 611 172 l 715 172 l 696 68 m 590 197 l 486 197 l 506 301 l 608 301 l 590 197 m 463 197 l 357 197 l 375 301 l 481 301 l 463 197 m 356 326 l 250 326 l 269 431 l 374 431 l 356 326 m 567 68 l 464 68 l 482 172 l 585 172 l 567 68 m 226 326 l 122 326 l 142 431 l 244 431 l 226 326 m 333 197 l 228 197 l 246 301 l 351 301 l 333 197 m 439 68 l 335 68 l 353 172 l 457 172 l 439 68 m 203 197 l 100 197 l 118 301 l 222 301 l 203 197 m 96 326 l -7 326 l 11 431 l 115 431 l 96 326 m 310 68 l 206 68 l 224 172 l 328 172 l 310 68 m 181 68 l 78 68 l 96 172 l 199 172 l 181 68 m 74 197 l -29 197 l -11 301 l 92 301 l 74 197 m 51 68 l -51 68 l -33 172 l 69 172 l 51 68 z "},"4":{"ha":1528,"x_min":39,"x_max":1435,"o":"m 1417 1229 l 1314 1229 l 1332 1333 l 1435 1333 l 1417 1229 m 1394 1100 l 1292 1100 l 1310 1204 l 1413 1204 l 1394 1100 m 1288 1229 l 1185 1229 l 1203 1333 l 1306 1333 l 1288 1229 m 1160 1229 l 1056 1229 l 1074 1333 l 1178 1333 l 1160 1229 m 1372 971 l 1268 971 l 1288 1076 l 1390 1076 l 1372 971 m 1265 1100 l 1163 1100 l 1181 1204 l 1283 1204 l 1265 1100 m 1138 1100 l 1032 1100 l 1050 1204 l 1156 1204 l 1138 1100 m 1349 842 l 1246 842 l 1264 946 l 1367 946 l 1349 842 m 1242 971 l 1139 971 l 1157 1076 l 1261 1076 l 1242 971 m 1114 971 l 1010 971 l 1028 1076 l 1133 1076 l 1114 971 m 1326 714 l 1224 714 l 1242 817 l 1344 817 l 1326 714 m 1219 842 l 1117 842 l 1135 946 l 1238 946 l 1219 842 m 1092 842 l 988 842 l 1006 946 l 1110 946 l 1092 842 m 1197 714 l 1093 714 l 1113 817 l 1215 817 l 1197 714 m 1303 585 l 1200 585 l 1218 688 l 1322 688 l 1303 585 m 1069 714 l 964 714 l 982 817 l 1088 817 l 1069 714 m 1281 456 l 1178 456 l 1196 560 l 1299 560 l 1281 456 m 1174 585 l 1071 585 l 1089 688 l 1192 688 l 1174 585 m 940 714 l 835 714 l 853 817 l 958 817 l 940 714 m 1258 326 l 1154 326 l 1174 431 l 1276 431 l 1258 326 m 1046 585 l 942 585 l 960 688 l 1064 688 l 1046 585 m 1151 456 l 1049 456 l 1067 560 l 1169 560 l 1151 456 m 515 1229 l 410 1229 l 428 1333 l 533 1333 l 515 1229 m 1235 197 l 1132 197 l 1150 301 l 1253 301 l 1235 197 m 810 714 l 707 714 l 725 817 l 828 817 l 810 714 m 1024 456 l 918 456 l 938 560 l 1042 560 l 1024 456 m 385 1229 l 282 1229 l 300 1333 l 404 1333 l 385 1229 m 492 1100 l 388 1100 l 406 1204 l 510 1204 l 492 1100 m 1128 326 l 1025 326 l 1043 431 l 1147 431 l 1128 326 m 917 585 l 813 585 l 831 688 l 935 688 l 917 585 m 363 1100 l 260 1100 l 278 1204 l 381 1204 l 363 1100 m 1106 197 l 1003 197 l 1021 301 l 1124 301 l 1106 197 m 1000 326 l 896 326 l 914 431 l 1019 431 l 1000 326 m 1213 68 l 1110 68 l 1128 172 l 1231 172 l 1213 68 m 681 714 l 578 714 l 596 817 l 699 817 l 681 714 m 469 971 l 364 971 l 383 1076 l 488 1076 l 469 971 m 788 585 l 685 585 l 703 688 l 806 688 l 788 585 m 978 197 l 874 197 l 892 301 l 996 301 l 978 197 m 553 714 l 449 714 l 467 817 l 571 817 l 553 714 m 340 971 l 236 971 l 256 1076 l 358 1076 l 340 971 m 233 1100 l 131 1100 l 149 1204 l 251 1204 l 233 1100 m 1083 68 l 981 68 l 999 172 l 1101 172 l 1083 68 m 446 842 l 342 842 l 360 946 l 465 946 l 446 842 m 658 585 l 556 585 l 574 688 l 676 688 l 658 585 m 956 68 l 850 68 l 868 172 l 974 172 l 956 68 m 317 842 l 214 842 l 232 946 l 335 946 l 317 842 m 210 971 l 107 971 l 125 1076 l 229 1076 l 210 971 m 424 714 l 319 714 l 338 817 l 442 817 l 424 714 m 531 585 l 425 585 l 443 688 l 549 688 l 531 585 m 294 714 l 192 714 l 210 817 l 313 817 l 294 714 m 188 842 l 85 842 l 103 946 l 206 946 l 188 842 m 401 585 l 296 585 l 314 688 l 419 688 l 401 585 m 165 714 l 61 714 l 81 817 l 183 817 l 165 714 m 271 585 l 168 585 l 186 688 l 290 688 l 271 585 m 142 585 l 39 585 l 57 688 l 160 688 l 142 585 z "},"5":{"ha":1528,"x_min":-51,"x_max":1435,"o":"m 1417 1229 l 1314 1229 l 1332 1333 l 1435 1333 l 1417 1229 m 1394 1100 l 1292 1100 l 1310 1204 l 1413 1204 l 1394 1100 m 1288 1229 l 1185 1229 l 1203 1333 l 1306 1333 l 1288 1229 m 1160 1229 l 1056 1229 l 1074 1333 l 1178 1333 l 1160 1229 m 1372 971 l 1268 971 l 1288 1076 l 1390 1076 l 1372 971 m 1265 1100 l 1163 1100 l 1181 1204 l 1283 1204 l 1265 1100 m 1138 1100 l 1032 1100 l 1050 1204 l 1156 1204 l 1138 1100 m 1031 1229 l 926 1229 l 944 1333 l 1049 1333 l 1031 1229 m 1242 971 l 1139 971 l 1157 1076 l 1261 1076 l 1242 971 m 1114 971 l 1010 971 l 1028 1076 l 1133 1076 l 1114 971 m 1326 714 l 1224 714 l 1242 817 l 1344 817 l 1326 714 m 901 1229 l 799 1229 l 817 1333 l 919 1333 l 901 1229 m 1008 1100 l 903 1100 l 921 1204 l 1026 1204 l 1008 1100 m 878 1100 l 775 1100 l 793 1204 l 897 1204 l 878 1100 m 985 971 l 881 971 l 899 1076 l 1003 1076 l 985 971 m 1197 714 l 1093 714 l 1113 817 l 1215 817 l 1197 714 m 772 1229 l 668 1229 l 688 1333 l 790 1333 l 772 1229 m 1303 585 l 1200 585 l 1218 688 l 1322 688 l 1303 585 m 1069 714 l 964 714 l 982 817 l 1088 817 l 1069 714 m 644 1229 l 539 1229 l 557 1333 l 663 1333 l 644 1229 m 856 971 l 753 971 l 771 1076 l 874 1076 l 856 971 m 1281 456 l 1178 456 l 1196 560 l 1299 560 l 1281 456 m 749 1100 l 646 1100 l 664 1204 l 767 1204 l 749 1100 m 1174 585 l 1071 585 l 1089 688 l 1192 688 l 1174 585 m 621 1100 l 517 1100 l 535 1204 l 639 1204 l 621 1100 m 940 714 l 835 714 l 853 817 l 958 817 l 940 714 m 1258 326 l 1154 326 l 1174 431 l 1276 431 l 1258 326 m 726 971 l 624 971 l 642 1076 l 744 1076 l 726 971 m 1046 585 l 942 585 l 960 688 l 1064 688 l 1046 585 m 1151 456 l 1049 456 l 1067 560 l 1169 560 l 1151 456 m 515 1229 l 410 1229 l 428 1333 l 533 1333 l 515 1229 m 1235 197 l 1132 197 l 1150 301 l 1253 301 l 1235 197 m 599 971 l 493 971 l 513 1076 l 617 1076 l 599 971 m 810 714 l 707 714 l 725 817 l 828 817 l 810 714 m 1024 456 l 918 456 l 938 560 l 1042 560 l 1024 456 m 385 1229 l 282 1229 l 300 1333 l 404 1333 l 385 1229 m 492 1100 l 388 1100 l 406 1204 l 510 1204 l 492 1100 m 1128 326 l 1025 326 l 1043 431 l 1147 431 l 1128 326 m 917 585 l 813 585 l 831 688 l 935 688 l 917 585 m 363 1100 l 260 1100 l 278 1204 l 381 1204 l 363 1100 m 1106 197 l 1003 197 l 1021 301 l 1124 301 l 1106 197 m 1000 326 l 896 326 l 914 431 l 1019 431 l 1000 326 m 681 714 l 578 714 l 596 817 l 699 817 l 681 714 m 469 971 l 364 971 l 383 1076 l 488 1076 l 469 971 m 788 585 l 685 585 l 703 688 l 806 688 l 788 585 m 978 197 l 874 197 l 892 301 l 996 301 l 978 197 m 553 714 l 449 714 l 467 817 l 571 817 l 553 714 m 340 971 l 236 971 l 256 1076 l 358 1076 l 340 971 m 233 1100 l 131 1100 l 149 1204 l 251 1204 l 233 1100 m 871 326 l 767 326 l 785 431 l 890 431 l 871 326 m 1083 68 l 981 68 l 999 172 l 1101 172 l 1083 68 m 446 842 l 342 842 l 360 946 l 465 946 l 446 842 m 658 585 l 556 585 l 574 688 l 676 688 l 658 585 m 849 197 l 744 197 l 763 301 l 867 301 l 849 197 m 956 68 l 850 68 l 868 172 l 974 172 l 956 68 m 317 842 l 214 842 l 232 946 l 335 946 l 317 842 m 742 326 l 639 326 l 657 431 l 760 431 l 742 326 m 210 971 l 107 971 l 125 1076 l 229 1076 l 210 971 m 424 714 l 319 714 l 338 817 l 442 817 l 424 714 m 531 585 l 425 585 l 443 688 l 549 688 l 531 585 m 719 197 l 617 197 l 635 301 l 738 301 l 719 197 m 294 714 l 192 714 l 210 817 l 313 817 l 294 714 m 826 68 l 721 68 l 739 172 l 844 172 l 826 68 m 188 842 l 85 842 l 103 946 l 206 946 l 188 842 m 613 326 l 510 326 l 528 431 l 631 431 l 613 326 m 401 585 l 296 585 l 314 688 l 419 688 l 401 585 m 590 197 l 486 197 l 506 301 l 608 301 l 590 197 m 485 326 l 381 326 l 399 431 l 503 431 l 485 326 m 696 68 l 593 68 l 611 172 l 715 172 l 696 68 m 165 714 l 61 714 l 81 817 l 183 817 l 165 714 m 271 585 l 168 585 l 186 688 l 290 688 l 271 585 m 463 197 l 357 197 l 375 301 l 481 301 l 463 197 m 567 68 l 464 68 l 482 172 l 585 172 l 567 68 m 356 326 l 250 326 l 269 431 l 374 431 l 356 326 m 142 585 l 39 585 l 57 688 l 160 688 l 142 585 m 333 197 l 228 197 l 246 301 l 351 301 l 333 197 m 439 68 l 335 68 l 353 172 l 457 172 l 439 68 m 226 326 l 122 326 l 142 431 l 244 431 l 226 326 m 203 197 l 100 197 l 118 301 l 222 301 l 203 197 m 96 326 l -7 326 l 11 431 l 115 431 l 96 326 m 310 68 l 206 68 l 224 172 l 328 172 l 310 68 m 74 197 l -29 197 l -11 301 l 92 301 l 74 197 m 181 68 l 78 68 l 96 172 l 199 172 l 181 68 m 51 68 l -51 68 l -33 172 l 69 172 l 51 68 z "},"6":{"ha":1528,"x_min":-29,"x_max":1344,"o":"m 1326 711 l 1222 711 l 1240 815 l 1344 815 l 1326 711 m 1219 840 l 1117 840 l 1135 944 l 1238 944 l 1219 840 m 1304 583 l 1200 583 l 1218 689 l 1322 689 l 1304 583 m 1092 840 l 986 840 l 1006 944 l 1110 944 l 1092 840 m 1196 711 l 1093 711 l 1111 815 l 1215 815 l 1196 711 m 1282 457 l 1178 457 l 1196 561 l 1300 561 l 1282 457 m 1175 583 l 1071 583 l 1089 689 l 1193 689 l 1175 583 m 963 840 l 857 840 l 875 944 l 981 944 l 963 840 m 1068 711 l 964 711 l 982 815 l 1086 815 l 1068 711 m 1153 457 l 1049 457 l 1067 561 l 1171 561 l 1153 457 m 1046 583 l 942 583 l 960 689 l 1064 689 l 1046 583 m 1258 326 l 1154 326 l 1172 431 l 1278 431 l 1258 326 m 515 1229 l 410 1229 l 428 1333 l 533 1333 l 515 1229 m 833 840 l 729 840 l 747 944 l 851 944 l 833 840 m 939 711 l 835 711 l 853 815 l 957 815 l 939 711 m 1024 457 l 919 457 l 938 561 l 1042 561 l 1024 457 m 1236 197 l 1132 197 l 1150 301 l 1254 301 l 1236 197 m 385 1229 l 282 1229 l 300 1333 l 404 1333 l 385 1229 m 1129 326 l 1025 326 l 1043 431 l 1149 431 l 1129 326 m 492 1100 l 388 1100 l 406 1204 l 510 1204 l 492 1100 m 810 711 l 707 711 l 725 815 l 828 815 l 810 711 m 703 840 l 600 840 l 618 944 l 721 944 l 703 840 m 1107 197 l 1003 197 l 1021 301 l 1125 301 l 1107 197 m 256 1229 l 153 1229 l 171 1333 l 274 1333 l 256 1229 m 469 971 l 364 971 l 383 1076 l 488 1076 l 469 971 m 1000 326 l 896 326 l 914 431 l 1019 431 l 1000 326 m 363 1100 l 260 1100 l 278 1204 l 381 1204 l 363 1100 m 575 840 l 471 840 l 489 944 l 593 944 l 575 840 m 681 711 l 578 711 l 596 815 l 699 815 l 681 711 m 340 971 l 236 971 l 256 1076 l 358 1076 l 340 971 m 978 197 l 874 197 l 892 301 l 996 301 l 978 197 m 1085 68 l 979 68 l 997 172 l 1103 172 l 1085 68 m 233 1100 l 131 1100 l 149 1204 l 251 1204 l 233 1100 m 446 842 l 342 842 l 360 946 l 465 946 l 446 842 m 871 326 l 767 326 l 785 431 l 890 431 l 871 326 m 553 711 l 449 711 l 467 815 l 571 815 l 553 711 m 210 971 l 107 971 l 125 1076 l 229 1076 l 210 971 m 742 326 l 639 326 l 657 431 l 760 431 l 742 326 m 424 714 l 319 714 l 338 817 l 442 817 l 424 714 m 849 197 l 744 197 l 763 301 l 867 301 l 849 197 m 956 68 l 850 68 l 868 172 l 974 172 l 956 68 m 317 842 l 214 842 l 232 946 l 335 946 l 317 842 m 719 197 l 617 197 l 635 301 l 738 301 l 719 197 m 294 714 l 192 714 l 210 817 l 313 817 l 294 714 m 188 842 l 85 842 l 103 946 l 206 946 l 188 842 m 401 585 l 296 585 l 314 688 l 419 688 l 401 585 m 613 326 l 510 326 l 528 431 l 631 431 l 613 326 m 826 68 l 721 68 l 739 172 l 844 172 l 826 68 m 165 714 l 61 714 l 81 817 l 183 817 l 165 714 m 378 456 l 274 456 l 292 560 l 396 560 l 378 456 m 696 68 l 593 68 l 611 172 l 715 172 l 696 68 m 485 326 l 381 326 l 399 431 l 503 431 l 485 326 m 590 197 l 486 197 l 506 301 l 608 301 l 590 197 m 271 585 l 168 585 l 186 688 l 290 688 l 271 585 m 463 197 l 357 197 l 375 301 l 481 301 l 463 197 m 249 456 l 146 456 l 164 560 l 267 560 l 249 456 m 142 585 l 39 585 l 57 688 l 160 688 l 142 585 m 356 326 l 250 326 l 269 431 l 374 431 l 356 326 m 567 68 l 464 68 l 482 172 l 585 172 l 567 68 m 119 456 l 17 456 l 35 560 l 138 560 l 119 456 m 333 197 l 228 197 l 246 301 l 351 301 l 333 197 m 439 68 l 335 68 l 353 172 l 457 172 l 439 68 m 226 326 l 122 326 l 142 431 l 244 431 l 226 326 m 203 197 l 100 197 l 118 301 l 222 301 l 203 197 m 96 326 l -7 326 l 11 431 l 115 431 l 96 326 m 310 68 l 206 68 l 224 172 l 328 172 l 310 68 m 74 197 l -29 197 l -11 301 l 92 301 l 74 197 m 181 68 l 78 68 l 96 172 l 199 172 l 181 68 z "},"7":{"ha":1528,"x_min":107,"x_max":1435,"o":"m 1417 1229 l 1314 1229 l 1332 1333 l 1435 1333 l 1417 1229 m 1288 1229 l 1185 1229 l 1203 1333 l 1306 1333 l 1288 1229 m 1394 1100 l 1292 1100 l 1310 1204 l 1413 1204 l 1394 1100 m 1160 1229 l 1056 1229 l 1074 1333 l 1178 1333 l 1160 1229 m 1372 971 l 1268 971 l 1288 1076 l 1390 1076 l 1372 971 m 1265 1100 l 1163 1100 l 1181 1204 l 1283 1204 l 1265 1100 m 1349 842 l 1246 842 l 1264 946 l 1367 946 l 1349 842 m 1031 1229 l 926 1229 l 944 1333 l 1049 1333 l 1031 1229 m 1138 1100 l 1032 1100 l 1050 1204 l 1156 1204 l 1138 1100 m 1242 971 l 1139 971 l 1157 1076 l 1261 1076 l 1242 971 m 1114 971 l 1010 971 l 1028 1076 l 1133 1076 l 1114 971 m 1326 714 l 1224 714 l 1242 817 l 1344 817 l 1326 714 m 901 1229 l 799 1229 l 817 1333 l 919 1333 l 901 1229 m 1219 842 l 1117 842 l 1135 946 l 1238 946 l 1219 842 m 1008 1100 l 903 1100 l 921 1204 l 1026 1204 l 1008 1100 m 985 972 l 881 972 l 899 1075 l 1003 1075 l 985 972 m 1092 842 l 988 842 l 1006 946 l 1110 946 l 1092 842 m 1197 714 l 1093 714 l 1113 817 l 1215 817 l 1197 714 m 772 1229 l 668 1229 l 688 1333 l 790 1333 l 772 1229 m 1303 585 l 1200 585 l 1218 688 l 1322 688 l 1303 585 m 878 1100 l 775 1100 l 793 1204 l 897 1204 l 878 1100 m 856 972 l 753 972 l 771 1075 l 874 1075 l 856 972 m 1069 714 l 964 714 l 982 817 l 1088 817 l 1069 714 m 644 1229 l 539 1229 l 557 1333 l 663 1333 l 644 1229 m 1281 456 l 1178 456 l 1196 560 l 1299 560 l 1281 456 m 1174 585 l 1071 585 l 1089 688 l 1192 688 l 1174 585 m 749 1100 l 646 1100 l 664 1204 l 767 1204 l 749 1100 m 726 972 l 624 972 l 642 1075 l 744 1075 l 726 972 m 1046 585 l 942 585 l 960 688 l 1064 688 l 1046 585 m 1258 326 l 1154 326 l 1174 431 l 1276 431 l 1258 326 m 515 1229 l 410 1229 l 428 1333 l 533 1333 l 515 1229 m 1151 456 l 1049 456 l 1067 560 l 1169 560 l 1151 456 m 621 1100 l 517 1100 l 535 1204 l 639 1204 l 621 1100 m 599 972 l 494 972 l 513 1075 l 617 1075 l 599 972 m 1024 456 l 918 456 l 938 560 l 1042 560 l 1024 456 m 385 1229 l 282 1229 l 300 1333 l 404 1333 l 385 1229 m 1235 197 l 1132 197 l 1150 301 l 1253 301 l 1235 197 m 1128 326 l 1025 326 l 1043 431 l 1147 431 l 1128 326 m 492 1100 l 388 1100 l 406 1204 l 510 1204 l 492 1100 m 469 972 l 364 972 l 383 1075 l 488 1075 l 469 972 m 1000 326 l 896 326 l 914 431 l 1019 431 l 1000 326 m 256 1229 l 153 1229 l 171 1333 l 274 1333 l 256 1229 m 1213 68 l 1110 68 l 1128 172 l 1231 172 l 1213 68 m 363 1100 l 260 1100 l 278 1204 l 381 1204 l 363 1100 m 1106 197 l 1003 197 l 1021 301 l 1124 301 l 1106 197 m 340 972 l 236 972 l 254 1075 l 358 1075 l 340 972 m 978 197 l 874 197 l 892 301 l 996 301 l 978 197 m 1083 68 l 981 68 l 999 172 l 1101 172 l 1083 68 m 233 1100 l 131 1100 l 149 1204 l 251 1204 l 233 1100 m 211 972 l 107 972 l 125 1075 l 229 1075 l 211 972 m 956 68 l 850 68 l 868 172 l 974 172 l 956 68 z "},"8":{"ha":1528,"x_min":-29,"x_max":1322,"o":"m 1163 1229 l 1057 1229 l 1075 1333 l 1181 1333 l 1163 1229 m 1268 1100 l 1164 1100 l 1182 1204 l 1286 1204 l 1268 1100 m 1032 1229 l 929 1229 l 947 1333 l 1050 1333 l 1032 1229 m 1246 971 l 1140 971 l 1160 1076 l 1264 1076 l 1246 971 m 1139 1100 l 1035 1100 l 1053 1204 l 1157 1204 l 1139 1100 m 1224 843 l 1118 843 l 1136 947 l 1242 947 l 1224 843 m 1010 1100 l 907 1100 l 925 1204 l 1028 1204 l 1010 1100 m 903 1229 l 800 1229 l 818 1333 l 921 1333 l 903 1229 m 1117 971 l 1011 971 l 1031 1076 l 1135 1076 l 1117 971 m 1093 843 l 989 843 l 1007 947 l 1113 947 l 1093 843 m 988 971 l 883 971 l 903 1076 l 1006 1076 l 988 971 m 775 1229 l 671 1229 l 689 1333 l 793 1333 l 775 1229 m 881 1100 l 778 1100 l 796 1204 l 899 1204 l 881 1100 m 1303 585 l 1200 585 l 1218 688 l 1322 688 l 1303 585 m 1197 714 l 1093 714 l 1113 817 l 1215 817 l 1197 714 m 964 843 l 861 843 l 879 947 l 983 947 l 964 843 m 646 1229 l 542 1229 l 560 1333 l 664 1333 l 646 1229 m 753 1100 l 647 1100 l 665 1204 l 771 1204 l 753 1100 m 857 971 l 754 971 l 772 1076 l 876 1076 l 857 971 m 1281 456 l 1178 456 l 1196 560 l 1299 560 l 1281 456 m 1069 714 l 964 714 l 982 817 l 1088 817 l 1069 714 m 1174 585 l 1071 585 l 1089 688 l 1192 688 l 1174 585 m 729 971 l 625 971 l 643 1076 l 749 1076 l 729 971 m 517 1229 l 414 1229 l 432 1333 l 535 1333 l 517 1229 m 624 1100 l 518 1100 l 536 1204 l 642 1204 l 624 1100 m 1151 456 l 1049 456 l 1067 560 l 1169 560 l 1151 456 m 940 714 l 835 714 l 853 817 l 958 817 l 940 714 m 1046 585 l 942 585 l 960 688 l 1064 688 l 1046 585 m 1258 326 l 1154 326 l 1174 431 l 1276 431 l 1258 326 m 600 971 l 496 971 l 514 1076 l 618 1076 l 600 971 m 493 1100 l 390 1100 l 408 1204 l 513 1204 l 493 1100 m 1024 456 l 919 456 l 938 560 l 1042 560 l 1024 456 m 810 714 l 707 714 l 725 817 l 828 817 l 810 714 m 1235 197 l 1132 197 l 1150 301 l 1253 301 l 1235 197 m 917 585 l 813 585 l 831 688 l 935 688 l 917 585 m 1128 326 l 1025 326 l 1043 431 l 1147 431 l 1128 326 m 471 971 l 368 971 l 386 1076 l 489 1076 l 471 971 m 364 1100 l 261 1100 l 279 1204 l 382 1204 l 364 1100 m 578 842 l 472 842 l 492 946 l 596 946 l 578 842 m 788 585 l 685 585 l 703 688 l 806 688 l 788 585 m 681 714 l 578 714 l 596 817 l 699 817 l 681 714 m 1106 197 l 1003 197 l 1021 301 l 1124 301 l 1106 197 m 1000 326 l 896 326 l 914 431 l 1019 431 l 1000 326 m 342 971 l 239 971 l 257 1076 l 360 1076 l 342 971 m 449 842 l 344 842 l 364 946 l 467 946 l 449 842 m 553 714 l 449 714 l 467 817 l 571 817 l 553 714 m 978 197 l 874 197 l 892 301 l 996 301 l 978 197 m 658 585 l 556 585 l 574 688 l 676 688 l 658 585 m 871 326 l 767 326 l 785 431 l 890 431 l 871 326 m 1083 68 l 981 68 l 999 172 l 1101 172 l 1083 68 m 318 842 l 215 842 l 233 946 l 338 946 l 318 842 m 424 714 l 319 714 l 338 817 l 442 817 l 424 714 m 849 197 l 744 197 l 763 301 l 867 301 l 849 197 m 531 585 l 425 585 l 443 688 l 549 688 l 531 585 m 742 326 l 639 326 l 657 431 l 760 431 l 742 326 m 956 68 l 850 68 l 868 172 l 974 172 l 956 68 m 719 197 l 617 197 l 635 301 l 738 301 l 719 197 m 294 714 l 192 714 l 210 817 l 313 817 l 294 714 m 401 585 l 296 585 l 314 688 l 419 688 l 401 585 m 826 68 l 721 68 l 739 172 l 844 172 l 826 68 m 613 326 l 510 326 l 528 431 l 631 431 l 613 326 m 696 68 l 593 68 l 611 172 l 715 172 l 696 68 m 378 456 l 274 456 l 292 560 l 396 560 l 378 456 m 590 197 l 486 197 l 506 301 l 608 301 l 590 197 m 271 585 l 168 585 l 186 688 l 290 688 l 271 585 m 485 326 l 381 326 l 399 431 l 503 431 l 485 326 m 463 197 l 357 197 l 375 301 l 481 301 l 463 197 m 249 456 l 146 456 l 164 560 l 267 560 l 249 456 m 142 585 l 39 585 l 57 688 l 160 688 l 142 585 m 567 68 l 464 68 l 482 172 l 585 172 l 567 68 m 356 326 l 250 326 l 269 431 l 374 431 l 356 326 m 119 456 l 17 456 l 35 560 l 138 560 l 119 456 m 333 197 l 228 197 l 246 301 l 351 301 l 333 197 m 439 68 l 335 68 l 353 172 l 457 172 l 439 68 m 226 326 l 122 326 l 142 431 l 244 431 l 226 326 m 203 197 l 100 197 l 118 301 l 222 301 l 203 197 m 310 68 l 206 68 l 224 172 l 328 172 l 310 68 m 96 326 l -7 326 l 11 431 l 115 431 l 96 326 m 74 197 l -29 197 l -11 301 l 92 301 l 74 197 m 181 68 l 78 68 l 96 172 l 199 172 l 181 68 z "},"9":{"ha":1528,"x_min":40,"x_max":1414,"o":"m 1289 1229 l 1186 1229 l 1204 1333 l 1307 1333 l 1289 1229 m 1396 1100 l 1292 1100 l 1311 1204 l 1414 1204 l 1396 1100 m 1161 1229 l 1057 1229 l 1075 1333 l 1179 1333 l 1161 1229 m 1372 971 l 1269 971 l 1288 1076 l 1392 1076 l 1372 971 m 1267 1100 l 1163 1100 l 1181 1204 l 1285 1204 l 1267 1100 m 1243 971 l 1140 971 l 1158 1076 l 1261 1076 l 1243 971 m 1032 1229 l 926 1229 l 946 1333 l 1050 1333 l 1032 1229 m 1139 1100 l 1033 1100 l 1051 1204 l 1157 1204 l 1139 1100 m 1350 842 l 1247 842 l 1265 946 l 1368 946 l 1350 842 m 903 1229 l 799 1229 l 817 1333 l 921 1333 l 903 1229 m 1115 971 l 1011 971 l 1029 1076 l 1133 1076 l 1115 971 m 1328 714 l 1224 714 l 1242 817 l 1346 817 l 1328 714 m 1221 842 l 1117 842 l 1136 946 l 1239 946 l 1221 842 m 1008 1100 l 904 1100 l 922 1204 l 1026 1204 l 1008 1100 m 1199 714 l 1094 714 l 1113 817 l 1217 817 l 1199 714 m 879 1100 l 776 1100 l 794 1204 l 897 1204 l 879 1100 m 986 971 l 882 971 l 900 1076 l 1004 1076 l 986 971 m 774 1229 l 669 1229 l 688 1333 l 792 1333 l 774 1229 m 1093 842 l 988 842 l 1007 946 l 1111 946 l 1093 842 m 1304 585 l 1201 585 l 1219 688 l 1322 688 l 1304 585 m 644 1229 l 540 1229 l 558 1333 l 664 1333 l 644 1229 m 857 971 l 754 971 l 772 1076 l 875 1076 l 857 971 m 1069 714 l 965 714 l 983 817 l 1089 817 l 1069 714 m 1282 456 l 1179 456 l 1197 560 l 1300 560 l 1282 456 m 1175 585 l 1072 585 l 1090 688 l 1193 688 l 1175 585 m 750 1100 l 647 1100 l 665 1204 l 768 1204 l 750 1100 m 1153 456 l 1049 456 l 1068 560 l 1171 560 l 1153 456 m 515 1229 l 411 1229 l 429 1333 l 533 1333 l 515 1229 m 622 1100 l 518 1100 l 536 1204 l 640 1204 l 622 1100 m 1047 585 l 943 585 l 961 688 l 1065 688 l 1047 585 m 728 971 l 624 971 l 643 1076 l 746 1076 l 728 971 m 1258 326 l 1156 326 l 1174 431 l 1278 431 l 1258 326 m 918 586 l 814 586 l 832 690 l 936 690 l 918 586 m 600 971 l 494 971 l 514 1076 l 618 1076 l 600 971 m 1025 456 l 919 456 l 939 560 l 1043 560 l 1025 456 m 1236 197 l 1133 197 l 1151 301 l 1254 301 l 1236 197 m 386 1229 l 282 1229 l 300 1333 l 406 1333 l 386 1229 m 493 1100 l 389 1100 l 407 1204 l 511 1204 l 493 1100 m 1129 326 l 1026 326 l 1044 431 l 1149 431 l 1129 326 m 789 586 l 686 586 l 704 690 l 807 690 l 789 586 m 896 457 l 790 457 l 808 561 l 914 561 l 896 457 m 1107 197 l 1004 197 l 1022 301 l 1125 301 l 1107 197 m 469 971 l 365 971 l 383 1076 l 489 1076 l 469 971 m 1214 68 l 1110 68 l 1129 172 l 1232 172 l 1214 68 m 1001 326 l 897 326 l 915 431 l 1019 431 l 1001 326 m 364 1100 l 260 1100 l 278 1204 l 382 1204 l 364 1100 m 767 457 l 663 457 l 681 561 l 785 561 l 767 457 m 660 586 l 557 586 l 575 690 l 678 690 l 660 586 m 979 197 l 875 197 l 893 301 l 997 301 l 979 197 m 342 971 l 236 971 l 256 1076 l 360 1076 l 342 971 m 1085 68 l 981 68 l 999 172 l 1103 172 l 1085 68 m 235 1100 l 131 1100 l 149 1204 l 253 1204 l 235 1100 m 447 840 l 342 840 l 361 944 l 465 944 l 447 840 m 532 586 l 426 586 l 446 690 l 550 690 l 532 586 m 636 457 l 533 457 l 551 561 l 656 561 l 636 457 m 957 68 l 851 68 l 869 172 l 975 172 l 957 68 m 425 713 l 319 713 l 339 818 l 443 818 l 425 713 m 213 971 l 107 971 l 125 1076 l 231 1076 l 213 971 m 318 840 l 214 840 l 232 944 l 336 944 l 318 840 m 403 586 l 297 586 l 315 690 l 421 690 l 403 586 m 508 457 l 404 457 l 422 561 l 528 561 l 508 457 m 296 713 l 190 713 l 210 818 l 314 818 l 296 713 m 189 840 l 83 840 l 103 944 l 207 944 l 189 840 m 274 586 l 169 586 l 188 690 l 292 690 l 274 586 m 379 457 l 275 457 l 293 561 l 397 561 l 379 457 m 167 713 l 61 713 l 81 818 l 185 818 l 167 713 m 250 457 l 147 457 l 165 561 l 268 561 l 250 457 m 143 586 l 40 586 l 58 690 l 163 690 l 143 586 z "}," ":{"ha":764,"x_min":0,"x_max":0,"o":""},"!":{"ha":1528,"x_min":468,"x_max":917,"o":"m 897 1228 l 797 1228 l 815 1333 l 917 1333 l 897 1228 m 771 1228 l 671 1228 l 689 1333 l 790 1333 l 771 1228 m 875 1100 l 775 1100 l 793 1204 l 893 1204 l 875 1100 m 749 1100 l 649 1100 l 667 1204 l 767 1204 l 749 1100 m 853 971 l 751 971 l 769 1075 l 871 1075 l 853 971 m 726 971 l 625 971 l 643 1075 l 744 1075 l 726 971 m 829 842 l 729 842 l 747 947 l 849 947 l 829 842 m 703 842 l 603 842 l 621 947 l 722 947 l 703 842 m 807 713 l 706 713 l 725 817 l 825 817 l 807 713 m 681 713 l 579 713 l 599 817 l 699 817 l 681 713 m 785 585 l 683 585 l 701 688 l 803 688 l 785 585 m 658 585 l 557 585 l 575 688 l 676 688 l 658 585 m 761 456 l 661 456 l 679 558 l 779 558 l 761 456 m 635 456 l 535 456 l 553 558 l 653 558 l 635 456 m 717 197 l 617 197 l 635 301 l 736 301 l 717 197 m 592 197 l 490 197 l 508 301 l 610 301 l 592 197 m 694 68 l 594 68 l 613 172 l 713 172 l 694 68 m 568 68 l 468 68 l 486 172 l 586 172 l 568 68 z "},"*":{"ha":1389,"x_min":0,"x_max":0,"o":""},"/":{"ha":1528,"x_min":468,"x_max":1176,"o":"m 1157 1228 l 1056 1228 l 1074 1333 l 1176 1333 l 1157 1228 m 1029 1228 l 926 1228 l 946 1333 l 1047 1333 l 1029 1228 m 1135 1100 l 1032 1100 l 1051 1204 l 1153 1204 l 1135 1100 m 1007 1100 l 904 1100 l 922 1204 l 1025 1204 l 1007 1100 m 1113 971 l 1010 971 l 1028 1075 l 1131 1075 l 1113 971 m 983 971 l 882 971 l 900 1075 l 1001 1075 l 983 971 m 1089 842 l 988 842 l 1006 947 l 1108 947 l 1089 842 m 961 842 l 858 842 l 878 947 l 979 947 l 961 842 m 1067 713 l 964 713 l 982 817 l 1085 817 l 1067 713 m 835 842 l 732 842 l 751 946 l 853 946 l 835 842 m 938 713 l 836 713 l 854 817 l 957 817 l 938 713 m 1044 585 l 942 585 l 960 688 l 1063 688 l 1044 585 m 707 842 l 604 842 l 622 946 l 725 946 l 707 842 m 813 714 l 710 714 l 728 817 l 831 817 l 813 714 m 915 585 l 814 585 l 832 688 l 933 688 l 915 585 m 1021 456 l 919 456 l 938 558 l 1039 558 l 1021 456 m 683 714 l 582 714 l 600 817 l 701 817 l 683 714 m 789 585 l 688 585 l 706 688 l 807 688 l 789 585 m 893 456 l 790 456 l 808 558 l 911 558 l 893 456 m 661 585 l 558 585 l 576 688 l 679 688 l 661 585 m 767 456 l 664 456 l 682 560 l 785 560 l 767 456 m 638 456 l 536 456 l 554 560 l 657 560 l 638 456 m 743 326 l 642 326 l 660 431 l 763 431 l 743 326 m 615 326 l 513 326 l 532 431 l 633 431 l 615 326 m 721 197 l 618 197 l 638 301 l 739 301 l 721 197 m 593 197 l 490 197 l 508 301 l 611 301 l 593 197 m 699 68 l 596 68 l 614 172 l 717 172 l 699 68 m 569 68 l 468 68 l 486 172 l 588 172 l 569 68 z "},"?":{"ha":1528,"x_min":238,"x_max":1435,"o":"m 1417 1229 l 1314 1229 l 1332 1333 l 1435 1333 l 1417 1229 m 1288 1229 l 1185 1229 l 1203 1333 l 1306 1333 l 1288 1229 m 1394 1100 l 1292 1100 l 1310 1204 l 1413 1204 l 1394 1100 m 1160 1229 l 1056 1229 l 1074 1333 l 1178 1333 l 1160 1229 m 1372 971 l 1268 971 l 1288 1076 l 1390 1076 l 1372 971 m 1265 1100 l 1163 1100 l 1181 1204 l 1283 1204 l 1265 1100 m 1031 1229 l 926 1229 l 944 1333 l 1049 1333 l 1031 1229 m 1138 1100 l 1033 1100 l 1051 1204 l 1156 1204 l 1138 1100 m 1242 971 l 1139 971 l 1158 1076 l 1261 1076 l 1242 971 m 1349 842 l 1246 842 l 1264 946 l 1367 946 l 1349 842 m 901 1229 l 799 1229 l 817 1333 l 919 1333 l 901 1229 m 1114 971 l 1010 971 l 1028 1076 l 1133 1076 l 1114 971 m 1326 714 l 1224 714 l 1242 817 l 1344 817 l 1326 714 m 1008 1100 l 903 1100 l 922 1204 l 1026 1204 l 1008 1100 m 1219 842 l 1117 842 l 1135 946 l 1238 946 l 1219 842 m 772 1229 l 669 1229 l 688 1333 l 790 1333 l 772 1229 m 985 972 l 881 972 l 899 1075 l 1004 1075 l 985 972 m 879 1100 l 775 1100 l 794 1204 l 897 1204 l 879 1100 m 1092 842 l 988 842 l 1006 946 l 1110 946 l 1092 842 m 1197 714 l 1094 714 l 1113 817 l 1215 817 l 1197 714 m 1303 585 l 1200 585 l 1218 688 l 1322 688 l 1303 585 m 644 1229 l 540 1229 l 558 1333 l 663 1333 l 644 1229 m 856 972 l 753 972 l 771 1075 l 874 1075 l 856 972 m 1069 714 l 964 714 l 983 817 l 1088 817 l 1069 714 m 750 1100 l 646 1100 l 664 1204 l 768 1204 l 750 1100 m 1174 585 l 1071 585 l 1089 688 l 1192 688 l 1174 585 m 515 1229 l 411 1229 l 429 1333 l 533 1333 l 515 1229 m 726 972 l 624 972 l 642 1075 l 744 1075 l 726 972 m 622 1100 l 517 1100 l 535 1204 l 640 1204 l 622 1100 m 1046 585 l 942 585 l 960 688 l 1064 688 l 1046 585 m 1258 326 l 1154 326 l 1174 431 l 1276 431 l 1258 326 m 386 1229 l 283 1229 l 301 1333 l 404 1333 l 386 1229 m 599 972 l 494 972 l 513 1075 l 617 1075 l 599 972 m 1235 197 l 1132 197 l 1150 301 l 1253 301 l 1235 197 m 493 1100 l 388 1100 l 406 1204 l 511 1204 l 493 1100 m 1129 326 l 1025 326 l 1044 431 l 1147 431 l 1129 326 m 469 972 l 365 972 l 383 1075 l 488 1075 l 469 972 m 363 1100 l 260 1100 l 278 1204 l 382 1204 l 363 1100 m 1001 326 l 896 326 l 914 431 l 1019 431 l 1001 326 m 1106 197 l 1003 197 l 1021 301 l 1124 301 l 1106 197 m 1213 68 l 1110 68 l 1128 172 l 1231 172 l 1213 68 m 340 972 l 238 972 l 256 1075 l 358 1075 l 340 972 m 978 197 l 874 197 l 892 301 l 996 301 l 978 197 m 1083 68 l 981 68 l 999 172 l 1101 172 l 1083 68 m 956 68 l 851 68 l 869 172 l 974 172 l 956 68 z "},"A":{"ha":1528,"x_min":-51,"x_max":1413,"o":"m 1394 1100 l 1292 1100 l 1310 1204 l 1413 1204 l 1394 1100 m 1288 1229 l 1185 1229 l 1203 1333 l 1306 1333 l 1288 1229 m 1160 1229 l 1056 1229 l 1074 1333 l 1178 1333 l 1160 1229 m 1372 971 l 1268 971 l 1288 1076 l 1390 1076 l 1372 971 m 1265 1100 l 1163 1100 l 1181 1204 l 1283 1204 l 1265 1100 m 1138 1100 l 1032 1100 l 1050 1204 l 1156 1204 l 1138 1100 m 1349 842 l 1246 842 l 1264 946 l 1367 946 l 1349 842 m 1031 1229 l 926 1229 l 944 1333 l 1049 1333 l 1031 1229 m 1242 971 l 1139 971 l 1157 1076 l 1261 1076 l 1242 971 m 1114 971 l 1010 971 l 1028 1076 l 1133 1076 l 1114 971 m 1326 714 l 1224 714 l 1242 817 l 1344 817 l 1326 714 m 901 1229 l 799 1229 l 817 1333 l 919 1333 l 901 1229 m 1008 1100 l 903 1100 l 921 1204 l 1026 1204 l 1008 1100 m 1219 842 l 1117 842 l 1135 946 l 1238 946 l 1219 842 m 878 1100 l 775 1100 l 793 1204 l 897 1204 l 878 1100 m 1092 842 l 988 842 l 1006 946 l 1110 946 l 1092 842 m 985 971 l 881 971 l 899 1076 l 1003 1076 l 985 971 m 1197 714 l 1093 714 l 1113 817 l 1215 817 l 1197 714 m 772 1229 l 668 1229 l 688 1333 l 790 1333 l 772 1229 m 1303 585 l 1200 585 l 1218 688 l 1322 688 l 1303 585 m 1069 714 l 964 714 l 982 817 l 1088 817 l 1069 714 m 644 1229 l 539 1229 l 557 1333 l 663 1333 l 644 1229 m 856 971 l 753 971 l 771 1076 l 874 1076 l 856 971 m 1281 456 l 1178 456 l 1196 560 l 1299 560 l 1281 456 m 749 1100 l 646 1100 l 664 1204 l 767 1204 l 749 1100 m 1174 585 l 1071 585 l 1089 688 l 1192 688 l 1174 585 m 621 1100 l 517 1100 l 535 1204 l 639 1204 l 621 1100 m 1258 326 l 1154 326 l 1174 431 l 1276 431 l 1258 326 m 726 971 l 624 971 l 642 1076 l 744 1076 l 726 971 m 1046 585 l 942 585 l 960 688 l 1064 688 l 1046 585 m 1151 456 l 1049 456 l 1067 560 l 1169 560 l 1151 456 m 515 1229 l 410 1229 l 428 1333 l 533 1333 l 515 1229 m 1235 197 l 1132 197 l 1150 301 l 1253 301 l 1235 197 m 599 971 l 493 971 l 513 1076 l 617 1076 l 599 971 m 1024 456 l 918 456 l 938 560 l 1042 560 l 1024 456 m 385 1229 l 282 1229 l 300 1333 l 404 1333 l 385 1229 m 492 1100 l 388 1100 l 406 1204 l 510 1204 l 492 1100 m 1128 326 l 1025 326 l 1043 431 l 1147 431 l 1128 326 m 917 585 l 813 585 l 831 688 l 935 688 l 917 585 m 363 1100 l 260 1100 l 278 1204 l 381 1204 l 363 1100 m 1106 197 l 1003 197 l 1021 301 l 1124 301 l 1106 197 m 1000 326 l 896 326 l 914 431 l 1019 431 l 1000 326 m 1213 68 l 1110 68 l 1128 172 l 1231 172 l 1213 68 m 894 456 l 789 456 l 808 560 l 913 560 l 894 456 m 469 971 l 364 971 l 383 1076 l 488 1076 l 469 971 m 788 585 l 685 585 l 703 688 l 806 688 l 788 585 m 978 197 l 874 197 l 892 301 l 996 301 l 978 197 m 340 971 l 236 971 l 256 1076 l 358 1076 l 340 971 m 765 456 l 661 456 l 681 560 l 783 560 l 765 456 m 233 1100 l 131 1100 l 149 1204 l 251 1204 l 233 1100 m 1083 68 l 981 68 l 999 172 l 1101 172 l 1083 68 m 446 842 l 342 842 l 360 946 l 465 946 l 446 842 m 658 585 l 556 585 l 574 688 l 676 688 l 658 585 m 956 68 l 850 68 l 868 172 l 974 172 l 956 68 m 317 842 l 214 842 l 232 946 l 335 946 l 317 842 m 210 971 l 107 971 l 125 1076 l 229 1076 l 210 971 m 424 714 l 319 714 l 338 817 l 442 817 l 424 714 m 531 585 l 425 585 l 443 688 l 549 688 l 531 585 m 635 456 l 532 456 l 550 560 l 654 560 l 635 456 m 294 714 l 192 714 l 210 817 l 313 817 l 294 714 m 507 456 l 403 456 l 421 560 l 526 560 l 507 456 m 188 842 l 85 842 l 103 946 l 206 946 l 188 842 m 401 585 l 296 585 l 314 688 l 419 688 l 401 585 m 165 714 l 61 714 l 81 817 l 183 817 l 165 714 m 271 585 l 168 585 l 186 688 l 290 688 l 271 585 m 378 456 l 274 456 l 292 560 l 396 560 l 378 456 m 249 456 l 146 456 l 164 560 l 267 560 l 249 456 m 356 326 l 250 326 l 269 431 l 374 431 l 356 326 m 142 585 l 39 585 l 57 688 l 160 688 l 142 585 m 333 197 l 228 197 l 246 301 l 351 301 l 333 197 m 226 326 l 122 326 l 142 431 l 244 431 l 226 326 m 119 456 l 17 456 l 35 560 l 138 560 l 119 456 m 203 197 l 100 197 l 118 301 l 222 301 l 203 197 m 96 326 l -7 326 l 11 431 l 115 431 l 96 326 m 310 68 l 206 68 l 224 172 l 328 172 l 310 68 m 74 197 l -29 197 l -11 301 l 92 301 l 74 197 m 181 68 l 78 68 l 96 172 l 199 172 l 181 68 m 51 68 l -51 68 l -33 172 l 69 172 l 51 68 z "},"B":{"ha":1528,"x_min":-56,"x_max":1318,"o":"m 1026 1229 l 922 1229 l 940 1333 l 1044 1333 l 1026 1229 m 1133 1100 l 1029 1100 l 1047 1204 l 1151 1204 l 1133 1100 m 897 1229 l 794 1229 l 813 1333 l 915 1333 l 897 1229 m 1111 971 l 1006 971 l 1024 1076 l 1129 1076 l 1111 971 m 1004 1100 l 899 1100 l 918 1204 l 1022 1204 l 1004 1100 m 1088 843 l 983 843 l 1001 947 l 1107 947 l 1088 843 m 875 1100 l 771 1100 l 789 1204 l 893 1204 l 875 1100 m 981 971 l 876 971 l 894 1076 l 1000 1076 l 981 971 m 768 1229 l 665 1229 l 683 1333 l 786 1333 l 768 1229 m 1300 585 l 1196 585 l 1214 688 l 1318 688 l 1300 585 m 1193 714 l 1090 714 l 1108 817 l 1211 817 l 1193 714 m 958 843 l 854 843 l 872 947 l 976 947 l 958 843 m 1276 456 l 1174 456 l 1192 560 l 1294 560 l 1276 456 m 640 1229 l 536 1229 l 554 1333 l 658 1333 l 640 1229 m 851 971 l 749 971 l 767 1076 l 871 1076 l 851 971 m 1065 714 l 960 714 l 979 817 l 1083 817 l 1065 714 m 746 1100 l 642 1100 l 660 1204 l 764 1204 l 746 1100 m 1171 585 l 1067 585 l 1085 688 l 1189 688 l 1171 585 m 829 843 l 726 843 l 744 947 l 847 947 l 829 843 m 1147 456 l 1044 456 l 1063 560 l 1165 560 l 1147 456 m 511 1229 l 406 1229 l 424 1333 l 529 1333 l 511 1229 m 936 714 l 831 714 l 849 817 l 954 817 l 936 714 m 617 1100 l 513 1100 l 531 1204 l 636 1204 l 617 1100 m 1042 585 l 938 585 l 956 688 l 1061 688 l 1042 585 m 722 971 l 619 971 l 638 1076 l 740 1076 l 722 971 m 1254 326 l 1151 326 l 1169 431 l 1272 431 l 1254 326 m 1019 456 l 915 456 l 933 560 l 1038 560 l 1019 456 m 807 714 l 703 714 l 721 817 l 825 817 l 807 714 m 594 971 l 490 971 l 508 1076 l 613 1076 l 594 971 m 1232 197 l 1128 197 l 1146 301 l 1250 301 l 1232 197 m 382 1229 l 278 1229 l 296 1333 l 400 1333 l 382 1229 m 488 1100 l 383 1100 l 401 1204 l 506 1204 l 488 1100 m 913 585 l 808 585 l 826 688 l 931 688 l 913 585 m 1125 326 l 1021 326 l 1040 431 l 1143 431 l 1125 326 m 251 1229 l 149 1229 l 167 1333 l 271 1333 l 251 1229 m 465 971 l 361 971 l 379 1076 l 483 1076 l 465 971 m 783 585 l 681 585 l 699 688 l 801 688 l 783 585 m 676 714 l 574 714 l 592 817 l 696 817 l 676 714 m 358 1100 l 256 1100 l 274 1204 l 376 1204 l 358 1100 m 997 326 l 892 326 l 911 431 l 1015 431 l 997 326 m 1101 197 l 999 197 l 1017 301 l 1121 301 l 1101 197 m 549 714 l 444 714 l 463 817 l 567 817 l 549 714 m 974 197 l 869 197 l 888 301 l 992 301 l 974 197 m 336 971 l 232 971 l 251 1076 l 354 1076 l 336 971 m 229 1100 l 126 1100 l 144 1204 l 247 1204 l 229 1100 m 442 842 l 338 842 l 356 946 l 461 946 l 442 842 m 654 585 l 551 585 l 569 688 l 672 688 l 654 585 m 867 326 l 763 326 l 781 431 l 886 431 l 867 326 m 1079 68 l 976 68 l 994 172 l 1097 172 l 1079 68 m 419 714 l 315 714 l 333 817 l 438 817 l 419 714 m 844 197 l 740 197 l 758 301 l 863 301 l 844 197 m 207 971 l 103 971 l 122 1076 l 225 1076 l 207 971 m 526 585 l 422 585 l 440 688 l 544 688 l 526 585 m 951 68 l 847 68 l 865 172 l 969 172 l 951 68 m 738 326 l 635 326 l 653 431 l 757 431 l 738 326 m 313 842 l 210 842 l 228 946 l 332 946 l 313 842 m 715 197 l 613 197 l 631 301 l 733 301 l 715 197 m 290 714 l 188 714 l 206 817 l 308 817 l 290 714 m 397 585 l 292 585 l 311 688 l 415 688 l 397 585 m 822 68 l 717 68 l 736 172 l 840 172 l 822 68 m 183 842 l 81 842 l 99 946 l 201 946 l 183 842 m 608 326 l 506 326 l 524 431 l 626 431 l 608 326 m 161 714 l 58 714 l 76 817 l 179 817 l 161 714 m 374 456 l 269 456 l 288 560 l 393 560 l 374 456 m 693 68 l 589 68 l 607 172 l 711 172 l 693 68 m 586 197 l 483 197 l 501 301 l 604 301 l 586 197 m 268 585 l 164 585 l 182 688 l 286 688 l 268 585 m 481 326 l 376 326 l 394 431 l 499 431 l 481 326 m 458 197 l 354 197 l 372 301 l 476 301 l 458 197 m 244 456 l 142 456 l 160 560 l 264 560 l 244 456 m 139 585 l 35 585 l 53 688 l 157 688 l 139 585 m 351 326 l 247 326 l 265 431 l 369 431 l 351 326 m 564 68 l 460 68 l 478 172 l 582 172 l 564 68 m 329 197 l 224 197 l 242 301 l 347 301 l 329 197 m 115 456 l 13 456 l 31 560 l 133 560 l 115 456 m 435 68 l 331 68 l 349 172 l 454 172 l 435 68 m 222 326 l 119 326 l 138 431 l 240 431 l 222 326 m 200 197 l 96 197 l 114 301 l 218 301 l 200 197 m 306 68 l 201 68 l 219 172 l 324 172 l 306 68 m 93 326 l -11 326 l 8 431 l 111 431 l 93 326 m 69 197 l -33 197 l -15 301 l 89 301 l 69 197 m 176 68 l 74 68 l 92 172 l 194 172 l 176 68 m 47 68 l -56 68 l -37 172 l 65 172 l 47 68 z "},"C":{"ha":1528,"x_min":-29,"x_max":1435,"o":"m 1417 1229 l 1314 1229 l 1332 1333 l 1435 1333 l 1417 1229 m 1394 1100 l 1292 1100 l 1310 1204 l 1413 1204 l 1394 1100 m 1288 1229 l 1185 1229 l 1203 1333 l 1306 1333 l 1288 1229 m 1160 1229 l 1056 1229 l 1074 1333 l 1178 1333 l 1160 1229 m 1372 971 l 1268 971 l 1288 1076 l 1390 1076 l 1372 971 m 1265 1100 l 1163 1100 l 1181 1204 l 1283 1204 l 1265 1100 m 1031 1229 l 926 1229 l 944 1333 l 1049 1333 l 1031 1229 m 1138 1100 l 1032 1100 l 1050 1204 l 1156 1204 l 1138 1100 m 1242 971 l 1139 971 l 1157 1076 l 1261 1076 l 1242 971 m 901 1229 l 799 1229 l 817 1333 l 919 1333 l 901 1229 m 1114 971 l 1010 971 l 1028 1076 l 1133 1076 l 1114 971 m 1008 1100 l 903 1100 l 921 1204 l 1026 1204 l 1008 1100 m 878 1100 l 775 1100 l 793 1204 l 897 1204 l 878 1100 m 772 1229 l 668 1229 l 688 1333 l 790 1333 l 772 1229 m 985 971 l 881 971 l 899 1076 l 1003 1076 l 985 971 m 856 971 l 753 971 l 771 1076 l 874 1076 l 856 971 m 644 1229 l 539 1229 l 557 1333 l 663 1333 l 644 1229 m 749 1100 l 646 1100 l 664 1204 l 767 1204 l 749 1100 m 515 1229 l 410 1229 l 428 1333 l 533 1333 l 515 1229 m 621 1100 l 517 1100 l 535 1204 l 639 1204 l 621 1100 m 726 971 l 624 971 l 642 1076 l 744 1076 l 726 971 m 1258 326 l 1154 326 l 1174 431 l 1276 431 l 1258 326 m 1235 197 l 1132 197 l 1150 301 l 1253 301 l 1235 197 m 599 971 l 493 971 l 513 1076 l 617 1076 l 599 971 m 385 1229 l 282 1229 l 300 1333 l 404 1333 l 385 1229 m 492 1100 l 388 1100 l 406 1204 l 510 1204 l 492 1100 m 1128 326 l 1025 326 l 1043 431 l 1147 431 l 1128 326 m 469 971 l 364 971 l 383 1076 l 488 1076 l 469 971 m 1213 68 l 1110 68 l 1128 172 l 1231 172 l 1213 68 m 1106 197 l 1003 197 l 1021 301 l 1124 301 l 1106 197 m 363 1100 l 260 1100 l 278 1204 l 381 1204 l 363 1100 m 1000 326 l 896 326 l 914 431 l 1019 431 l 1000 326 m 978 197 l 874 197 l 892 301 l 996 301 l 978 197 m 340 971 l 236 971 l 256 1076 l 358 1076 l 340 971 m 233 1100 l 131 1100 l 149 1204 l 251 1204 l 233 1100 m 446 842 l 342 842 l 360 946 l 465 946 l 446 842 m 871 326 l 767 326 l 785 431 l 890 431 l 871 326 m 1083 68 l 981 68 l 999 172 l 1101 172 l 1083 68 m 210 971 l 107 971 l 125 1076 l 229 1076 l 210 971 m 424 714 l 319 714 l 338 817 l 442 817 l 424 714 m 849 197 l 744 197 l 763 301 l 867 301 l 849 197 m 742 326 l 639 326 l 657 431 l 760 431 l 742 326 m 956 68 l 850 68 l 868 172 l 974 172 l 956 68 m 317 842 l 214 842 l 232 946 l 335 946 l 317 842 m 719 197 l 617 197 l 635 301 l 738 301 l 719 197 m 294 714 l 192 714 l 210 817 l 313 817 l 294 714 m 188 842 l 85 842 l 103 946 l 206 946 l 188 842 m 401 585 l 296 585 l 314 688 l 419 688 l 401 585 m 826 68 l 721 68 l 739 172 l 844 172 l 826 68 m 613 326 l 510 326 l 528 431 l 631 431 l 613 326 m 165 714 l 61 714 l 81 817 l 183 817 l 165 714 m 696 68 l 593 68 l 611 172 l 715 172 l 696 68 m 378 456 l 274 456 l 292 560 l 396 560 l 378 456 m 590 197 l 486 197 l 506 301 l 608 301 l 590 197 m 271 585 l 168 585 l 186 688 l 290 688 l 271 585 m 485 326 l 381 326 l 399 431 l 503 431 l 485 326 m 463 197 l 357 197 l 375 301 l 481 301 l 463 197 m 249 456 l 146 456 l 164 560 l 267 560 l 249 456 m 142 585 l 39 585 l 57 688 l 160 688 l 142 585 m 567 68 l 464 68 l 482 172 l 585 172 l 567 68 m 356 326 l 250 326 l 269 431 l 374 431 l 356 326 m 119 456 l 17 456 l 35 560 l 138 560 l 119 456 m 333 197 l 228 197 l 246 301 l 351 301 l 333 197 m 439 68 l 335 68 l 353 172 l 457 172 l 439 68 m 226 326 l 122 326 l 142 431 l 244 431 l 226 326 m 203 197 l 100 197 l 118 301 l 222 301 l 203 197 m 310 68 l 206 68 l 224 172 l 328 172 l 310 68 m 96 326 l -7 326 l 11 431 l 115 431 l 96 326 m 74 197 l -29 197 l -11 301 l 92 301 l 74 197 m 181 68 l 78 68 l 96 172 l 199 172 l 181 68 z "},"D":{"ha":1528,"x_min":-51,"x_max":1413,"o":"m 1394 1100 l 1292 1100 l 1310 1204 l 1413 1204 l 1394 1100 m 1288 1229 l 1185 1229 l 1203 1333 l 1306 1333 l 1288 1229 m 1160 1229 l 1056 1229 l 1074 1333 l 1178 1333 l 1160 1229 m 1372 971 l 1268 971 l 1288 1076 l 1390 1076 l 1372 971 m 1265 1100 l 1163 1100 l 1181 1204 l 1283 1204 l 1265 1100 m 1138 1100 l 1032 1100 l 1050 1204 l 1156 1204 l 1138 1100 m 1349 842 l 1246 842 l 1264 946 l 1367 946 l 1349 842 m 1031 1229 l 926 1229 l 944 1333 l 1049 1333 l 1031 1229 m 1242 971 l 1139 971 l 1157 1076 l 1261 1076 l 1242 971 m 1114 971 l 1010 971 l 1028 1076 l 1133 1076 l 1114 971 m 1326 714 l 1224 714 l 1242 817 l 1344 817 l 1326 714 m 901 1229 l 799 1229 l 817 1333 l 919 1333 l 901 1229 m 1008 1100 l 903 1100 l 921 1204 l 1026 1204 l 1008 1100 m 1219 842 l 1117 842 l 1135 946 l 1238 946 l 1219 842 m 878 1100 l 775 1100 l 793 1204 l 897 1204 l 878 1100 m 1092 842 l 988 842 l 1006 946 l 1110 946 l 1092 842 m 985 971 l 881 971 l 899 1076 l 1003 1076 l 985 971 m 1197 714 l 1093 714 l 1113 817 l 1215 817 l 1197 714 m 772 1229 l 668 1229 l 688 1333 l 790 1333 l 772 1229 m 1303 585 l 1200 585 l 1218 688 l 1322 688 l 1303 585 m 1069 714 l 964 714 l 982 817 l 1088 817 l 1069 714 m 644 1229 l 539 1229 l 557 1333 l 663 1333 l 644 1229 m 856 971 l 753 971 l 771 1076 l 874 1076 l 856 971 m 1281 456 l 1178 456 l 1196 560 l 1299 560 l 1281 456 m 749 1100 l 646 1100 l 664 1204 l 767 1204 l 749 1100 m 1174 585 l 1071 585 l 1089 688 l 1192 688 l 1174 585 m 621 1100 l 517 1100 l 535 1204 l 639 1204 l 621 1100 m 1258 326 l 1154 326 l 1174 431 l 1276 431 l 1258 326 m 726 971 l 624 971 l 642 1076 l 744 1076 l 726 971 m 1046 585 l 942 585 l 960 688 l 1064 688 l 1046 585 m 1151 456 l 1049 456 l 1067 560 l 1169 560 l 1151 456 m 515 1229 l 410 1229 l 428 1333 l 533 1333 l 515 1229 m 1235 197 l 1132 197 l 1150 301 l 1253 301 l 1235 197 m 599 971 l 493 971 l 513 1076 l 617 1076 l 599 971 m 1024 456 l 918 456 l 938 560 l 1042 560 l 1024 456 m 385 1229 l 282 1229 l 300 1333 l 404 1333 l 385 1229 m 492 1100 l 388 1100 l 406 1204 l 510 1204 l 492 1100 m 1128 326 l 1025 326 l 1043 431 l 1147 431 l 1128 326 m 363 1100 l 260 1100 l 278 1204 l 381 1204 l 363 1100 m 1106 197 l 1003 197 l 1021 301 l 1124 301 l 1106 197 m 1000 326 l 896 326 l 914 431 l 1019 431 l 1000 326 m 256 1229 l 153 1229 l 171 1333 l 274 1333 l 256 1229 m 469 971 l 364 971 l 383 1076 l 488 1076 l 469 971 m 978 197 l 874 197 l 892 301 l 996 301 l 978 197 m 340 971 l 236 971 l 256 1076 l 358 1076 l 340 971 m 233 1100 l 131 1100 l 149 1204 l 251 1204 l 233 1100 m 1083 68 l 981 68 l 999 172 l 1101 172 l 1083 68 m 446 842 l 342 842 l 360 946 l 465 946 l 446 842 m 871 325 l 767 325 l 785 428 l 889 428 l 871 325 m 849 197 l 744 197 l 763 301 l 867 301 l 849 197 m 956 68 l 850 68 l 868 172 l 974 172 l 956 68 m 317 842 l 214 842 l 232 946 l 335 946 l 317 842 m 742 326 l 639 326 l 657 431 l 760 431 l 742 326 m 210 971 l 107 971 l 125 1076 l 229 1076 l 210 971 m 424 714 l 319 714 l 338 817 l 442 817 l 424 714 m 719 197 l 617 197 l 635 301 l 738 301 l 719 197 m 294 714 l 192 714 l 210 817 l 313 817 l 294 714 m 826 68 l 721 68 l 739 172 l 844 172 l 826 68 m 188 842 l 85 842 l 103 946 l 206 946 l 188 842 m 613 326 l 510 326 l 528 431 l 631 431 l 613 326 m 401 585 l 296 585 l 314 688 l 419 688 l 401 585 m 590 197 l 486 197 l 506 301 l 608 301 l 590 197 m 696 68 l 593 68 l 611 172 l 715 172 l 696 68 m 165 714 l 61 714 l 81 817 l 183 817 l 165 714 m 271 585 l 168 585 l 186 688 l 290 688 l 271 585 m 378 456 l 274 456 l 292 560 l 396 560 l 378 456 m 485 325 l 379 325 l 399 428 l 503 428 l 485 325 m 463 197 l 357 197 l 375 301 l 481 301 l 463 197 m 249 456 l 146 456 l 164 560 l 267 560 l 249 456 m 567 68 l 464 68 l 482 172 l 585 172 l 567 68 m 356 326 l 250 326 l 269 431 l 374 431 l 356 326 m 142 585 l 39 585 l 57 688 l 160 688 l 142 585 m 333 197 l 228 197 l 246 301 l 351 301 l 333 197 m 439 68 l 335 68 l 353 172 l 457 172 l 439 68 m 226 326 l 122 326 l 142 431 l 244 431 l 226 326 m 119 456 l 17 456 l 35 560 l 138 560 l 119 456 m 203 197 l 100 197 l 118 301 l 222 301 l 203 197 m 96 326 l -7 326 l 11 431 l 115 431 l 96 326 m 310 68 l 206 68 l 224 172 l 328 172 l 310 68 m 74 197 l -29 197 l -11 301 l 92 301 l 74 197 m 181 68 l 78 68 l 96 172 l 199 172 l 181 68 m 51 68 l -51 68 l -33 172 l 69 172 l 51 68 z "},"E":{"ha":1528,"x_min":-29,"x_max":1435,"o":"m 1417 1229 l 1314 1229 l 1332 1333 l 1435 1333 l 1417 1229 m 1394 1100 l 1292 1100 l 1310 1204 l 1413 1204 l 1394 1100 m 1288 1229 l 1185 1229 l 1203 1333 l 1306 1333 l 1288 1229 m 1160 1229 l 1056 1229 l 1074 1333 l 1178 1333 l 1160 1229 m 1372 971 l 1268 971 l 1288 1076 l 1390 1076 l 1372 971 m 1265 1100 l 1163 1100 l 1181 1204 l 1283 1204 l 1265 1100 m 1031 1229 l 926 1229 l 944 1333 l 1049 1333 l 1031 1229 m 1138 1100 l 1032 1100 l 1050 1204 l 1156 1204 l 1138 1100 m 1242 971 l 1139 971 l 1157 1076 l 1261 1076 l 1242 971 m 901 1229 l 799 1229 l 817 1333 l 919 1333 l 901 1229 m 1114 971 l 1010 971 l 1028 1076 l 1133 1076 l 1114 971 m 1008 1100 l 903 1100 l 921 1204 l 1026 1204 l 1008 1100 m 878 1100 l 775 1100 l 793 1204 l 897 1204 l 878 1100 m 772 1229 l 668 1229 l 688 1333 l 790 1333 l 772 1229 m 985 971 l 881 971 l 899 1076 l 1003 1076 l 985 971 m 1197 714 l 1093 714 l 1113 817 l 1215 817 l 1197 714 m 856 971 l 753 971 l 771 1076 l 874 1076 l 856 971 m 644 1229 l 539 1229 l 557 1333 l 663 1333 l 644 1229 m 1069 714 l 964 714 l 982 817 l 1088 817 l 1069 714 m 749 1100 l 646 1100 l 664 1204 l 767 1204 l 749 1100 m 1174 585 l 1071 585 l 1089 688 l 1192 688 l 1174 585 m 515 1229 l 410 1229 l 428 1333 l 533 1333 l 515 1229 m 940 714 l 835 714 l 853 817 l 958 817 l 940 714 m 621 1100 l 517 1100 l 535 1204 l 639 1204 l 621 1100 m 726 971 l 624 971 l 642 1076 l 744 1076 l 726 971 m 1046 585 l 942 585 l 960 688 l 1064 688 l 1046 585 m 1258 326 l 1154 326 l 1174 431 l 1276 431 l 1258 326 m 810 714 l 707 714 l 725 817 l 828 817 l 810 714 m 1235 197 l 1132 197 l 1150 301 l 1253 301 l 1235 197 m 599 971 l 493 971 l 513 1076 l 617 1076 l 599 971 m 385 1229 l 282 1229 l 300 1333 l 404 1333 l 385 1229 m 492 1100 l 388 1100 l 406 1204 l 510 1204 l 492 1100 m 917 585 l 813 585 l 831 688 l 935 688 l 917 585 m 1128 326 l 1025 326 l 1043 431 l 1147 431 l 1128 326 m 788 585 l 685 585 l 703 688 l 806 688 l 788 585 m 469 971 l 364 971 l 383 1076 l 488 1076 l 469 971 m 681 714 l 578 714 l 596 817 l 699 817 l 681 714 m 1213 68 l 1110 68 l 1128 172 l 1231 172 l 1213 68 m 1106 197 l 1003 197 l 1021 301 l 1124 301 l 1106 197 m 363 1100 l 260 1100 l 278 1204 l 381 1204 l 363 1100 m 1000 326 l 896 326 l 914 431 l 1019 431 l 1000 326 m 553 714 l 449 714 l 467 817 l 571 817 l 553 714 m 978 197 l 874 197 l 892 301 l 996 301 l 978 197 m 340 971 l 236 971 l 256 1076 l 358 1076 l 340 971 m 233 1100 l 131 1100 l 149 1204 l 251 1204 l 233 1100 m 446 842 l 342 842 l 360 946 l 465 946 l 446 842 m 658 585 l 556 585 l 574 688 l 676 688 l 658 585 m 871 326 l 767 326 l 785 431 l 890 431 l 871 326 m 1083 68 l 981 68 l 999 172 l 1101 172 l 1083 68 m 210 971 l 107 971 l 125 1076 l 229 1076 l 210 971 m 424 714 l 319 714 l 338 817 l 442 817 l 424 714 m 849 197 l 744 197 l 763 301 l 867 301 l 849 197 m 531 585 l 425 585 l 443 688 l 549 688 l 531 585 m 742 326 l 639 326 l 657 431 l 760 431 l 742 326 m 956 68 l 850 68 l 868 172 l 974 172 l 956 68 m 317 842 l 214 842 l 232 946 l 335 946 l 317 842 m 719 197 l 617 197 l 635 301 l 738 301 l 719 197 m 294 714 l 192 714 l 210 817 l 313 817 l 294 714 m 188 842 l 85 842 l 103 946 l 206 946 l 188 842 m 401 585 l 296 585 l 314 688 l 419 688 l 401 585 m 826 68 l 721 68 l 739 172 l 844 172 l 826 68 m 613 326 l 510 326 l 528 431 l 631 431 l 613 326 m 165 714 l 61 714 l 81 817 l 183 817 l 165 714 m 696 68 l 593 68 l 611 172 l 715 172 l 696 68 m 378 456 l 274 456 l 292 560 l 396 560 l 378 456 m 590 197 l 486 197 l 506 301 l 608 301 l 590 197 m 271 585 l 168 585 l 186 688 l 290 688 l 271 585 m 485 326 l 381 326 l 399 431 l 503 431 l 485 326 m 463 197 l 357 197 l 375 301 l 481 301 l 463 197 m 249 456 l 146 456 l 164 560 l 267 560 l 249 456 m 142 585 l 39 585 l 57 688 l 160 688 l 142 585 m 567 68 l 464 68 l 482 172 l 585 172 l 567 68 m 356 326 l 250 326 l 269 431 l 374 431 l 356 326 m 119 456 l 17 456 l 35 560 l 138 560 l 119 456 m 333 197 l 228 197 l 246 301 l 351 301 l 333 197 m 439 68 l 335 68 l 353 172 l 457 172 l 439 68 m 226 326 l 122 326 l 142 431 l 244 431 l 226 326 m 203 197 l 100 197 l 118 301 l 222 301 l 203 197 m 310 68 l 206 68 l 224 172 l 328 172 l 310 68 m 96 326 l -7 326 l 11 431 l 115 431 l 96 326 m 74 197 l -29 197 l -11 301 l 92 301 l 74 197 m 181 68 l 78 68 l 96 172 l 199 172 l 181 68 z "},"F":{"ha":1528,"x_min":-51,"x_max":1435,"o":"m 1417 1229 l 1314 1229 l 1332 1333 l 1435 1333 l 1417 1229 m 1394 1100 l 1292 1100 l 1310 1204 l 1413 1204 l 1394 1100 m 1288 1229 l 1185 1229 l 1203 1333 l 1306 1333 l 1288 1229 m 1160 1229 l 1056 1229 l 1074 1333 l 1178 1333 l 1160 1229 m 1372 971 l 1268 971 l 1288 1076 l 1390 1076 l 1372 971 m 1265 1100 l 1163 1100 l 1181 1204 l 1283 1204 l 1265 1100 m 1031 1229 l 926 1229 l 944 1333 l 1049 1333 l 1031 1229 m 1138 1100 l 1032 1100 l 1050 1204 l 1156 1204 l 1138 1100 m 1242 971 l 1139 971 l 1157 1076 l 1261 1076 l 1242 971 m 901 1229 l 799 1229 l 817 1333 l 919 1333 l 901 1229 m 1114 971 l 1010 971 l 1028 1076 l 1133 1076 l 1114 971 m 1008 1100 l 903 1100 l 921 1204 l 1026 1204 l 1008 1100 m 878 1100 l 775 1100 l 793 1204 l 897 1204 l 878 1100 m 772 1229 l 668 1229 l 688 1333 l 790 1333 l 772 1229 m 985 971 l 881 971 l 899 1076 l 1003 1076 l 985 971 m 1197 714 l 1093 714 l 1113 817 l 1215 817 l 1197 714 m 856 971 l 753 971 l 771 1076 l 874 1076 l 856 971 m 644 1229 l 539 1229 l 557 1333 l 663 1333 l 644 1229 m 1069 714 l 964 714 l 982 817 l 1088 817 l 1069 714 m 749 1100 l 646 1100 l 664 1204 l 767 1204 l 749 1100 m 1174 585 l 1071 585 l 1089 688 l 1192 688 l 1174 585 m 515 1229 l 410 1229 l 428 1333 l 533 1333 l 515 1229 m 940 714 l 835 714 l 853 817 l 958 817 l 940 714 m 621 1100 l 517 1100 l 535 1204 l 639 1204 l 621 1100 m 726 971 l 624 971 l 642 1076 l 744 1076 l 726 971 m 1046 585 l 942 585 l 960 688 l 1064 688 l 1046 585 m 810 714 l 707 714 l 725 817 l 828 817 l 810 714 m 599 971 l 493 971 l 513 1076 l 617 1076 l 599 971 m 385 1229 l 282 1229 l 300 1333 l 404 1333 l 385 1229 m 492 1100 l 388 1100 l 406 1204 l 510 1204 l 492 1100 m 917 585 l 813 585 l 831 688 l 935 688 l 917 585 m 788 585 l 685 585 l 703 688 l 806 688 l 788 585 m 469 971 l 364 971 l 383 1076 l 488 1076 l 469 971 m 681 714 l 578 714 l 596 817 l 699 817 l 681 714 m 363 1100 l 260 1100 l 278 1204 l 381 1204 l 363 1100 m 553 714 l 449 714 l 467 817 l 571 817 l 553 714 m 340 971 l 236 971 l 256 1076 l 358 1076 l 340 971 m 233 1100 l 131 1100 l 149 1204 l 251 1204 l 233 1100 m 446 842 l 342 842 l 360 946 l 465 946 l 446 842 m 658 585 l 556 585 l 574 688 l 676 688 l 658 585 m 210 971 l 107 971 l 125 1076 l 229 1076 l 210 971 m 424 714 l 319 714 l 338 817 l 442 817 l 424 714 m 531 585 l 425 585 l 443 688 l 549 688 l 531 585 m 317 842 l 214 842 l 232 946 l 335 946 l 317 842 m 294 714 l 192 714 l 210 817 l 313 817 l 294 714 m 188 842 l 85 842 l 103 946 l 206 946 l 188 842 m 401 585 l 296 585 l 314 688 l 419 688 l 401 585 m 165 714 l 61 714 l 81 817 l 183 817 l 165 714 m 378 456 l 274 456 l 292 560 l 396 560 l 378 456 m 271 585 l 168 585 l 186 688 l 290 688 l 271 585 m 249 456 l 146 456 l 164 560 l 267 560 l 249 456 m 142 585 l 39 585 l 57 688 l 160 688 l 142 585 m 356 326 l 250 326 l 269 431 l 374 431 l 356 326 m 119 456 l 17 456 l 35 560 l 138 560 l 119 456 m 333 197 l 228 197 l 246 301 l 351 301 l 333 197 m 226 326 l 122 326 l 142 431 l 244 431 l 226 326 m 203 197 l 100 197 l 118 301 l 222 301 l 203 197 m 310 68 l 206 68 l 224 172 l 328 172 l 310 68 m 96 326 l -7 326 l 11 431 l 115 431 l 96 326 m 74 197 l -29 197 l -11 301 l 92 301 l 74 197 m 181 68 l 78 68 l 96 172 l 199 172 l 181 68 m 51 68 l -51 68 l -33 172 l 69 172 l 51 68 z "},"G":{"ha":1528,"x_min":-29,"x_max":1413,"o":"m 1394 1100 l 1292 1100 l 1310 1204 l 1413 1204 l 1394 1100 m 1288 1229 l 1185 1229 l 1203 1333 l 1306 1333 l 1288 1229 m 1160 1229 l 1056 1229 l 1074 1333 l 1178 1333 l 1160 1229 m 1372 971 l 1268 971 l 1288 1076 l 1390 1076 l 1372 971 m 1265 1100 l 1163 1100 l 1181 1204 l 1283 1204 l 1265 1100 m 1031 1229 l 926 1229 l 944 1333 l 1049 1333 l 1031 1229 m 1138 1100 l 1032 1100 l 1050 1204 l 1156 1204 l 1138 1100 m 1242 971 l 1139 971 l 1157 1076 l 1261 1076 l 1242 971 m 901 1229 l 799 1229 l 817 1333 l 919 1333 l 901 1229 m 1114 971 l 1010 971 l 1028 1076 l 1133 1076 l 1114 971 m 1008 1100 l 903 1100 l 921 1204 l 1026 1204 l 1008 1100 m 1304 585 l 1200 585 l 1219 690 l 1322 690 l 1304 585 m 878 1100 l 775 1100 l 793 1204 l 897 1204 l 878 1100 m 772 1229 l 668 1229 l 688 1333 l 790 1333 l 772 1229 m 985 971 l 881 971 l 899 1076 l 1003 1076 l 985 971 m 1281 457 l 1178 457 l 1196 561 l 1299 561 l 1281 457 m 1174 585 l 1071 585 l 1089 690 l 1193 690 l 1174 585 m 856 971 l 753 971 l 771 1076 l 874 1076 l 856 971 m 644 1229 l 539 1229 l 557 1333 l 663 1333 l 644 1229 m 749 1100 l 646 1100 l 664 1204 l 767 1204 l 749 1100 m 1046 585 l 942 585 l 960 690 l 1065 690 l 1046 585 m 1151 457 l 1049 457 l 1067 561 l 1169 561 l 1151 457 m 515 1229 l 410 1229 l 428 1333 l 533 1333 l 515 1229 m 621 1100 l 517 1100 l 535 1204 l 639 1204 l 621 1100 m 726 971 l 624 971 l 642 1076 l 744 1076 l 726 971 m 1258 326 l 1154 326 l 1174 431 l 1276 431 l 1258 326 m 1024 457 l 919 457 l 938 561 l 1042 561 l 1024 457 m 1235 197 l 1132 197 l 1150 301 l 1253 301 l 1235 197 m 599 971 l 493 971 l 513 1076 l 617 1076 l 599 971 m 385 1229 l 282 1229 l 300 1333 l 404 1333 l 385 1229 m 492 1100 l 388 1100 l 406 1204 l 510 1204 l 492 1100 m 1128 326 l 1025 326 l 1043 431 l 1147 431 l 1128 326 m 469 971 l 364 971 l 383 1076 l 488 1076 l 469 971 m 1106 197 l 1003 197 l 1021 301 l 1124 301 l 1106 197 m 363 1100 l 260 1100 l 278 1204 l 381 1204 l 363 1100 m 1000 326 l 896 326 l 914 431 l 1019 431 l 1000 326 m 978 197 l 874 197 l 892 301 l 996 301 l 978 197 m 340 971 l 236 971 l 256 1076 l 358 1076 l 340 971 m 233 1100 l 131 1100 l 149 1204 l 251 1204 l 233 1100 m 446 842 l 342 842 l 360 946 l 465 946 l 446 842 m 871 326 l 767 326 l 785 431 l 890 431 l 871 326 m 1083 68 l 981 68 l 999 172 l 1101 172 l 1083 68 m 210 971 l 107 971 l 125 1076 l 229 1076 l 210 971 m 424 714 l 319 714 l 338 817 l 442 817 l 424 714 m 849 197 l 744 197 l 763 301 l 867 301 l 849 197 m 742 326 l 639 326 l 657 431 l 760 431 l 742 326 m 956 68 l 850 68 l 868 172 l 974 172 l 956 68 m 317 842 l 214 842 l 232 946 l 335 946 l 317 842 m 719 197 l 617 197 l 635 301 l 738 301 l 719 197 m 294 714 l 192 714 l 210 817 l 313 817 l 294 714 m 188 842 l 85 842 l 103 946 l 206 946 l 188 842 m 401 585 l 296 585 l 314 688 l 419 688 l 401 585 m 826 68 l 721 68 l 739 172 l 844 172 l 826 68 m 613 326 l 510 326 l 528 431 l 631 431 l 613 326 m 165 714 l 61 714 l 81 817 l 183 817 l 165 714 m 696 68 l 593 68 l 611 172 l 715 172 l 696 68 m 378 456 l 274 456 l 292 560 l 396 560 l 378 456 m 590 197 l 486 197 l 506 301 l 608 301 l 590 197 m 271 585 l 168 585 l 186 688 l 290 688 l 271 585 m 485 326 l 381 326 l 399 431 l 503 431 l 485 326 m 463 197 l 357 197 l 375 301 l 481 301 l 463 197 m 249 456 l 146 456 l 164 560 l 267 560 l 249 456 m 142 585 l 39 585 l 57 688 l 160 688 l 142 585 m 567 68 l 464 68 l 482 172 l 585 172 l 567 68 m 356 326 l 250 326 l 269 431 l 374 431 l 356 326 m 119 456 l 17 456 l 35 560 l 138 560 l 119 456 m 333 197 l 228 197 l 246 301 l 351 301 l 333 197 m 439 68 l 335 68 l 353 172 l 457 172 l 439 68 m 226 326 l 122 326 l 142 431 l 244 431 l 226 326 m 203 197 l 100 197 l 118 301 l 222 301 l 203 197 m 310 68 l 206 68 l 224 172 l 328 172 l 310 68 m 96 326 l -7 326 l 11 431 l 115 431 l 96 326 m 74 197 l -29 197 l -11 301 l 92 301 l 74 197 m 181 68 l 78 68 l 96 172 l 199 172 l 181 68 z "},"H":{"ha":1528,"x_min":-51,"x_max":1435,"o":"m 1417 1229 l 1314 1229 l 1332 1333 l 1435 1333 l 1417 1229 m 1394 1100 l 1292 1100 l 1310 1204 l 1413 1204 l 1394 1100 m 1288 1229 l 1185 1229 l 1203 1333 l 1306 1333 l 1288 1229 m 1160 1229 l 1056 1229 l 1074 1333 l 1178 1333 l 1160 1229 m 1372 971 l 1268 971 l 1288 1076 l 1390 1076 l 1372 971 m 1265 1100 l 1163 1100 l 1181 1204 l 1283 1204 l 1265 1100 m 1138 1100 l 1032 1100 l 1050 1204 l 1156 1204 l 1138 1100 m 1349 842 l 1246 842 l 1264 946 l 1367 946 l 1349 842 m 1242 971 l 1139 971 l 1157 1076 l 1261 1076 l 1242 971 m 1114 971 l 1010 971 l 1028 1076 l 1133 1076 l 1114 971 m 1326 714 l 1224 714 l 1242 817 l 1344 817 l 1326 714 m 1219 842 l 1117 842 l 1135 946 l 1238 946 l 1219 842 m 1092 842 l 988 842 l 1006 946 l 1110 946 l 1092 842 m 1197 714 l 1093 714 l 1113 817 l 1215 817 l 1197 714 m 1303 585 l 1200 585 l 1218 688 l 1322 688 l 1303 585 m 1069 714 l 964 714 l 982 817 l 1088 817 l 1069 714 m 1281 456 l 1178 456 l 1196 560 l 1299 560 l 1281 456 m 1174 585 l 1071 585 l 1089 688 l 1192 688 l 1174 585 m 940 714 l 835 714 l 853 817 l 958 817 l 940 714 m 1258 326 l 1154 326 l 1174 431 l 1276 431 l 1258 326 m 1046 585 l 942 585 l 960 688 l 1064 688 l 1046 585 m 1151 456 l 1049 456 l 1067 560 l 1169 560 l 1151 456 m 515 1229 l 410 1229 l 428 1333 l 533 1333 l 515 1229 m 1235 197 l 1132 197 l 1150 301 l 1253 301 l 1235 197 m 810 714 l 707 714 l 725 817 l 828 817 l 810 714 m 1024 456 l 918 456 l 938 560 l 1042 560 l 1024 456 m 385 1229 l 282 1229 l 300 1333 l 404 1333 l 385 1229 m 492 1100 l 388 1100 l 406 1204 l 510 1204 l 492 1100 m 1128 326 l 1025 326 l 1043 431 l 1147 431 l 1128 326 m 917 585 l 813 585 l 831 688 l 935 688 l 917 585 m 363 1100 l 260 1100 l 278 1204 l 381 1204 l 363 1100 m 1106 197 l 1003 197 l 1021 301 l 1124 301 l 1106 197 m 1000 326 l 896 326 l 914 431 l 1019 431 l 1000 326 m 1213 68 l 1110 68 l 1128 172 l 1231 172 l 1213 68 m 681 714 l 578 714 l 596 817 l 699 817 l 681 714 m 256 1229 l 153 1229 l 171 1333 l 274 1333 l 256 1229 m 469 971 l 364 971 l 383 1076 l 488 1076 l 469 971 m 788 585 l 685 585 l 703 688 l 806 688 l 788 585 m 978 197 l 874 197 l 892 301 l 996 301 l 978 197 m 553 714 l 449 714 l 467 817 l 571 817 l 553 714 m 340 971 l 236 971 l 256 1076 l 358 1076 l 340 971 m 233 1100 l 131 1100 l 149 1204 l 251 1204 l 233 1100 m 1083 68 l 981 68 l 999 172 l 1101 172 l 1083 68 m 446 842 l 342 842 l 360 946 l 465 946 l 446 842 m 658 585 l 556 585 l 574 688 l 676 688 l 658 585 m 956 68 l 850 68 l 868 172 l 974 172 l 956 68 m 317 842 l 214 842 l 232 946 l 335 946 l 317 842 m 210 971 l 107 971 l 125 1076 l 229 1076 l 210 971 m 424 714 l 319 714 l 338 817 l 442 817 l 424 714 m 531 585 l 425 585 l 443 688 l 549 688 l 531 585 m 294 714 l 192 714 l 210 817 l 313 817 l 294 714 m 188 842 l 85 842 l 103 946 l 206 946 l 188 842 m 401 585 l 296 585 l 314 688 l 419 688 l 401 585 m 165 714 l 61 714 l 81 817 l 183 817 l 165 714 m 271 585 l 168 585 l 186 688 l 290 688 l 271 585 m 378 456 l 274 456 l 292 560 l 396 560 l 378 456 m 249 456 l 146 456 l 164 560 l 267 560 l 249 456 m 356 326 l 250 326 l 269 431 l 374 431 l 356 326 m 142 585 l 39 585 l 57 688 l 160 688 l 142 585 m 333 197 l 228 197 l 246 301 l 351 301 l 333 197 m 226 326 l 122 326 l 142 431 l 244 431 l 226 326 m 119 456 l 17 456 l 35 560 l 138 560 l 119 456 m 203 197 l 100 197 l 118 301 l 222 301 l 203 197 m 96 326 l -7 326 l 11 431 l 115 431 l 96 326 m 310 68 l 206 68 l 224 172 l 328 172 l 310 68 m 74 197 l -29 197 l -11 301 l 92 301 l 74 197 m 181 68 l 78 68 l 96 172 l 199 172 l 181 68 m 51 68 l -51 68 l -33 172 l 69 172 l 51 68 z "},"I":{"ha":1528,"x_min":-51,"x_max":1435,"o":"m 1417 1229 l 1314 1229 l 1332 1333 l 1435 1333 l 1417 1229 m 1288 1229 l 1185 1229 l 1203 1333 l 1306 1333 l 1288 1229 m 1394 1100 l 1292 1100 l 1310 1204 l 1413 1204 l 1394 1100 m 1372 971 l 1268 971 l 1288 1076 l 1390 1076 l 1372 971 m 1160 1229 l 1056 1229 l 1074 1333 l 1178 1333 l 1160 1229 m 1265 1100 l 1163 1100 l 1181 1204 l 1283 1204 l 1265 1100 m 1242 971 l 1139 971 l 1157 1076 l 1261 1076 l 1242 971 m 1031 1229 l 926 1229 l 944 1333 l 1049 1333 l 1031 1229 m 1138 1100 l 1032 1100 l 1050 1204 l 1156 1204 l 1138 1100 m 901 1229 l 799 1229 l 817 1333 l 919 1333 l 901 1229 m 1114 971 l 1010 971 l 1028 1076 l 1133 1076 l 1114 971 m 1008 1100 l 903 1100 l 921 1204 l 1026 1204 l 1008 1100 m 985 971 l 881 971 l 899 1076 l 1003 1076 l 985 971 m 878 1100 l 775 1100 l 793 1204 l 897 1204 l 878 1100 m 772 1229 l 668 1229 l 688 1333 l 790 1333 l 772 1229 m 856 971 l 753 971 l 771 1076 l 874 1076 l 856 971 m 644 1229 l 539 1229 l 557 1333 l 663 1333 l 644 1229 m 749 1100 l 646 1100 l 664 1204 l 767 1204 l 749 1100 m 515 1229 l 410 1229 l 428 1333 l 533 1333 l 515 1229 m 621 1100 l 517 1100 l 535 1204 l 639 1204 l 621 1100 m 726 971 l 624 971 l 642 1076 l 744 1076 l 726 971 m 833 842 l 729 842 l 749 946 l 851 946 l 833 842 m 1258 326 l 1154 326 l 1174 431 l 1276 431 l 1258 326 m 385 1229 l 282 1229 l 300 1333 l 404 1333 l 385 1229 m 599 971 l 493 971 l 513 1076 l 617 1076 l 599 971 m 810 714 l 707 714 l 725 817 l 828 817 l 810 714 m 1235 197 l 1132 197 l 1150 301 l 1253 301 l 1235 197 m 1128 326 l 1025 326 l 1043 431 l 1147 431 l 1128 326 m 492 1100 l 388 1100 l 406 1204 l 510 1204 l 492 1100 m 703 842 l 600 842 l 618 946 l 722 946 l 703 842 m 575 842 l 472 842 l 490 946 l 593 946 l 575 842 m 363 1100 l 260 1100 l 278 1204 l 381 1204 l 363 1100 m 469 971 l 364 971 l 383 1076 l 488 1076 l 469 971 m 1106 197 l 1003 197 l 1021 301 l 1124 301 l 1106 197 m 256 1229 l 153 1229 l 171 1333 l 274 1333 l 256 1229 m 788 585 l 685 585 l 703 688 l 806 688 l 788 585 m 1000 326 l 896 326 l 914 431 l 1019 431 l 1000 326 m 1213 68 l 1110 68 l 1128 172 l 1231 172 l 1213 68 m 681 714 l 578 714 l 596 817 l 699 817 l 681 714 m 553 714 l 449 714 l 468 817 l 571 817 l 553 714 m 340 971 l 236 971 l 256 1076 l 358 1076 l 340 971 m 765 456 l 661 456 l 681 560 l 783 560 l 765 456 m 978 197 l 874 197 l 892 301 l 996 301 l 978 197 m 1083 68 l 981 68 l 999 172 l 1101 172 l 1083 68 m 233 1100 l 131 1100 l 149 1204 l 251 1204 l 233 1100 m 871 326 l 767 326 l 785 431 l 890 431 l 871 326 m 658 585 l 556 585 l 574 688 l 676 688 l 658 585 m 529 585 l 426 585 l 444 688 l 547 688 l 529 585 m 210 971 l 107 971 l 125 1076 l 229 1076 l 210 971 m 742 326 l 639 326 l 657 431 l 760 431 l 742 326 m 849 197 l 744 197 l 763 301 l 867 301 l 849 197 m 635 456 l 532 456 l 550 560 l 654 560 l 635 456 m 956 68 l 850 68 l 868 172 l 974 172 l 956 68 m 507 456 l 404 456 l 422 560 l 525 560 l 507 456 m 719 197 l 617 197 l 635 301 l 738 301 l 719 197 m 826 68 l 721 68 l 739 172 l 844 172 l 826 68 m 613 326 l 510 326 l 528 431 l 631 431 l 613 326 m 485 326 l 381 326 l 399 431 l 503 431 l 485 326 m 696 68 l 593 68 l 611 172 l 715 172 l 696 68 m 590 197 l 486 197 l 506 301 l 608 301 l 590 197 m 463 197 l 357 197 l 375 301 l 481 301 l 463 197 m 356 326 l 250 326 l 269 431 l 374 431 l 356 326 m 567 68 l 464 68 l 482 172 l 585 172 l 567 68 m 226 326 l 122 326 l 142 431 l 244 431 l 226 326 m 333 197 l 228 197 l 246 301 l 351 301 l 333 197 m 439 68 l 335 68 l 353 172 l 457 172 l 439 68 m 203 197 l 100 197 l 118 301 l 222 301 l 203 197 m 96 326 l -7 326 l 11 431 l 115 431 l 96 326 m 310 68 l 206 68 l 224 172 l 328 172 l 310 68 m 181 68 l 78 68 l 96 172 l 199 172 l 181 68 m 74 197 l -29 197 l -11 301 l 92 301 l 74 197 m 51 68 l -51 68 l -33 172 l 69 172 l 51 68 z "},"J":{"ha":1528,"x_min":-51,"x_max":1413,"o":"m 1394 1100 l 1292 1100 l 1310 1204 l 1413 1204 l 1394 1100 m 1288 1229 l 1185 1229 l 1203 1333 l 1306 1333 l 1288 1229 m 1160 1229 l 1056 1229 l 1074 1333 l 1178 1333 l 1160 1229 m 1372 971 l 1268 971 l 1288 1076 l 1390 1076 l 1372 971 m 1265 1100 l 1163 1100 l 1181 1204 l 1283 1204 l 1265 1100 m 1138 1100 l 1032 1100 l 1050 1204 l 1156 1204 l 1138 1100 m 1349 842 l 1246 842 l 1264 946 l 1367 946 l 1349 842 m 1031 1229 l 926 1229 l 944 1333 l 1049 1333 l 1031 1229 m 1242 971 l 1139 971 l 1157 1076 l 1261 1076 l 1242 971 m 1114 971 l 1010 971 l 1028 1076 l 1133 1076 l 1114 971 m 1326 714 l 1224 714 l 1242 817 l 1344 817 l 1326 714 m 901 1229 l 799 1229 l 817 1333 l 919 1333 l 901 1229 m 1008 1100 l 903 1100 l 921 1204 l 1026 1204 l 1008 1100 m 1219 842 l 1117 842 l 1135 946 l 1238 946 l 1219 842 m 878 1100 l 775 1100 l 793 1204 l 897 1204 l 878 1100 m 1092 842 l 988 842 l 1006 946 l 1110 946 l 1092 842 m 985 971 l 881 971 l 899 1076 l 1003 1076 l 985 971 m 1197 714 l 1093 714 l 1113 817 l 1215 817 l 1197 714 m 772 1229 l 668 1229 l 688 1333 l 790 1333 l 772 1229 m 1303 585 l 1200 585 l 1218 688 l 1322 688 l 1303 585 m 1069 714 l 964 714 l 982 817 l 1088 817 l 1069 714 m 644 1229 l 539 1229 l 557 1333 l 663 1333 l 644 1229 m 856 971 l 753 971 l 771 1076 l 874 1076 l 856 971 m 1281 456 l 1178 456 l 1196 560 l 1299 560 l 1281 456 m 749 1100 l 646 1100 l 664 1204 l 767 1204 l 749 1100 m 1174 585 l 1071 585 l 1089 688 l 1192 688 l 1174 585 m 621 1100 l 517 1100 l 535 1204 l 639 1204 l 621 1100 m 1258 326 l 1154 326 l 1174 431 l 1276 431 l 1258 326 m 726 971 l 624 971 l 642 1076 l 744 1076 l 726 971 m 1046 585 l 942 585 l 960 688 l 1064 688 l 1046 585 m 1151 456 l 1049 456 l 1067 560 l 1169 560 l 1151 456 m 515 1229 l 410 1229 l 428 1333 l 533 1333 l 515 1229 m 1235 197 l 1132 197 l 1150 301 l 1253 301 l 1235 197 m 599 971 l 493 971 l 513 1076 l 617 1076 l 599 971 m 1024 456 l 918 456 l 938 560 l 1042 560 l 1024 456 m 385 1229 l 282 1229 l 300 1333 l 404 1333 l 385 1229 m 492 1100 l 388 1100 l 406 1204 l 510 1204 l 492 1100 m 1128 326 l 1025 326 l 1043 431 l 1147 431 l 1128 326 m 363 1100 l 260 1100 l 278 1204 l 381 1204 l 363 1100 m 1106 197 l 1003 197 l 1021 301 l 1124 301 l 1106 197 m 1000 326 l 896 326 l 914 431 l 1019 431 l 1000 326 m 469 971 l 364 971 l 383 1076 l 488 1076 l 469 971 m 978 197 l 874 197 l 892 301 l 996 301 l 978 197 m 340 971 l 236 971 l 256 1076 l 358 1076 l 340 971 m 871 326 l 767 326 l 785 431 l 890 431 l 871 326 m 1083 68 l 981 68 l 999 172 l 1101 172 l 1083 68 m 849 197 l 744 197 l 763 301 l 867 301 l 849 197 m 956 68 l 850 68 l 868 172 l 974 172 l 956 68 m 742 326 l 639 326 l 657 431 l 760 431 l 742 326 m 719 197 l 617 197 l 635 301 l 738 301 l 719 197 m 826 68 l 721 68 l 739 172 l 844 172 l 826 68 m 613 326 l 510 326 l 528 431 l 631 431 l 613 326 m 590 197 l 486 197 l 506 301 l 608 301 l 590 197 m 485 326 l 381 326 l 399 431 l 503 431 l 485 326 m 696 68 l 593 68 l 611 172 l 715 172 l 696 68 m 463 197 l 357 197 l 375 301 l 481 301 l 463 197 m 567 68 l 464 68 l 482 172 l 585 172 l 567 68 m 356 326 l 250 326 l 269 431 l 374 431 l 356 326 m 333 197 l 228 197 l 246 301 l 351 301 l 333 197 m 439 68 l 335 68 l 353 172 l 457 172 l 439 68 m 226 326 l 122 326 l 142 431 l 244 431 l 226 326 m 203 197 l 100 197 l 118 301 l 222 301 l 203 197 m 96 326 l -7 326 l 11 431 l 115 431 l 96 326 m 310 68 l 206 68 l 224 172 l 328 172 l 310 68 m 74 197 l -29 197 l -11 301 l 92 301 l 74 197 m 181 68 l 78 68 l 96 172 l 199 172 l 181 68 m 51 68 l -51 68 l -33 172 l 69 172 l 51 68 z "},"K":{"ha":1528,"x_min":-51,"x_max":1344,"o":"m 1160 1229 l 1056 1229 l 1074 1333 l 1178 1333 l 1160 1229 m 1138 1100 l 1032 1100 l 1050 1204 l 1156 1204 l 1138 1100 m 1031 1229 l 926 1229 l 944 1333 l 1049 1333 l 1031 1229 m 1114 971 l 1010 971 l 1028 1076 l 1133 1076 l 1114 971 m 1326 714 l 1224 714 l 1242 817 l 1344 817 l 1326 714 m 901 1229 l 799 1229 l 817 1333 l 919 1333 l 901 1229 m 1008 1100 l 903 1100 l 921 1204 l 1026 1204 l 1008 1100 m 878 1100 l 775 1100 l 793 1204 l 897 1204 l 878 1100 m 1092 842 l 988 842 l 1006 946 l 1110 946 l 1092 842 m 985 971 l 881 971 l 899 1076 l 1003 1076 l 985 971 m 1197 714 l 1093 714 l 1113 817 l 1215 817 l 1197 714 m 1303 585 l 1200 585 l 1218 688 l 1322 688 l 1303 585 m 1069 714 l 964 714 l 982 817 l 1088 817 l 1069 714 m 856 971 l 753 971 l 771 1076 l 874 1076 l 856 971 m 1281 456 l 1178 456 l 1196 560 l 1299 560 l 1281 456 m 963 842 l 857 842 l 876 946 l 981 946 l 963 842 m 1174 585 l 1071 585 l 1089 688 l 1192 688 l 1174 585 m 833 842 l 729 842 l 749 946 l 851 946 l 833 842 m 940 714 l 835 714 l 853 817 l 958 817 l 940 714 m 1258 326 l 1154 326 l 1174 431 l 1276 431 l 1258 326 m 1046 585 l 942 585 l 960 688 l 1064 688 l 1046 585 m 1151 456 l 1049 456 l 1067 560 l 1169 560 l 1151 456 m 515 1229 l 410 1229 l 428 1333 l 533 1333 l 515 1229 m 1235 197 l 1132 197 l 1150 301 l 1253 301 l 1235 197 m 810 714 l 707 714 l 725 817 l 828 817 l 810 714 m 1024 456 l 918 456 l 938 560 l 1042 560 l 1024 456 m 385 1229 l 282 1229 l 300 1333 l 404 1333 l 385 1229 m 492 1100 l 388 1100 l 406 1204 l 510 1204 l 492 1100 m 1128 326 l 1025 326 l 1043 431 l 1147 431 l 1128 326 m 917 585 l 813 585 l 831 688 l 935 688 l 917 585 m 363 1100 l 260 1100 l 278 1204 l 381 1204 l 363 1100 m 1106 197 l 1003 197 l 1021 301 l 1124 301 l 1106 197 m 1000 326 l 896 326 l 914 431 l 1019 431 l 1000 326 m 1213 68 l 1110 68 l 1128 172 l 1231 172 l 1213 68 m 681 714 l 578 714 l 596 817 l 699 817 l 681 714 m 256 1229 l 153 1229 l 171 1333 l 274 1333 l 256 1229 m 469 971 l 364 971 l 383 1076 l 488 1076 l 469 971 m 788 585 l 685 585 l 703 688 l 806 688 l 788 585 m 978 197 l 874 197 l 892 301 l 996 301 l 978 197 m 553 714 l 449 714 l 467 817 l 571 817 l 553 714 m 340 971 l 236 971 l 256 1076 l 358 1076 l 340 971 m 233 1100 l 131 1100 l 149 1204 l 251 1204 l 233 1100 m 1083 68 l 981 68 l 999 172 l 1101 172 l 1083 68 m 446 842 l 342 842 l 360 946 l 465 946 l 446 842 m 658 585 l 556 585 l 574 688 l 676 688 l 658 585 m 956 68 l 850 68 l 868 172 l 974 172 l 956 68 m 317 842 l 214 842 l 232 946 l 335 946 l 317 842 m 210 971 l 107 971 l 125 1076 l 229 1076 l 210 971 m 424 714 l 319 714 l 338 817 l 442 817 l 424 714 m 531 585 l 425 585 l 443 688 l 549 688 l 531 585 m 294 714 l 192 714 l 210 817 l 313 817 l 294 714 m 188 842 l 85 842 l 103 946 l 206 946 l 188 842 m 401 585 l 296 585 l 314 688 l 419 688 l 401 585 m 165 714 l 61 714 l 81 817 l 183 817 l 165 714 m 271 585 l 168 585 l 186 688 l 290 688 l 271 585 m 378 456 l 274 456 l 292 560 l 396 560 l 378 456 m 249 456 l 146 456 l 164 560 l 267 560 l 249 456 m 356 326 l 250 326 l 269 431 l 374 431 l 356 326 m 142 585 l 39 585 l 57 688 l 160 688 l 142 585 m 333 197 l 228 197 l 246 301 l 351 301 l 333 197 m 226 326 l 122 326 l 142 431 l 244 431 l 226 326 m 119 456 l 17 456 l 35 560 l 138 560 l 119 456 m 203 197 l 100 197 l 118 301 l 222 301 l 203 197 m 96 326 l -7 326 l 11 431 l 115 431 l 96 326 m 310 68 l 206 68 l 224 172 l 328 172 l 310 68 m 74 197 l -29 197 l -11 301 l 92 301 l 74 197 m 181 68 l 78 68 l 96 172 l 199 172 l 181 68 m 51 68 l -51 68 l -33 172 l 69 172 l 51 68 z "},"L":{"ha":1528,"x_min":-51,"x_max":1276,"o":"m 515 1229 l 410 1229 l 428 1333 l 533 1333 l 515 1229 m 1258 326 l 1154 326 l 1174 429 l 1276 429 l 1258 326 m 1235 197 l 1132 197 l 1150 301 l 1253 301 l 1235 197 m 385 1229 l 282 1229 l 300 1333 l 404 1333 l 385 1229 m 492 1100 l 388 1100 l 406 1204 l 510 1204 l 492 1100 m 1129 326 l 1025 326 l 1043 429 l 1147 429 l 1129 326 m 363 1100 l 260 1100 l 278 1204 l 381 1204 l 363 1100 m 1106 197 l 1003 197 l 1021 301 l 1124 301 l 1106 197 m 1213 68 l 1110 68 l 1128 172 l 1231 172 l 1213 68 m 256 1229 l 153 1229 l 171 1333 l 274 1333 l 256 1229 m 469 971 l 364 971 l 383 1076 l 488 1076 l 469 971 m 1000 326 l 896 326 l 914 429 l 1019 429 l 1000 326 m 978 197 l 874 197 l 892 301 l 996 301 l 978 197 m 340 971 l 236 971 l 256 1076 l 358 1076 l 340 971 m 233 1100 l 131 1100 l 149 1204 l 251 1204 l 233 1100 m 1083 68 l 981 68 l 999 172 l 1101 172 l 1083 68 m 446 842 l 342 842 l 360 946 l 465 946 l 446 842 m 871 326 l 767 326 l 785 429 l 889 429 l 871 326 m 849 197 l 744 197 l 763 301 l 867 301 l 849 197 m 956 68 l 850 68 l 868 172 l 974 172 l 956 68 m 317 842 l 214 842 l 232 946 l 335 946 l 317 842 m 210 971 l 107 971 l 125 1076 l 229 1076 l 210 971 m 424 714 l 319 714 l 338 817 l 442 817 l 424 714 m 742 326 l 639 326 l 657 429 l 760 429 l 742 326 m 719 197 l 617 197 l 635 301 l 738 301 l 719 197 m 294 714 l 192 714 l 210 817 l 313 817 l 294 714 m 826 68 l 721 68 l 739 172 l 844 172 l 826 68 m 188 842 l 85 842 l 103 946 l 206 946 l 188 842 m 401 585 l 296 585 l 314 688 l 419 688 l 401 585 m 613 326 l 510 326 l 528 429 l 631 429 l 613 326 m 590 197 l 486 197 l 506 301 l 608 301 l 590 197 m 696 68 l 593 68 l 611 172 l 715 172 l 696 68 m 165 714 l 61 714 l 81 817 l 183 817 l 165 714 m 271 585 l 168 585 l 186 688 l 290 688 l 271 585 m 378 456 l 274 456 l 292 560 l 396 560 l 378 456 m 485 326 l 381 326 l 399 429 l 503 429 l 485 326 m 463 197 l 357 197 l 375 301 l 481 301 l 463 197 m 249 456 l 146 456 l 164 560 l 267 560 l 249 456 m 567 68 l 464 68 l 482 172 l 585 172 l 567 68 m 356 326 l 250 326 l 269 431 l 374 431 l 356 326 m 142 585 l 39 585 l 57 688 l 160 688 l 142 585 m 333 197 l 228 197 l 246 301 l 351 301 l 333 197 m 439 68 l 335 68 l 353 172 l 457 172 l 439 68 m 226 326 l 122 326 l 142 431 l 244 431 l 226 326 m 119 456 l 17 456 l 35 560 l 138 560 l 119 456 m 203 197 l 100 197 l 118 301 l 222 301 l 203 197 m 96 326 l -7 326 l 11 431 l 115 431 l 96 326 m 310 68 l 206 68 l 224 172 l 328 172 l 310 68 m 74 197 l -29 197 l -11 301 l 92 301 l 74 197 m 181 68 l 78 68 l 96 172 l 199 172 l 181 68 m 51 68 l -51 68 l -33 172 l 69 172 l 51 68 z "},"M":{"ha":1528,"x_min":-51,"x_max":1413,"o":"m 1394 1100 l 1292 1100 l 1310 1204 l 1413 1204 l 1394 1100 m 1288 1229 l 1185 1229 l 1203 1333 l 1306 1333 l 1288 1229 m 1160 1229 l 1056 1229 l 1074 1333 l 1178 1333 l 1160 1229 m 1372 971 l 1268 971 l 1288 1076 l 1390 1076 l 1372 971 m 1265 1100 l 1163 1100 l 1181 1204 l 1283 1204 l 1265 1100 m 1138 1100 l 1032 1100 l 1050 1204 l 1156 1204 l 1138 1100 m 1349 842 l 1246 842 l 1264 946 l 1367 946 l 1349 842 m 1031 1229 l 926 1229 l 944 1333 l 1049 1333 l 1031 1229 m 1242 971 l 1139 971 l 1157 1076 l 1261 1076 l 1242 971 m 1114 971 l 1010 971 l 1028 1076 l 1133 1076 l 1114 971 m 1326 714 l 1224 714 l 1242 817 l 1344 817 l 1326 714 m 901 1229 l 799 1229 l 817 1333 l 919 1333 l 901 1229 m 1008 1100 l 903 1100 l 921 1204 l 1026 1204 l 1008 1100 m 1219 842 l 1117 842 l 1135 946 l 1238 946 l 1219 842 m 878 1100 l 775 1100 l 793 1204 l 897 1204 l 878 1100 m 1092 842 l 988 842 l 1006 946 l 1110 946 l 1092 842 m 985 971 l 881 971 l 899 1076 l 1003 1076 l 985 971 m 1197 714 l 1093 714 l 1113 817 l 1215 817 l 1197 714 m 772 1229 l 668 1229 l 688 1333 l 790 1333 l 772 1229 m 1303 585 l 1200 585 l 1218 688 l 1322 688 l 1303 585 m 1069 714 l 964 714 l 982 817 l 1088 817 l 1069 714 m 644 1229 l 539 1229 l 557 1333 l 663 1333 l 644 1229 m 856 971 l 753 971 l 771 1076 l 874 1076 l 856 971 m 1281 456 l 1178 456 l 1196 560 l 1299 560 l 1281 456 m 749 1100 l 646 1100 l 664 1204 l 767 1204 l 749 1100 m 1174 585 l 1071 585 l 1089 688 l 1192 688 l 1174 585 m 621 1100 l 517 1100 l 535 1204 l 639 1204 l 621 1100 m 833 842 l 729 842 l 749 946 l 851 946 l 833 842 m 1258 326 l 1154 326 l 1174 431 l 1276 431 l 1258 326 m 726 971 l 624 971 l 642 1076 l 744 1076 l 726 971 m 1046 585 l 942 585 l 960 688 l 1064 688 l 1046 585 m 1151 456 l 1049 456 l 1067 560 l 1169 560 l 1151 456 m 515 1229 l 410 1229 l 428 1333 l 533 1333 l 515 1229 m 1235 197 l 1132 197 l 1150 301 l 1253 301 l 1235 197 m 599 971 l 493 971 l 513 1076 l 617 1076 l 599 971 m 810 714 l 707 714 l 725 817 l 828 817 l 810 714 m 1024 456 l 918 456 l 938 560 l 1042 560 l 1024 456 m 385 1229 l 282 1229 l 300 1333 l 404 1333 l 385 1229 m 492 1100 l 388 1100 l 406 1204 l 510 1204 l 492 1100 m 703 842 l 600 842 l 618 946 l 722 946 l 703 842 m 1128 326 l 1025 326 l 1043 431 l 1147 431 l 1128 326 m 363 1100 l 260 1100 l 278 1204 l 381 1204 l 363 1100 m 1106 197 l 1003 197 l 1021 301 l 1124 301 l 1106 197 m 1000 326 l 896 326 l 914 431 l 1019 431 l 1000 326 m 1213 68 l 1110 68 l 1128 172 l 1231 172 l 1213 68 m 681 714 l 578 714 l 596 817 l 699 817 l 681 714 m 469 971 l 364 971 l 383 1076 l 488 1076 l 469 971 m 788 585 l 685 585 l 703 688 l 806 688 l 788 585 m 978 197 l 874 197 l 892 301 l 996 301 l 978 197 m 340 971 l 236 971 l 256 1076 l 358 1076 l 340 971 m 765 456 l 661 456 l 681 560 l 783 560 l 765 456 m 233 1100 l 131 1100 l 149 1204 l 251 1204 l 233 1100 m 1083 68 l 981 68 l 999 172 l 1101 172 l 1083 68 m 446 842 l 342 842 l 360 946 l 465 946 l 446 842 m 658 585 l 556 585 l 574 688 l 676 688 l 658 585 m 956 68 l 850 68 l 868 172 l 974 172 l 956 68 m 317 842 l 214 842 l 232 946 l 335 946 l 317 842 m 742 326 l 639 326 l 657 431 l 760 431 l 742 326 m 210 971 l 107 971 l 125 1076 l 229 1076 l 210 971 m 424 714 l 319 714 l 338 817 l 442 817 l 424 714 m 635 456 l 532 456 l 550 560 l 654 560 l 635 456 m 719 197 l 617 197 l 635 301 l 738 301 l 719 197 m 294 714 l 192 714 l 210 817 l 313 817 l 294 714 m 188 842 l 85 842 l 103 946 l 206 946 l 188 842 m 613 326 l 510 326 l 528 431 l 631 431 l 613 326 m 401 585 l 296 585 l 314 688 l 419 688 l 401 585 m 590 197 l 486 197 l 506 301 l 608 301 l 590 197 m 165 714 l 61 714 l 81 817 l 183 817 l 165 714 m 271 585 l 168 585 l 186 688 l 290 688 l 271 585 m 378 456 l 274 456 l 292 560 l 396 560 l 378 456 m 249 456 l 146 456 l 164 560 l 267 560 l 249 456 m 356 326 l 250 326 l 269 431 l 374 431 l 356 326 m 142 585 l 39 585 l 57 688 l 160 688 l 142 585 m 333 197 l 228 197 l 246 301 l 351 301 l 333 197 m 226 326 l 122 326 l 142 431 l 244 431 l 226 326 m 119 456 l 17 456 l 35 560 l 138 560 l 119 456 m 203 197 l 100 197 l 118 301 l 222 301 l 203 197 m 96 326 l -7 326 l 11 431 l 115 431 l 96 326 m 310 68 l 206 68 l 224 172 l 328 172 l 310 68 m 74 197 l -29 197 l -11 301 l 92 301 l 74 197 m 181 68 l 78 68 l 96 172 l 199 172 l 181 68 m 51 68 l -51 68 l -33 172 l 69 172 l 51 68 z "},"N":{"ha":1528,"x_min":-51,"x_max":1413,"o":"m 1394 1100 l 1292 1100 l 1310 1204 l 1413 1204 l 1394 1100 m 1288 1229 l 1185 1229 l 1203 1333 l 1306 1333 l 1288 1229 m 1160 1229 l 1056 1229 l 1074 1333 l 1178 1333 l 1160 1229 m 1372 971 l 1268 971 l 1288 1076 l 1390 1076 l 1372 971 m 1265 1100 l 1163 1100 l 1181 1204 l 1283 1204 l 1265 1100 m 1138 1100 l 1032 1100 l 1050 1204 l 1156 1204 l 1138 1100 m 1349 842 l 1246 842 l 1264 946 l 1367 946 l 1349 842 m 1031 1229 l 926 1229 l 944 1333 l 1049 1333 l 1031 1229 m 1242 971 l 1139 971 l 1157 1076 l 1261 1076 l 1242 971 m 1114 971 l 1010 971 l 1028 1076 l 1133 1076 l 1114 971 m 1326 714 l 1224 714 l 1242 817 l 1344 817 l 1326 714 m 901 1229 l 799 1229 l 817 1333 l 919 1333 l 901 1229 m 1008 1100 l 903 1100 l 921 1204 l 1026 1204 l 1008 1100 m 1219 842 l 1117 842 l 1135 946 l 1238 946 l 1219 842 m 878 1100 l 775 1100 l 793 1204 l 897 1204 l 878 1100 m 1092 842 l 988 842 l 1006 946 l 1110 946 l 1092 842 m 985 971 l 881 971 l 899 1076 l 1003 1076 l 985 971 m 1197 714 l 1093 714 l 1113 817 l 1215 817 l 1197 714 m 772 1229 l 668 1229 l 688 1333 l 790 1333 l 772 1229 m 1303 585 l 1200 585 l 1218 688 l 1322 688 l 1303 585 m 1069 714 l 964 714 l 982 817 l 1088 817 l 1069 714 m 644 1229 l 539 1229 l 557 1333 l 663 1333 l 644 1229 m 856 971 l 753 971 l 771 1076 l 874 1076 l 856 971 m 1281 456 l 1178 456 l 1196 560 l 1299 560 l 1281 456 m 749 1100 l 646 1100 l 664 1204 l 767 1204 l 749 1100 m 1174 585 l 1071 585 l 1089 688 l 1192 688 l 1174 585 m 621 1100 l 517 1100 l 535 1204 l 639 1204 l 621 1100 m 1258 326 l 1154 326 l 1174 431 l 1276 431 l 1258 326 m 726 971 l 624 971 l 642 1076 l 744 1076 l 726 971 m 1046 585 l 942 585 l 960 688 l 1064 688 l 1046 585 m 1151 456 l 1049 456 l 1067 560 l 1169 560 l 1151 456 m 515 1229 l 410 1229 l 428 1333 l 533 1333 l 515 1229 m 1235 197 l 1132 197 l 1150 301 l 1253 301 l 1235 197 m 599 971 l 493 971 l 513 1076 l 617 1076 l 599 971 m 1024 456 l 918 456 l 938 560 l 1042 560 l 1024 456 m 385 1229 l 282 1229 l 300 1333 l 404 1333 l 385 1229 m 492 1100 l 388 1100 l 406 1204 l 510 1204 l 492 1100 m 1128 326 l 1025 326 l 1043 431 l 1147 431 l 1128 326 m 363 1100 l 260 1100 l 278 1204 l 381 1204 l 363 1100 m 1106 197 l 1003 197 l 1021 301 l 1124 301 l 1106 197 m 1000 326 l 896 326 l 914 431 l 1019 431 l 1000 326 m 1213 68 l 1110 68 l 1128 172 l 1231 172 l 1213 68 m 256 1229 l 153 1229 l 171 1333 l 274 1333 l 256 1229 m 469 971 l 364 971 l 383 1076 l 488 1076 l 469 971 m 978 197 l 874 197 l 892 301 l 996 301 l 978 197 m 340 971 l 236 971 l 256 1076 l 358 1076 l 340 971 m 233 1100 l 131 1100 l 149 1204 l 251 1204 l 233 1100 m 1083 68 l 981 68 l 999 172 l 1101 172 l 1083 68 m 446 842 l 342 842 l 360 946 l 465 946 l 446 842 m 956 68 l 850 68 l 868 172 l 974 172 l 956 68 m 317 842 l 214 842 l 232 946 l 335 946 l 317 842 m 210 971 l 107 971 l 125 1076 l 229 1076 l 210 971 m 424 714 l 319 714 l 338 817 l 442 817 l 424 714 m 294 714 l 192 714 l 210 817 l 313 817 l 294 714 m 188 842 l 85 842 l 103 946 l 206 946 l 188 842 m 401 585 l 296 585 l 314 688 l 419 688 l 401 585 m 165 714 l 61 714 l 81 817 l 183 817 l 165 714 m 271 585 l 168 585 l 186 688 l 290 688 l 271 585 m 378 456 l 274 456 l 292 560 l 396 560 l 378 456 m 249 456 l 146 456 l 164 560 l 267 560 l 249 456 m 356 326 l 250 326 l 269 431 l 374 431 l 356 326 m 142 585 l 39 585 l 57 688 l 160 688 l 142 585 m 333 197 l 228 197 l 246 301 l 351 301 l 333 197 m 226 326 l 122 326 l 142 431 l 244 431 l 226 326 m 119 456 l 17 456 l 35 560 l 138 560 l 119 456 m 203 197 l 100 197 l 118 301 l 222 301 l 203 197 m 96 326 l -7 326 l 11 431 l 115 431 l 96 326 m 310 68 l 206 68 l 224 172 l 328 172 l 310 68 m 74 197 l -29 197 l -11 301 l 92 301 l 74 197 m 181 68 l 78 68 l 96 172 l 199 172 l 181 68 m 51 68 l -51 68 l -33 172 l 69 172 l 51 68 z "},"O":{"ha":1528,"x_min":-29,"x_max":1413,"o":"m 1394 1100 l 1292 1100 l 1310 1204 l 1413 1204 l 1394 1100 m 1288 1229 l 1185 1229 l 1203 1333 l 1306 1333 l 1288 1229 m 1160 1229 l 1056 1229 l 1074 1333 l 1178 1333 l 1160 1229 m 1372 971 l 1268 971 l 1288 1076 l 1390 1076 l 1372 971 m 1265 1100 l 1163 1100 l 1181 1204 l 1283 1204 l 1265 1100 m 1138 1100 l 1032 1100 l 1050 1204 l 1156 1204 l 1138 1100 m 1349 842 l 1246 842 l 1264 946 l 1367 946 l 1349 842 m 1031 1229 l 926 1229 l 944 1333 l 1049 1333 l 1031 1229 m 1242 971 l 1139 971 l 1157 1076 l 1261 1076 l 1242 971 m 1114 971 l 1010 971 l 1028 1076 l 1133 1076 l 1114 971 m 1326 714 l 1224 714 l 1242 817 l 1344 817 l 1326 714 m 901 1229 l 799 1229 l 817 1333 l 919 1333 l 901 1229 m 1008 1100 l 903 1100 l 921 1204 l 1026 1204 l 1008 1100 m 1219 842 l 1117 842 l 1135 946 l 1238 946 l 1219 842 m 878 1100 l 775 1100 l 793 1204 l 897 1204 l 878 1100 m 1092 842 l 988 842 l 1006 946 l 1110 946 l 1092 842 m 985 971 l 881 971 l 899 1076 l 1003 1076 l 985 971 m 1197 714 l 1093 714 l 1113 817 l 1215 817 l 1197 714 m 772 1229 l 668 1229 l 688 1333 l 790 1333 l 772 1229 m 1303 585 l 1200 585 l 1218 688 l 1322 688 l 1303 585 m 1069 714 l 964 714 l 982 817 l 1088 817 l 1069 714 m 644 1229 l 539 1229 l 557 1333 l 663 1333 l 644 1229 m 856 971 l 753 971 l 771 1076 l 874 1076 l 856 971 m 1281 456 l 1178 456 l 1196 560 l 1299 560 l 1281 456 m 749 1100 l 646 1100 l 664 1204 l 767 1204 l 749 1100 m 1174 585 l 1071 585 l 1089 688 l 1192 688 l 1174 585 m 621 1100 l 517 1100 l 535 1204 l 639 1204 l 621 1100 m 1258 326 l 1154 326 l 1174 431 l 1276 431 l 1258 326 m 726 971 l 624 971 l 642 1076 l 744 1076 l 726 971 m 1046 585 l 942 585 l 960 688 l 1064 688 l 1046 585 m 1151 456 l 1049 456 l 1067 560 l 1169 560 l 1151 456 m 515 1229 l 410 1229 l 428 1333 l 533 1333 l 515 1229 m 1235 197 l 1132 197 l 1150 301 l 1253 301 l 1235 197 m 599 971 l 493 971 l 513 1076 l 617 1076 l 599 971 m 1024 456 l 918 456 l 938 560 l 1042 560 l 1024 456 m 385 1229 l 282 1229 l 300 1333 l 404 1333 l 385 1229 m 492 1100 l 388 1100 l 406 1204 l 510 1204 l 492 1100 m 1128 326 l 1025 326 l 1043 431 l 1147 431 l 1128 326 m 363 1100 l 260 1100 l 278 1204 l 381 1204 l 363 1100 m 1106 197 l 1003 197 l 1021 301 l 1124 301 l 1106 197 m 1000 326 l 896 326 l 914 431 l 1019 431 l 1000 326 m 469 971 l 364 971 l 383 1076 l 488 1076 l 469 971 m 978 197 l 874 197 l 892 301 l 996 301 l 978 197 m 340 971 l 236 971 l 256 1076 l 358 1076 l 340 971 m 233 1100 l 131 1100 l 149 1204 l 251 1204 l 233 1100 m 1083 68 l 981 68 l 999 172 l 1101 172 l 1083 68 m 446 842 l 342 842 l 360 946 l 465 946 l 446 842 m 871 325 l 767 325 l 785 428 l 889 428 l 871 325 m 849 197 l 744 197 l 763 301 l 867 301 l 849 197 m 956 68 l 850 68 l 868 172 l 974 172 l 956 68 m 317 842 l 214 842 l 232 946 l 335 946 l 317 842 m 742 326 l 639 326 l 657 431 l 760 431 l 742 326 m 210 971 l 107 971 l 125 1076 l 229 1076 l 210 971 m 424 714 l 319 714 l 338 817 l 442 817 l 424 714 m 719 197 l 617 197 l 635 301 l 738 301 l 719 197 m 294 714 l 192 714 l 210 817 l 313 817 l 294 714 m 826 68 l 721 68 l 739 172 l 844 172 l 826 68 m 188 842 l 85 842 l 103 946 l 206 946 l 188 842 m 613 326 l 510 326 l 528 431 l 631 431 l 613 326 m 401 585 l 296 585 l 314 688 l 419 688 l 401 585 m 590 197 l 486 197 l 506 301 l 608 301 l 590 197 m 696 68 l 593 68 l 611 172 l 715 172 l 696 68 m 165 714 l 61 714 l 81 817 l 183 817 l 165 714 m 271 585 l 168 585 l 186 688 l 290 688 l 271 585 m 378 456 l 274 456 l 292 560 l 396 560 l 378 456 m 485 325 l 379 325 l 399 428 l 503 428 l 485 325 m 463 197 l 357 197 l 375 301 l 481 301 l 463 197 m 249 456 l 146 456 l 164 560 l 267 560 l 249 456 m 567 68 l 464 68 l 482 172 l 585 172 l 567 68 m 356 326 l 250 326 l 269 431 l 374 431 l 356 326 m 142 585 l 39 585 l 57 688 l 160 688 l 142 585 m 333 197 l 228 197 l 246 301 l 351 301 l 333 197 m 439 68 l 335 68 l 353 172 l 457 172 l 439 68 m 226 326 l 122 326 l 142 431 l 244 431 l 226 326 m 119 456 l 17 456 l 35 560 l 138 560 l 119 456 m 203 197 l 100 197 l 118 301 l 222 301 l 203 197 m 96 326 l -7 326 l 11 431 l 115 431 l 96 326 m 310 68 l 206 68 l 224 172 l 328 172 l 310 68 m 74 197 l -29 197 l -11 301 l 92 301 l 74 197 m 181 68 l 78 68 l 96 172 l 199 172 l 181 68 z "},"P":{"ha":1528,"x_min":-51,"x_max":1414,"o":"m 1289 1229 l 1185 1229 l 1203 1333 l 1307 1333 l 1289 1229 m 1396 1100 l 1290 1100 l 1308 1204 l 1414 1204 l 1396 1100 m 1372 971 l 1268 971 l 1286 1076 l 1392 1076 l 1372 971 m 1160 1229 l 1056 1229 l 1074 1333 l 1178 1333 l 1160 1229 m 1267 1100 l 1161 1100 l 1179 1204 l 1285 1204 l 1267 1100 m 1243 971 l 1139 971 l 1157 1076 l 1261 1076 l 1243 971 m 1031 1229 l 926 1229 l 944 1333 l 1049 1333 l 1031 1229 m 1138 1100 l 1032 1100 l 1050 1204 l 1156 1204 l 1138 1100 m 1350 840 l 1244 840 l 1264 944 l 1368 944 l 1350 840 m 901 1229 l 799 1229 l 817 1333 l 919 1333 l 901 1229 m 1328 713 l 1222 713 l 1240 818 l 1346 818 l 1328 713 m 1114 971 l 1010 971 l 1028 1076 l 1133 1076 l 1114 971 m 1008 1100 l 903 1100 l 921 1204 l 1026 1204 l 1008 1100 m 1221 840 l 1115 840 l 1133 944 l 1239 944 l 1221 840 m 1304 586 l 1200 586 l 1219 690 l 1322 690 l 1304 586 m 878 1100 l 775 1100 l 793 1204 l 897 1204 l 878 1100 m 1197 713 l 1093 713 l 1111 818 l 1217 818 l 1197 713 m 772 1229 l 668 1229 l 688 1333 l 790 1333 l 772 1229 m 985 971 l 881 971 l 899 1076 l 1003 1076 l 985 971 m 1092 840 l 986 840 l 1006 944 l 1110 944 l 1092 840 m 1175 586 l 1071 586 l 1089 690 l 1193 690 l 1175 586 m 856 971 l 753 971 l 771 1076 l 874 1076 l 856 971 m 644 1229 l 539 1229 l 557 1333 l 663 1333 l 644 1229 m 1069 713 l 964 713 l 982 818 l 1088 818 l 1069 713 m 749 1100 l 646 1100 l 664 1204 l 767 1204 l 749 1100 m 1047 586 l 942 586 l 960 690 l 1065 690 l 1047 586 m 1151 457 l 1049 457 l 1067 561 l 1169 561 l 1151 457 m 515 1229 l 410 1229 l 428 1333 l 533 1333 l 515 1229 m 621 1100 l 517 1100 l 535 1204 l 639 1204 l 621 1100 m 726 971 l 624 971 l 642 1076 l 744 1076 l 726 971 m 917 586 l 813 586 l 831 690 l 936 690 l 917 586 m 1024 457 l 919 457 l 938 561 l 1042 561 l 1024 457 m 599 971 l 493 971 l 513 1076 l 617 1076 l 599 971 m 385 1229 l 282 1229 l 300 1333 l 404 1333 l 385 1229 m 492 1100 l 388 1100 l 406 1204 l 510 1204 l 492 1100 m 788 586 l 685 586 l 703 690 l 806 690 l 788 586 m 894 457 l 790 457 l 808 561 l 913 561 l 894 457 m 256 1229 l 153 1229 l 171 1333 l 274 1333 l 256 1229 m 469 971 l 364 971 l 383 1076 l 488 1076 l 469 971 m 363 1100 l 260 1100 l 278 1204 l 381 1204 l 363 1100 m 765 457 l 663 457 l 681 561 l 783 561 l 765 457 m 658 586 l 556 586 l 574 690 l 676 690 l 658 586 m 340 971 l 236 971 l 256 1076 l 358 1076 l 340 971 m 233 1100 l 131 1100 l 149 1204 l 251 1204 l 233 1100 m 446 842 l 342 842 l 360 946 l 465 946 l 446 842 m 531 586 l 426 586 l 444 690 l 549 690 l 531 586 m 636 457 l 532 457 l 551 561 l 654 561 l 636 457 m 210 971 l 107 971 l 125 1076 l 229 1076 l 210 971 m 424 714 l 319 714 l 338 817 l 442 817 l 424 714 m 317 842 l 214 842 l 232 946 l 335 946 l 317 842 m 508 457 l 403 457 l 421 561 l 526 561 l 508 457 m 294 714 l 192 714 l 210 817 l 313 817 l 294 714 m 188 842 l 85 842 l 103 946 l 206 946 l 188 842 m 401 585 l 296 585 l 314 688 l 419 688 l 401 585 m 165 714 l 61 714 l 81 817 l 183 817 l 165 714 m 378 456 l 274 456 l 292 560 l 396 560 l 378 456 m 271 585 l 168 585 l 186 688 l 290 688 l 271 585 m 249 456 l 146 456 l 164 560 l 267 560 l 249 456 m 142 585 l 39 585 l 57 688 l 160 688 l 142 585 m 356 326 l 250 326 l 269 431 l 374 431 l 356 326 m 119 456 l 17 456 l 35 560 l 138 560 l 119 456 m 333 197 l 228 197 l 246 301 l 351 301 l 333 197 m 226 326 l 122 326 l 142 431 l 244 431 l 226 326 m 203 197 l 100 197 l 118 301 l 222 301 l 203 197 m 310 68 l 206 68 l 224 172 l 328 172 l 310 68 m 96 326 l -7 326 l 11 431 l 115 431 l 96 326 m 74 197 l -29 197 l -11 301 l 92 301 l 74 197 m 181 68 l 78 68 l 96 172 l 199 172 l 181 68 m 51 68 l -51 68 l -33 172 l 69 172 l 51 68 z "},"Q":{"ha":1528,"x_min":-29,"x_max":1413,"o":"m 1394 1100 l 1292 1100 l 1310 1204 l 1413 1204 l 1394 1100 m 1288 1229 l 1185 1229 l 1203 1333 l 1306 1333 l 1288 1229 m 1160 1229 l 1056 1229 l 1074 1333 l 1178 1333 l 1160 1229 m 1372 971 l 1268 971 l 1288 1076 l 1390 1076 l 1372 971 m 1265 1100 l 1163 1100 l 1181 1204 l 1283 1204 l 1265 1100 m 1138 1100 l 1032 1100 l 1050 1204 l 1156 1204 l 1138 1100 m 1349 842 l 1246 842 l 1264 946 l 1367 946 l 1349 842 m 1031 1229 l 926 1229 l 944 1333 l 1049 1333 l 1031 1229 m 1242 971 l 1139 971 l 1157 1076 l 1261 1076 l 1242 971 m 1114 971 l 1010 971 l 1028 1076 l 1133 1076 l 1114 971 m 1326 714 l 1224 714 l 1242 817 l 1344 817 l 1326 714 m 901 1229 l 799 1229 l 817 1333 l 919 1333 l 901 1229 m 1008 1100 l 903 1100 l 921 1204 l 1026 1204 l 1008 1100 m 1219 842 l 1117 842 l 1135 946 l 1238 946 l 1219 842 m 878 1100 l 775 1100 l 793 1204 l 897 1204 l 878 1100 m 1092 842 l 988 842 l 1006 946 l 1110 946 l 1092 842 m 985 971 l 881 971 l 899 1076 l 1003 1076 l 985 971 m 1197 714 l 1093 714 l 1113 817 l 1215 817 l 1197 714 m 772 1229 l 668 1229 l 688 1333 l 790 1333 l 772 1229 m 1303 585 l 1200 585 l 1218 688 l 1322 688 l 1303 585 m 1069 714 l 964 714 l 982 817 l 1088 817 l 1069 714 m 644 1229 l 539 1229 l 557 1333 l 663 1333 l 644 1229 m 856 971 l 753 971 l 771 1076 l 874 1076 l 856 971 m 1281 456 l 1178 456 l 1196 560 l 1299 560 l 1281 456 m 749 1100 l 646 1100 l 664 1204 l 767 1204 l 749 1100 m 1174 585 l 1071 585 l 1089 688 l 1192 688 l 1174 585 m 621 1100 l 517 1100 l 535 1204 l 639 1204 l 621 1100 m 1258 326 l 1154 326 l 1174 431 l 1276 431 l 1258 326 m 726 971 l 624 971 l 642 1076 l 744 1076 l 726 971 m 1046 585 l 942 585 l 960 688 l 1064 688 l 1046 585 m 1151 456 l 1049 456 l 1067 560 l 1169 560 l 1151 456 m 515 1229 l 410 1229 l 428 1333 l 533 1333 l 515 1229 m 1235 197 l 1132 197 l 1150 301 l 1253 301 l 1235 197 m 599 971 l 493 971 l 513 1076 l 617 1076 l 599 971 m 1024 456 l 918 456 l 938 560 l 1042 560 l 1024 456 m 385 1229 l 282 1229 l 300 1333 l 404 1333 l 385 1229 m 492 1100 l 388 1100 l 406 1204 l 510 1204 l 492 1100 m 1128 326 l 1025 326 l 1043 431 l 1147 431 l 1128 326 m 363 1100 l 260 1100 l 278 1204 l 381 1204 l 363 1100 m 1106 197 l 1003 197 l 1021 301 l 1124 301 l 1106 197 m 1000 326 l 896 326 l 914 431 l 1019 431 l 1000 326 m 469 971 l 364 971 l 383 1076 l 488 1076 l 469 971 m 788 582 l 683 582 l 703 688 l 806 688 l 788 582 m 978 197 l 874 197 l 892 301 l 996 301 l 978 197 m 340 971 l 236 971 l 256 1076 l 358 1076 l 340 971 m 765 456 l 661 456 l 681 560 l 783 560 l 765 456 m 233 1100 l 131 1100 l 149 1204 l 251 1204 l 233 1100 m 1083 68 l 981 68 l 999 172 l 1101 172 l 1083 68 m 446 842 l 342 842 l 360 946 l 465 946 l 446 842 m 871 325 l 767 325 l 785 428 l 889 428 l 871 325 m 658 582 l 554 582 l 574 688 l 676 688 l 658 582 m 849 197 l 744 197 l 763 301 l 867 301 l 849 197 m 956 68 l 850 68 l 868 172 l 974 172 l 956 68 m 317 842 l 214 842 l 232 946 l 335 946 l 317 842 m 742 326 l 639 326 l 657 431 l 760 431 l 742 326 m 210 971 l 107 971 l 125 1076 l 229 1076 l 210 971 m 424 714 l 319 714 l 338 817 l 442 817 l 424 714 m 635 456 l 532 456 l 550 560 l 654 560 l 635 456 m 719 197 l 617 197 l 635 301 l 738 301 l 719 197 m 294 714 l 192 714 l 210 817 l 313 817 l 294 714 m 826 68 l 721 68 l 739 172 l 844 172 l 826 68 m 188 842 l 85 842 l 103 946 l 206 946 l 188 842 m 613 326 l 510 326 l 528 431 l 631 431 l 613 326 m 401 585 l 296 585 l 314 688 l 419 688 l 401 585 m 590 197 l 486 197 l 506 301 l 608 301 l 590 197 m 696 68 l 593 68 l 611 172 l 715 172 l 696 68 m 165 714 l 61 714 l 81 817 l 183 817 l 165 714 m 271 585 l 168 585 l 186 688 l 290 688 l 271 585 m 378 456 l 274 456 l 292 560 l 396 560 l 378 456 m 485 325 l 379 325 l 399 428 l 503 428 l 485 325 m 463 197 l 357 197 l 375 301 l 481 301 l 463 197 m 249 456 l 146 456 l 164 560 l 267 560 l 249 456 m 567 68 l 464 68 l 482 172 l 585 172 l 567 68 m 356 326 l 250 326 l 269 431 l 374 431 l 356 326 m 142 585 l 39 585 l 57 688 l 160 688 l 142 585 m 333 197 l 228 197 l 246 301 l 351 301 l 333 197 m 439 68 l 335 68 l 353 172 l 457 172 l 439 68 m 226 326 l 122 326 l 142 431 l 244 431 l 226 326 m 119 456 l 17 456 l 35 560 l 138 560 l 119 456 m 203 197 l 100 197 l 118 301 l 222 301 l 203 197 m 96 326 l -7 326 l 11 431 l 115 431 l 96 326 m 310 68 l 206 68 l 224 172 l 328 172 l 310 68 m 74 197 l -29 197 l -11 301 l 92 301 l 74 197 m 181 68 l 78 68 l 96 172 l 199 172 l 181 68 z "},"R":{"ha":1528,"x_min":-40,"x_max":1310,"o":"m 1042 1229 l 938 1229 l 956 1333 l 1060 1333 l 1042 1229 m 1149 1100 l 1044 1100 l 1063 1204 l 1167 1204 l 1149 1100 m 913 1229 l 810 1229 l 828 1333 l 931 1333 l 913 1229 m 1126 971 l 1021 971 l 1040 1075 l 1144 1075 l 1126 971 m 1019 1100 l 915 1100 l 933 1204 l 1038 1204 l 1019 1100 m 1103 842 l 999 842 l 1017 947 l 1122 947 l 1103 842 m 783 1229 l 681 1229 l 699 1333 l 801 1333 l 783 1229 m 890 1100 l 786 1100 l 806 1204 l 908 1204 l 890 1100 m 996 971 l 892 971 l 910 1075 l 1015 1075 l 996 971 m 656 1229 l 551 1229 l 569 1333 l 674 1333 l 656 1229 m 974 842 l 869 842 l 888 947 l 992 947 l 974 842 m 867 971 l 764 971 l 782 1075 l 886 1075 l 867 971 m 761 1100 l 657 1100 l 675 1204 l 779 1204 l 761 1100 m 1185 583 l 1082 583 l 1100 688 l 1204 688 l 1185 583 m 1292 454 l 1189 454 l 1207 557 l 1310 557 l 1292 454 m 1079 710 l 975 710 l 993 814 l 1099 814 l 1079 710 m 844 842 l 742 842 l 760 947 l 863 947 l 844 842 m 526 1229 l 421 1229 l 440 1333 l 544 1333 l 526 1229 m 633 1100 l 528 1100 l 546 1204 l 651 1204 l 633 1100 m 738 971 l 635 971 l 653 1075 l 756 1075 l 738 971 m 1269 325 l 1167 325 l 1185 429 l 1288 429 l 1269 325 m 1057 583 l 953 583 l 971 688 l 1076 688 l 1057 583 m 1163 454 l 1060 454 l 1078 557 l 1181 557 l 1163 454 m 950 710 l 846 710 l 864 814 l 969 814 l 950 710 m 397 1229 l 293 1229 l 313 1333 l 415 1333 l 397 1229 m 610 971 l 506 971 l 524 1075 l 628 1075 l 610 971 m 503 1100 l 399 1100 l 417 1204 l 522 1204 l 503 1100 m 1140 325 l 1036 325 l 1056 429 l 1158 429 l 1140 325 m 928 583 l 824 583 l 842 688 l 946 688 l 928 583 m 1035 454 l 931 454 l 949 557 l 1053 557 l 1035 454 m 1246 196 l 1143 196 l 1161 300 l 1265 300 l 1246 196 m 821 710 l 718 710 l 736 814 l 839 814 l 821 710 m 268 1229 l 164 1229 l 182 1333 l 286 1333 l 268 1229 m 374 1100 l 271 1100 l 289 1204 l 392 1204 l 374 1100 m 481 971 l 376 971 l 394 1075 l 499 1075 l 481 971 m 1013 325 l 907 325 l 925 429 l 1031 429 l 1013 325 m 799 583 l 696 583 l 714 688 l 817 688 l 799 583 m 1224 68 l 1121 68 l 1139 171 l 1242 171 l 1224 68 m 906 454 l 800 454 l 819 557 l 924 557 l 906 454 m 1117 196 l 1014 196 l 1032 300 l 1135 300 l 1117 196 m 351 971 l 249 971 l 267 1075 l 369 1075 l 351 971 m 244 1100 l 142 1100 l 160 1204 l 263 1204 l 244 1100 m 458 842 l 353 842 l 371 946 l 476 946 l 458 842 m 669 583 l 567 583 l 585 688 l 688 688 l 669 583 m 776 454 l 672 454 l 692 557 l 794 557 l 776 454 m 989 196 l 885 196 l 903 300 l 1007 300 l 989 196 m 1094 68 l 992 68 l 1010 171 l 1113 171 l 1094 68 m 1201 -62 l 1097 -62 l 1115 42 l 1219 42 l 1201 -62 m 222 971 l 118 971 l 138 1075 l 240 1075 l 222 971 m 328 842 l 225 842 l 243 946 l 347 946 l 328 842 m 435 714 l 331 714 l 349 817 l 453 817 l 435 714 m 542 583 l 438 583 l 456 688 l 560 688 l 542 583 m 967 68 l 863 68 l 881 171 l 985 171 l 967 68 m 647 454 l 543 454 l 561 557 l 665 557 l 647 454 m 1072 -62 l 968 -62 l 986 42 l 1090 42 l 1072 -62 m 306 714 l 203 714 l 221 817 l 324 817 l 306 714 m 199 842 l 96 842 l 114 946 l 218 946 l 199 842 m 413 585 l 307 585 l 326 688 l 431 688 l 413 585 m 519 454 l 414 454 l 432 557 l 538 557 l 519 454 m 943 -62 l 839 -62 l 857 42 l 963 42 l 943 -62 m 176 714 l 74 714 l 92 817 l 194 817 l 176 714 m 283 585 l 179 585 l 199 688 l 301 688 l 283 585 m 389 454 l 285 454 l 303 560 l 408 560 l 389 454 m 260 454 l 157 454 l 175 560 l 279 560 l 260 454 m 154 585 l 50 585 l 68 688 l 172 688 l 154 585 m 367 325 l 263 325 l 281 431 l 385 431 l 367 325 m 131 454 l 28 454 l 46 560 l 149 560 l 131 454 m 238 325 l 135 325 l 153 431 l 256 431 l 238 325 m 344 197 l 239 197 l 257 300 l 363 300 l 344 197 m 215 197 l 111 197 l 129 300 l 233 300 l 215 197 m 108 325 l 4 325 l 24 431 l 126 431 l 108 325 m 321 68 l 217 68 l 235 171 l 339 171 l 321 68 m 85 197 l -18 197 l 0 300 l 104 300 l 85 197 m 192 68 l 89 68 l 107 171 l 210 171 l 192 68 m 63 68 l -40 68 l -22 171 l 81 171 l 63 68 z "},"S":{"ha":1528,"x_min":-51,"x_max":1435,"o":"m 1417 1229 l 1314 1229 l 1332 1333 l 1435 1333 l 1417 1229 m 1394 1100 l 1292 1100 l 1310 1204 l 1413 1204 l 1394 1100 m 1288 1229 l 1185 1229 l 1203 1333 l 1306 1333 l 1288 1229 m 1160 1229 l 1056 1229 l 1074 1333 l 1178 1333 l 1160 1229 m 1372 971 l 1268 971 l 1288 1076 l 1390 1076 l 1372 971 m 1265 1100 l 1163 1100 l 1181 1204 l 1283 1204 l 1265 1100 m 1138 1100 l 1032 1100 l 1050 1204 l 1156 1204 l 1138 1100 m 1031 1229 l 926 1229 l 944 1333 l 1049 1333 l 1031 1229 m 1242 971 l 1139 971 l 1157 1076 l 1261 1076 l 1242 971 m 1114 971 l 1010 971 l 1028 1076 l 1133 1076 l 1114 971 m 1326 714 l 1224 714 l 1242 817 l 1344 817 l 1326 714 m 901 1229 l 799 1229 l 817 1333 l 919 1333 l 901 1229 m 1008 1100 l 903 1100 l 921 1204 l 1026 1204 l 1008 1100 m 878 1100 l 775 1100 l 793 1204 l 897 1204 l 878 1100 m 985 971 l 881 971 l 899 1076 l 1003 1076 l 985 971 m 1197 714 l 1093 714 l 1113 817 l 1215 817 l 1197 714 m 772 1229 l 668 1229 l 688 1333 l 790 1333 l 772 1229 m 1303 585 l 1200 585 l 1218 688 l 1322 688 l 1303 585 m 1069 714 l 964 714 l 982 817 l 1088 817 l 1069 714 m 644 1229 l 539 1229 l 557 1333 l 663 1333 l 644 1229 m 856 971 l 753 971 l 771 1076 l 874 1076 l 856 971 m 1281 456 l 1178 456 l 1196 560 l 1299 560 l 1281 456 m 749 1100 l 646 1100 l 664 1204 l 767 1204 l 749 1100 m 1174 585 l 1071 585 l 1089 688 l 1192 688 l 1174 585 m 621 1100 l 517 1100 l 535 1204 l 639 1204 l 621 1100 m 940 714 l 835 714 l 853 817 l 958 817 l 940 714 m 1258 326 l 1154 326 l 1174 431 l 1276 431 l 1258 326 m 726 971 l 624 971 l 642 1076 l 744 1076 l 726 971 m 1046 585 l 942 585 l 960 688 l 1064 688 l 1046 585 m 1151 456 l 1049 456 l 1067 560 l 1169 560 l 1151 456 m 515 1229 l 410 1229 l 428 1333 l 533 1333 l 515 1229 m 1235 197 l 1132 197 l 1150 301 l 1253 301 l 1235 197 m 599 971 l 493 971 l 513 1076 l 617 1076 l 599 971 m 810 714 l 707 714 l 725 817 l 828 817 l 810 714 m 1024 456 l 918 456 l 938 560 l 1042 560 l 1024 456 m 385 1229 l 282 1229 l 300 1333 l 404 1333 l 385 1229 m 492 1100 l 388 1100 l 406 1204 l 510 1204 l 492 1100 m 1128 326 l 1025 326 l 1043 431 l 1147 431 l 1128 326 m 917 585 l 813 585 l 831 688 l 935 688 l 917 585 m 363 1100 l 260 1100 l 278 1204 l 381 1204 l 363 1100 m 1106 197 l 1003 197 l 1021 301 l 1124 301 l 1106 197 m 1000 326 l 896 326 l 914 431 l 1019 431 l 1000 326 m 681 714 l 578 714 l 596 817 l 699 817 l 681 714 m 469 971 l 364 971 l 383 1076 l 488 1076 l 469 971 m 788 585 l 685 585 l 703 688 l 806 688 l 788 585 m 978 197 l 874 197 l 892 301 l 996 301 l 978 197 m 553 714 l 449 714 l 467 817 l 571 817 l 553 714 m 340 971 l 236 971 l 256 1076 l 358 1076 l 340 971 m 233 1100 l 131 1100 l 149 1204 l 251 1204 l 233 1100 m 871 326 l 767 326 l 785 431 l 890 431 l 871 326 m 1083 68 l 981 68 l 999 172 l 1101 172 l 1083 68 m 446 842 l 342 842 l 360 946 l 465 946 l 446 842 m 658 585 l 556 585 l 574 688 l 676 688 l 658 585 m 849 197 l 744 197 l 763 301 l 867 301 l 849 197 m 956 68 l 850 68 l 868 172 l 974 172 l 956 68 m 317 842 l 214 842 l 232 946 l 335 946 l 317 842 m 742 326 l 639 326 l 657 431 l 760 431 l 742 326 m 210 971 l 107 971 l 125 1076 l 229 1076 l 210 971 m 424 714 l 319 714 l 338 817 l 442 817 l 424 714 m 531 585 l 425 585 l 443 688 l 549 688 l 531 585 m 719 197 l 617 197 l 635 301 l 738 301 l 719 197 m 294 714 l 192 714 l 210 817 l 313 817 l 294 714 m 826 68 l 721 68 l 739 172 l 844 172 l 826 68 m 188 842 l 85 842 l 103 946 l 206 946 l 188 842 m 613 326 l 510 326 l 528 431 l 631 431 l 613 326 m 401 585 l 296 585 l 314 688 l 419 688 l 401 585 m 590 197 l 486 197 l 506 301 l 608 301 l 590 197 m 485 326 l 381 326 l 399 431 l 503 431 l 485 326 m 696 68 l 593 68 l 611 172 l 715 172 l 696 68 m 165 714 l 61 714 l 81 817 l 183 817 l 165 714 m 271 585 l 168 585 l 186 688 l 290 688 l 271 585 m 463 197 l 357 197 l 375 301 l 481 301 l 463 197 m 567 68 l 464 68 l 482 172 l 585 172 l 567 68 m 356 326 l 250 326 l 269 431 l 374 431 l 356 326 m 142 585 l 39 585 l 57 688 l 160 688 l 142 585 m 333 197 l 228 197 l 246 301 l 351 301 l 333 197 m 439 68 l 335 68 l 353 172 l 457 172 l 439 68 m 226 326 l 122 326 l 142 431 l 244 431 l 226 326 m 203 197 l 100 197 l 118 301 l 222 301 l 203 197 m 96 326 l -7 326 l 11 431 l 115 431 l 96 326 m 310 68 l 206 68 l 224 172 l 328 172 l 310 68 m 74 197 l -29 197 l -11 301 l 92 301 l 74 197 m 181 68 l 78 68 l 96 172 l 199 172 l 181 68 m 51 68 l -51 68 l -33 172 l 69 172 l 51 68 z "},"T":{"ha":1528,"x_min":103,"x_max":1432,"o":"m 1414 1229 l 1310 1229 l 1328 1333 l 1432 1333 l 1414 1229 m 1390 1100 l 1288 1100 l 1306 1204 l 1408 1204 l 1390 1100 m 1283 1229 l 1181 1229 l 1199 1333 l 1303 1333 l 1283 1229 m 1368 971 l 1264 971 l 1283 1076 l 1386 1076 l 1368 971 m 1156 1229 l 1051 1229 l 1069 1333 l 1174 1333 l 1156 1229 m 1261 1100 l 1158 1100 l 1176 1204 l 1279 1204 l 1261 1100 m 1133 1100 l 1029 1100 l 1047 1204 l 1151 1204 l 1133 1100 m 1239 971 l 1135 971 l 1154 1076 l 1257 1076 l 1239 971 m 1026 1229 l 922 1229 l 940 1333 l 1044 1333 l 1026 1229 m 897 1229 l 794 1229 l 813 1333 l 915 1333 l 897 1229 m 1111 971 l 1006 971 l 1024 1076 l 1129 1076 l 1111 971 m 1004 1100 l 899 1100 l 918 1204 l 1022 1204 l 1004 1100 m 875 1100 l 771 1100 l 789 1204 l 893 1204 l 875 1100 m 768 1229 l 665 1229 l 683 1333 l 786 1333 l 768 1229 m 981 971 l 876 971 l 894 1076 l 1000 1076 l 981 971 m 851 971 l 749 971 l 767 1076 l 871 1076 l 851 971 m 640 1229 l 536 1229 l 554 1333 l 658 1333 l 640 1229 m 746 1100 l 642 1100 l 660 1204 l 764 1204 l 746 1100 m 617 1100 l 513 1100 l 531 1204 l 636 1204 l 617 1100 m 829 842 l 726 842 l 744 946 l 847 946 l 829 842 m 722 971 l 619 971 l 638 1076 l 740 1076 l 722 971 m 511 1229 l 406 1229 l 424 1333 l 529 1333 l 511 1229 m 807 714 l 703 714 l 721 817 l 825 817 l 807 714 m 382 1229 l 278 1229 l 296 1333 l 400 1333 l 382 1229 m 594 971 l 490 971 l 508 1076 l 613 1076 l 594 971 m 488 1100 l 383 1100 l 401 1204 l 506 1204 l 488 1100 m 700 842 l 596 842 l 615 946 l 718 946 l 700 842 m 574 842 l 471 842 l 489 946 l 592 946 l 574 842 m 358 1100 l 256 1100 l 274 1204 l 376 1204 l 358 1100 m 676 714 l 574 714 l 592 817 l 696 817 l 676 714 m 783 585 l 681 585 l 699 688 l 801 688 l 783 585 m 251 1229 l 149 1229 l 167 1333 l 271 1333 l 251 1229 m 465 971 l 361 971 l 379 1076 l 483 1076 l 465 971 m 551 714 l 449 714 l 467 817 l 569 817 l 551 714 m 336 971 l 232 971 l 251 1076 l 354 1076 l 336 971 m 761 456 l 657 456 l 676 560 l 779 560 l 761 456 m 229 1100 l 126 1100 l 144 1204 l 247 1204 l 229 1100 m 654 585 l 551 585 l 569 688 l 672 688 l 654 585 m 529 585 l 425 585 l 443 688 l 547 688 l 529 585 m 738 326 l 635 326 l 653 431 l 757 431 l 738 326 m 207 971 l 103 971 l 122 1076 l 225 1076 l 207 971 m 632 456 l 528 456 l 547 560 l 650 560 l 632 456 m 506 456 l 403 456 l 421 560 l 524 560 l 506 456 m 715 197 l 613 197 l 631 301 l 733 301 l 715 197 m 608 326 l 506 326 l 524 431 l 626 431 l 608 326 m 483 326 l 379 326 l 399 431 l 501 431 l 483 326 m 586 197 l 483 197 l 501 301 l 604 301 l 586 197 m 693 68 l 589 68 l 607 172 l 711 172 l 693 68 m 460 197 l 357 197 l 375 301 l 479 301 l 460 197 m 564 68 l 460 68 l 478 172 l 582 172 l 564 68 m 438 68 l 335 68 l 353 172 l 456 172 l 438 68 z "},"U":{"ha":1528,"x_min":-29,"x_max":1435,"o":"m 1417 1229 l 1314 1229 l 1332 1333 l 1435 1333 l 1417 1229 m 1288 1229 l 1185 1229 l 1203 1333 l 1306 1333 l 1288 1229 m 1394 1100 l 1292 1100 l 1310 1204 l 1413 1204 l 1394 1100 m 1160 1229 l 1056 1229 l 1074 1333 l 1178 1333 l 1160 1229 m 1372 971 l 1268 971 l 1288 1076 l 1390 1076 l 1372 971 m 1265 1100 l 1163 1100 l 1181 1204 l 1283 1204 l 1265 1100 m 1349 842 l 1246 842 l 1264 946 l 1367 946 l 1349 842 m 1138 1100 l 1032 1100 l 1050 1204 l 1156 1204 l 1138 1100 m 1242 971 l 1139 971 l 1157 1076 l 1261 1076 l 1242 971 m 1114 971 l 1010 971 l 1028 1076 l 1133 1076 l 1114 971 m 1326 714 l 1224 714 l 1242 817 l 1344 817 l 1326 714 m 1219 842 l 1117 842 l 1135 946 l 1238 946 l 1219 842 m 1092 842 l 988 842 l 1006 946 l 1110 946 l 1092 842 m 1197 714 l 1093 714 l 1113 817 l 1215 817 l 1197 714 m 1303 585 l 1200 585 l 1218 688 l 1322 688 l 1303 585 m 1069 714 l 964 714 l 982 817 l 1088 817 l 1069 714 m 1281 456 l 1178 456 l 1196 560 l 1299 560 l 1281 456 m 1174 585 l 1071 585 l 1089 688 l 1192 688 l 1174 585 m 1046 585 l 942 585 l 960 688 l 1064 688 l 1046 585 m 1258 326 l 1154 326 l 1174 431 l 1276 431 l 1258 326 m 515 1229 l 410 1229 l 428 1333 l 533 1333 l 515 1229 m 1151 456 l 1049 456 l 1067 560 l 1169 560 l 1151 456 m 1024 456 l 918 456 l 938 560 l 1042 560 l 1024 456 m 385 1229 l 282 1229 l 300 1333 l 404 1333 l 385 1229 m 1235 197 l 1132 197 l 1150 301 l 1253 301 l 1235 197 m 1128 326 l 1025 326 l 1043 431 l 1147 431 l 1128 326 m 492 1100 l 388 1100 l 406 1204 l 510 1204 l 492 1100 m 1000 326 l 896 326 l 914 431 l 1019 431 l 1000 326 m 256 1229 l 153 1229 l 171 1333 l 274 1333 l 256 1229 m 469 971 l 364 971 l 383 1076 l 488 1076 l 469 971 m 363 1100 l 260 1100 l 278 1204 l 381 1204 l 363 1100 m 1106 197 l 1003 197 l 1021 301 l 1124 301 l 1106 197 m 340 971 l 236 971 l 256 1076 l 358 1076 l 340 971 m 978 197 l 874 197 l 892 301 l 996 301 l 978 197 m 446 842 l 342 842 l 360 946 l 465 946 l 446 842 m 871 326 l 767 326 l 785 431 l 890 431 l 871 326 m 1083 68 l 981 68 l 999 172 l 1101 172 l 1083 68 m 233 1100 l 131 1100 l 149 1204 l 251 1204 l 233 1100 m 317 842 l 214 842 l 232 946 l 335 946 l 317 842 m 956 68 l 850 68 l 868 172 l 974 172 l 956 68 m 210 971 l 107 971 l 125 1076 l 229 1076 l 210 971 m 424 714 l 319 714 l 338 817 l 442 817 l 424 714 m 742 326 l 639 326 l 657 431 l 760 431 l 742 326 m 849 197 l 744 197 l 763 301 l 867 301 l 849 197 m 294 714 l 192 714 l 210 817 l 313 817 l 294 714 m 719 197 l 617 197 l 635 301 l 738 301 l 719 197 m 188 842 l 85 842 l 103 946 l 206 946 l 188 842 m 613 326 l 510 326 l 528 431 l 631 431 l 613 326 m 826 68 l 721 68 l 739 172 l 844 172 l 826 68 m 401 585 l 296 585 l 314 688 l 419 688 l 401 585 m 165 714 l 61 714 l 81 817 l 183 817 l 165 714 m 485 326 l 381 326 l 399 431 l 503 431 l 485 326 m 271 585 l 168 585 l 186 688 l 290 688 l 271 585 m 378 456 l 274 456 l 292 560 l 396 560 l 378 456 m 696 68 l 593 68 l 611 172 l 715 172 l 696 68 m 590 197 l 486 197 l 506 301 l 608 301 l 590 197 m 249 456 l 146 456 l 164 560 l 267 560 l 249 456 m 463 197 l 357 197 l 375 301 l 481 301 l 463 197 m 356 326 l 250 326 l 269 431 l 374 431 l 356 326 m 142 585 l 39 585 l 57 688 l 160 688 l 142 585 m 567 68 l 464 68 l 482 172 l 585 172 l 567 68 m 226 326 l 122 326 l 142 431 l 244 431 l 226 326 m 119 456 l 17 456 l 35 560 l 138 560 l 119 456 m 439 68 l 335 68 l 353 172 l 457 172 l 439 68 m 333 197 l 228 197 l 246 301 l 351 301 l 333 197 m 203 197 l 100 197 l 118 301 l 222 301 l 203 197 m 96 326 l -7 326 l 11 431 l 115 431 l 96 326 m 310 68 l 206 68 l 224 172 l 328 172 l 310 68 m 181 68 l 78 68 l 96 172 l 199 172 l 181 68 m 74 197 l -29 197 l -11 301 l 92 301 l 74 197 z "},"V":{"ha":1528,"x_min":-29,"x_max":1435,"o":"m 1417 1229 l 1314 1229 l 1332 1333 l 1435 1333 l 1417 1229 m 1288 1229 l 1185 1229 l 1203 1333 l 1306 1333 l 1288 1229 m 1394 1100 l 1292 1100 l 1310 1204 l 1413 1204 l 1394 1100 m 1160 1229 l 1056 1229 l 1074 1333 l 1178 1333 l 1160 1229 m 1372 971 l 1268 971 l 1288 1076 l 1390 1076 l 1372 971 m 1265 1100 l 1163 1100 l 1181 1204 l 1283 1204 l 1265 1100 m 1349 842 l 1246 842 l 1264 946 l 1367 946 l 1349 842 m 1138 1100 l 1032 1100 l 1050 1204 l 1156 1204 l 1138 1100 m 1242 971 l 1139 971 l 1157 1076 l 1261 1076 l 1242 971 m 1114 971 l 1010 971 l 1028 1076 l 1133 1076 l 1114 971 m 1326 714 l 1224 714 l 1242 817 l 1344 817 l 1326 714 m 1219 842 l 1117 842 l 1135 946 l 1238 946 l 1219 842 m 1092 842 l 988 842 l 1006 946 l 1110 946 l 1092 842 m 1197 714 l 1093 714 l 1113 817 l 1215 817 l 1197 714 m 1303 585 l 1200 585 l 1218 688 l 1322 688 l 1303 585 m 1069 714 l 964 714 l 982 817 l 1088 817 l 1069 714 m 1281 456 l 1178 456 l 1196 560 l 1299 560 l 1281 456 m 1174 585 l 1071 585 l 1089 688 l 1192 688 l 1174 585 m 1046 585 l 942 585 l 960 688 l 1064 688 l 1046 585 m 1258 326 l 1154 326 l 1174 431 l 1276 431 l 1258 326 m 515 1229 l 410 1229 l 428 1333 l 533 1333 l 515 1229 m 1151 456 l 1049 456 l 1067 560 l 1169 560 l 1151 456 m 1024 456 l 918 456 l 938 560 l 1042 560 l 1024 456 m 385 1229 l 282 1229 l 300 1333 l 404 1333 l 385 1229 m 1128 326 l 1025 326 l 1043 431 l 1147 431 l 1128 326 m 492 1100 l 388 1100 l 406 1204 l 510 1204 l 492 1100 m 1000 326 l 896 326 l 914 431 l 1019 431 l 1000 326 m 256 1229 l 153 1229 l 171 1333 l 274 1333 l 256 1229 m 469 971 l 364 971 l 383 1076 l 488 1076 l 469 971 m 363 1100 l 260 1100 l 278 1204 l 381 1204 l 363 1100 m 340 971 l 236 971 l 256 1076 l 358 1076 l 340 971 m 978 197 l 874 197 l 892 301 l 996 301 l 978 197 m 446 842 l 342 842 l 360 946 l 465 946 l 446 842 m 871 326 l 767 326 l 785 431 l 890 431 l 871 326 m 233 1100 l 131 1100 l 149 1204 l 251 1204 l 233 1100 m 317 842 l 214 842 l 232 946 l 335 946 l 317 842 m 956 68 l 850 68 l 868 172 l 974 172 l 956 68 m 210 971 l 107 971 l 125 1076 l 229 1076 l 210 971 m 424 714 l 319 714 l 338 817 l 442 817 l 424 714 m 742 326 l 639 326 l 657 431 l 760 431 l 742 326 m 849 197 l 744 197 l 763 301 l 867 301 l 849 197 m 294 714 l 192 714 l 210 817 l 313 817 l 294 714 m 719 197 l 617 197 l 635 301 l 738 301 l 719 197 m 188 842 l 85 842 l 103 946 l 206 946 l 188 842 m 613 326 l 510 326 l 528 431 l 631 431 l 613 326 m 826 68 l 721 68 l 739 172 l 844 172 l 826 68 m 401 585 l 296 585 l 314 688 l 419 688 l 401 585 m 165 714 l 61 714 l 81 817 l 183 817 l 165 714 m 485 326 l 381 326 l 399 431 l 503 431 l 485 326 m 271 585 l 168 585 l 186 688 l 290 688 l 271 585 m 378 456 l 274 456 l 292 560 l 396 560 l 378 456 m 696 68 l 593 68 l 611 172 l 715 172 l 696 68 m 590 197 l 486 197 l 506 301 l 608 301 l 590 197 m 249 456 l 146 456 l 164 560 l 267 560 l 249 456 m 463 197 l 357 197 l 375 301 l 481 301 l 463 197 m 356 326 l 250 326 l 269 431 l 374 431 l 356 326 m 142 585 l 39 585 l 57 688 l 160 688 l 142 585 m 567 68 l 464 68 l 482 172 l 585 172 l 567 68 m 226 326 l 122 326 l 142 431 l 244 431 l 226 326 m 119 456 l 17 456 l 35 560 l 138 560 l 119 456 m 439 68 l 335 68 l 353 172 l 457 172 l 439 68 m 333 197 l 228 197 l 246 301 l 351 301 l 333 197 m 203 197 l 100 197 l 118 301 l 222 301 l 203 197 m 96 326 l -7 326 l 11 431 l 115 431 l 96 326 m 310 68 l 206 68 l 224 172 l 328 172 l 310 68 m 181 68 l 78 68 l 96 172 l 199 172 l 181 68 m 74 197 l -29 197 l -11 301 l 92 301 l 74 197 z "},"W":{"ha":1528,"x_min":-29,"x_max":1435,"o":"m 1417 1229 l 1314 1229 l 1332 1333 l 1435 1333 l 1417 1229 m 1288 1229 l 1185 1229 l 1203 1333 l 1306 1333 l 1288 1229 m 1394 1100 l 1292 1100 l 1310 1204 l 1413 1204 l 1394 1100 m 1160 1229 l 1056 1229 l 1074 1333 l 1178 1333 l 1160 1229 m 1372 971 l 1268 971 l 1288 1076 l 1390 1076 l 1372 971 m 1265 1100 l 1163 1100 l 1181 1204 l 1283 1204 l 1265 1100 m 1349 842 l 1246 842 l 1264 946 l 1367 946 l 1349 842 m 1138 1100 l 1032 1100 l 1050 1204 l 1156 1204 l 1138 1100 m 1242 971 l 1139 971 l 1157 1076 l 1261 1076 l 1242 971 m 1114 971 l 1010 971 l 1028 1076 l 1133 1076 l 1114 971 m 1326 714 l 1224 714 l 1242 817 l 1344 817 l 1326 714 m 1219 842 l 1117 842 l 1135 946 l 1238 946 l 1219 842 m 1092 842 l 988 842 l 1006 946 l 1110 946 l 1092 842 m 1197 714 l 1093 714 l 1113 817 l 1215 817 l 1197 714 m 1303 585 l 1200 585 l 1218 688 l 1322 688 l 1303 585 m 878 1100 l 775 1100 l 793 1204 l 897 1204 l 878 1100 m 1069 714 l 964 714 l 982 817 l 1088 817 l 1069 714 m 856 971 l 753 971 l 771 1076 l 874 1076 l 856 971 m 1281 456 l 1178 456 l 1196 560 l 1299 560 l 1281 456 m 1174 585 l 1071 585 l 1089 688 l 1192 688 l 1174 585 m 749 1100 l 646 1100 l 664 1204 l 767 1204 l 749 1100 m 833 842 l 729 842 l 749 946 l 851 946 l 833 842 m 1046 585 l 942 585 l 960 688 l 1064 688 l 1046 585 m 1258 326 l 1154 326 l 1174 431 l 1276 431 l 1258 326 m 515 1229 l 410 1229 l 428 1333 l 533 1333 l 515 1229 m 726 971 l 624 971 l 642 1076 l 744 1076 l 726 971 m 1151 456 l 1049 456 l 1067 560 l 1169 560 l 1151 456 m 1024 456 l 918 456 l 938 560 l 1042 560 l 1024 456 m 385 1229 l 282 1229 l 300 1333 l 404 1333 l 385 1229 m 810 714 l 707 714 l 725 817 l 828 817 l 810 714 m 1235 197 l 1132 197 l 1150 301 l 1253 301 l 1235 197 m 703 842 l 600 842 l 618 946 l 722 946 l 703 842 m 1128 326 l 1025 326 l 1043 431 l 1147 431 l 1128 326 m 492 1100 l 388 1100 l 406 1204 l 510 1204 l 492 1100 m 1000 326 l 896 326 l 914 431 l 1019 431 l 1000 326 m 256 1229 l 153 1229 l 171 1333 l 274 1333 l 256 1229 m 469 971 l 364 971 l 383 1076 l 488 1076 l 469 971 m 681 714 l 578 714 l 596 817 l 699 817 l 681 714 m 363 1100 l 260 1100 l 278 1204 l 381 1204 l 363 1100 m 788 585 l 685 585 l 703 688 l 806 688 l 788 585 m 1106 197 l 1003 197 l 1021 301 l 1124 301 l 1106 197 m 340 971 l 236 971 l 256 1076 l 358 1076 l 340 971 m 765 456 l 661 456 l 681 560 l 783 560 l 765 456 m 978 197 l 874 197 l 892 301 l 996 301 l 978 197 m 446 842 l 342 842 l 360 946 l 465 946 l 446 842 m 871 326 l 767 326 l 785 431 l 890 431 l 871 326 m 1083 68 l 981 68 l 999 172 l 1101 172 l 1083 68 m 233 1100 l 131 1100 l 149 1204 l 251 1204 l 233 1100 m 658 585 l 556 585 l 574 688 l 676 688 l 658 585 m 317 842 l 214 842 l 232 946 l 335 946 l 317 842 m 956 68 l 850 68 l 868 172 l 974 172 l 956 68 m 210 971 l 107 971 l 125 1076 l 229 1076 l 210 971 m 424 714 l 319 714 l 338 817 l 442 817 l 424 714 m 742 326 l 639 326 l 657 431 l 760 431 l 742 326 m 635 456 l 532 456 l 550 560 l 654 560 l 635 456 m 849 197 l 744 197 l 763 301 l 867 301 l 849 197 m 294 714 l 192 714 l 210 817 l 313 817 l 294 714 m 719 197 l 617 197 l 635 301 l 738 301 l 719 197 m 188 842 l 85 842 l 103 946 l 206 946 l 188 842 m 613 326 l 510 326 l 528 431 l 631 431 l 613 326 m 826 68 l 721 68 l 739 172 l 844 172 l 826 68 m 401 585 l 296 585 l 314 688 l 419 688 l 401 585 m 165 714 l 61 714 l 81 817 l 183 817 l 165 714 m 485 326 l 381 326 l 399 431 l 503 431 l 485 326 m 271 585 l 168 585 l 186 688 l 290 688 l 271 585 m 378 456 l 274 456 l 292 560 l 396 560 l 378 456 m 696 68 l 593 68 l 611 172 l 715 172 l 696 68 m 590 197 l 486 197 l 506 301 l 608 301 l 590 197 m 249 456 l 146 456 l 164 560 l 267 560 l 249 456 m 463 197 l 357 197 l 375 301 l 481 301 l 463 197 m 356 326 l 250 326 l 269 431 l 374 431 l 356 326 m 142 585 l 39 585 l 57 688 l 160 688 l 142 585 m 567 68 l 464 68 l 482 172 l 585 172 l 567 68 m 226 326 l 122 326 l 142 431 l 244 431 l 226 326 m 119 456 l 17 456 l 35 560 l 138 560 l 119 456 m 439 68 l 335 68 l 353 172 l 457 172 l 439 68 m 333 197 l 228 197 l 246 301 l 351 301 l 333 197 m 203 197 l 100 197 l 118 301 l 222 301 l 203 197 m 96 326 l -7 326 l 11 431 l 115 431 l 96 326 m 310 68 l 206 68 l 224 172 l 328 172 l 310 68 m 181 68 l 78 68 l 96 172 l 199 172 l 181 68 m 74 197 l -29 197 l -11 301 l 92 301 l 74 197 z "},"X":{"ha":1528,"x_min":-51,"x_max":1435,"o":"m 1417 1229 l 1314 1229 l 1332 1333 l 1435 1333 l 1417 1229 m 1394 1100 l 1292 1100 l 1310 1204 l 1413 1204 l 1394 1100 m 1288 1229 l 1185 1229 l 1203 1333 l 1306 1333 l 1288 1229 m 1160 1229 l 1056 1229 l 1074 1333 l 1178 1333 l 1160 1229 m 1372 971 l 1268 971 l 1288 1076 l 1390 1076 l 1372 971 m 1265 1100 l 1163 1100 l 1181 1204 l 1283 1204 l 1265 1100 m 1138 1100 l 1032 1100 l 1050 1204 l 1156 1204 l 1138 1100 m 1349 842 l 1246 842 l 1264 946 l 1367 946 l 1349 842 m 1242 971 l 1139 971 l 1157 1076 l 1261 1076 l 1242 971 m 1114 971 l 1010 971 l 1028 1076 l 1133 1076 l 1114 971 m 1219 842 l 1117 842 l 1135 946 l 1238 946 l 1219 842 m 1092 842 l 988 842 l 1006 946 l 1110 946 l 1092 842 m 1069 714 l 964 714 l 982 817 l 1088 817 l 1069 714 m 1281 456 l 1178 456 l 1196 560 l 1299 560 l 1281 456 m 940 714 l 835 714 l 853 817 l 958 817 l 940 714 m 1258 326 l 1154 326 l 1174 431 l 1276 431 l 1258 326 m 1046 585 l 942 585 l 960 688 l 1064 688 l 1046 585 m 1151 456 l 1049 456 l 1067 560 l 1169 560 l 1151 456 m 515 1229 l 410 1229 l 428 1333 l 533 1333 l 515 1229 m 1235 197 l 1132 197 l 1150 301 l 1253 301 l 1235 197 m 810 714 l 707 714 l 725 817 l 828 817 l 810 714 m 1024 456 l 918 456 l 938 560 l 1042 560 l 1024 456 m 385 1229 l 282 1229 l 300 1333 l 404 1333 l 385 1229 m 492 1100 l 388 1100 l 406 1204 l 510 1204 l 492 1100 m 1128 326 l 1025 326 l 1043 431 l 1147 431 l 1128 326 m 917 585 l 813 585 l 831 688 l 935 688 l 917 585 m 363 1100 l 260 1100 l 278 1204 l 381 1204 l 363 1100 m 1106 197 l 1003 197 l 1021 301 l 1124 301 l 1106 197 m 1000 326 l 896 326 l 914 431 l 1019 431 l 1000 326 m 1213 68 l 1110 68 l 1128 172 l 1231 172 l 1213 68 m 681 714 l 578 714 l 596 817 l 699 817 l 681 714 m 256 1229 l 153 1229 l 171 1333 l 274 1333 l 256 1229 m 469 971 l 364 971 l 383 1076 l 488 1076 l 469 971 m 788 585 l 685 585 l 703 688 l 806 688 l 788 585 m 978 197 l 874 197 l 892 301 l 996 301 l 978 197 m 553 714 l 449 714 l 467 817 l 571 817 l 553 714 m 340 971 l 236 971 l 256 1076 l 358 1076 l 340 971 m 233 1100 l 131 1100 l 149 1204 l 251 1204 l 233 1100 m 1083 68 l 981 68 l 999 172 l 1101 172 l 1083 68 m 446 842 l 342 842 l 360 946 l 465 946 l 446 842 m 658 585 l 556 585 l 574 688 l 676 688 l 658 585 m 956 68 l 850 68 l 868 172 l 974 172 l 956 68 m 317 842 l 214 842 l 232 946 l 335 946 l 317 842 m 210 971 l 107 971 l 125 1076 l 229 1076 l 210 971 m 424 714 l 319 714 l 338 817 l 442 817 l 424 714 m 531 585 l 425 585 l 443 688 l 549 688 l 531 585 m 188 842 l 85 842 l 103 946 l 206 946 l 188 842 m 401 585 l 296 585 l 314 688 l 419 688 l 401 585 m 378 456 l 274 456 l 292 560 l 396 560 l 378 456 m 249 456 l 146 456 l 164 560 l 267 560 l 249 456 m 356 326 l 250 326 l 269 431 l 374 431 l 356 326 m 333 197 l 228 197 l 246 301 l 351 301 l 333 197 m 226 326 l 122 326 l 142 431 l 244 431 l 226 326 m 119 456 l 17 456 l 35 560 l 138 560 l 119 456 m 203 197 l 100 197 l 118 301 l 222 301 l 203 197 m 96 326 l -7 326 l 11 431 l 115 431 l 96 326 m 310 68 l 206 68 l 224 172 l 328 172 l 310 68 m 74 197 l -29 197 l -11 301 l 92 301 l 74 197 m 181 68 l 78 68 l 96 172 l 199 172 l 181 68 m 51 68 l -51 68 l -33 172 l 69 172 l 51 68 z "},"Y":{"ha":1528,"x_min":58,"x_max":1432,"o":"m 1414 1229 l 1310 1229 l 1328 1333 l 1432 1333 l 1414 1229 m 1390 1100 l 1288 1100 l 1306 1204 l 1408 1204 l 1390 1100 m 1283 1229 l 1181 1229 l 1199 1333 l 1303 1333 l 1283 1229 m 1368 971 l 1264 971 l 1283 1076 l 1386 1076 l 1368 971 m 1156 1229 l 1051 1229 l 1069 1333 l 1174 1333 l 1156 1229 m 1261 1100 l 1158 1100 l 1176 1204 l 1279 1204 l 1261 1100 m 1133 1100 l 1029 1100 l 1047 1204 l 1151 1204 l 1133 1100 m 1344 842 l 1242 842 l 1260 946 l 1364 946 l 1344 842 m 1239 971 l 1135 971 l 1154 1076 l 1257 1076 l 1239 971 m 1322 714 l 1219 714 l 1238 817 l 1340 817 l 1322 714 m 1111 971 l 1006 971 l 1024 1076 l 1129 1076 l 1111 971 m 1215 842 l 1113 842 l 1131 946 l 1233 946 l 1215 842 m 1088 842 l 983 842 l 1001 946 l 1106 946 l 1088 842 m 1193 714 l 1090 714 l 1108 817 l 1211 817 l 1193 714 m 1065 714 l 960 714 l 979 817 l 1083 817 l 1065 714 m 1171 585 l 1067 585 l 1085 688 l 1189 688 l 1171 585 m 936 714 l 831 714 l 849 817 l 954 817 l 936 714 m 1042 585 l 938 585 l 956 688 l 1061 688 l 1042 585 m 511 1229 l 406 1229 l 424 1333 l 529 1333 l 511 1229 m 807 714 l 703 714 l 721 817 l 825 817 l 807 714 m 382 1229 l 278 1229 l 296 1333 l 400 1333 l 382 1229 m 488 1100 l 383 1100 l 401 1204 l 506 1204 l 488 1100 m 913 585 l 808 585 l 826 688 l 931 688 l 913 585 m 358 1100 l 256 1100 l 274 1204 l 376 1204 l 358 1100 m 676 714 l 574 714 l 592 817 l 696 817 l 676 714 m 783 585 l 681 585 l 699 688 l 801 688 l 783 585 m 251 1229 l 149 1229 l 167 1333 l 271 1333 l 251 1229 m 465 971 l 361 971 l 379 1076 l 483 1076 l 465 971 m 336 971 l 232 971 l 251 1076 l 354 1076 l 336 971 m 549 714 l 444 714 l 463 817 l 567 817 l 549 714 m 760 456 l 657 456 l 675 560 l 779 560 l 760 456 m 229 1100 l 126 1100 l 144 1204 l 247 1204 l 229 1100 m 442 842 l 338 842 l 356 946 l 461 946 l 442 842 m 654 585 l 551 585 l 569 688 l 672 688 l 654 585 m 313 842 l 210 842 l 228 946 l 332 946 l 313 842 m 207 971 l 103 971 l 122 1076 l 225 1076 l 207 971 m 419 714 l 315 714 l 333 817 l 438 817 l 419 714 m 526 585 l 422 585 l 440 688 l 544 688 l 526 585 m 738 326 l 635 326 l 653 431 l 756 431 l 738 326 m 631 456 l 528 456 l 546 560 l 649 560 l 631 456 m 290 714 l 188 714 l 206 817 l 308 817 l 290 714 m 715 197 l 611 197 l 629 301 l 733 301 l 715 197 m 503 456 l 399 456 l 417 560 l 521 560 l 503 456 m 183 842 l 81 842 l 99 946 l 201 946 l 183 842 m 397 585 l 292 585 l 311 688 l 415 688 l 397 585 m 608 326 l 504 326 l 524 431 l 626 431 l 608 326 m 161 714 l 58 714 l 76 817 l 179 817 l 161 714 m 268 585 l 164 585 l 182 688 l 286 688 l 268 585 m 585 197 l 482 197 l 500 301 l 604 301 l 585 197 m 481 326 l 375 326 l 394 431 l 499 431 l 481 326 m 692 68 l 589 68 l 607 172 l 710 172 l 692 68 m 457 197 l 353 197 l 371 301 l 476 301 l 457 197 m 563 68 l 460 68 l 478 172 l 581 172 l 563 68 m 435 68 l 331 68 l 349 172 l 453 172 l 435 68 z "},"Z":{"ha":1528,"x_min":-29,"x_max":1413,"o":"m 1394 1100 l 1292 1100 l 1310 1204 l 1413 1204 l 1394 1100 m 1288 1229 l 1185 1229 l 1203 1333 l 1306 1333 l 1288 1229 m 1160 1229 l 1056 1229 l 1074 1333 l 1178 1333 l 1160 1229 m 1372 971 l 1268 971 l 1288 1076 l 1390 1076 l 1372 971 m 1265 1100 l 1163 1100 l 1181 1204 l 1283 1204 l 1265 1100 m 1138 1100 l 1032 1100 l 1050 1204 l 1156 1204 l 1138 1100 m 1349 842 l 1246 842 l 1264 946 l 1367 946 l 1349 842 m 1031 1229 l 926 1229 l 944 1333 l 1049 1333 l 1031 1229 m 1242 971 l 1139 971 l 1157 1076 l 1261 1076 l 1242 971 m 1114 971 l 1010 971 l 1028 1076 l 1133 1076 l 1114 971 m 1326 714 l 1224 714 l 1242 817 l 1344 817 l 1326 714 m 901 1229 l 799 1229 l 817 1333 l 919 1333 l 901 1229 m 1008 1100 l 903 1100 l 921 1204 l 1026 1204 l 1008 1100 m 1219 842 l 1117 842 l 1135 946 l 1238 946 l 1219 842 m 878 1100 l 775 1100 l 793 1204 l 897 1204 l 878 1100 m 1092 842 l 988 842 l 1006 946 l 1110 946 l 1092 842 m 985 971 l 881 971 l 899 1076 l 1003 1076 l 985 971 m 1197 714 l 1093 714 l 1113 817 l 1215 817 l 1197 714 m 772 1229 l 668 1229 l 688 1333 l 790 1333 l 772 1229 m 1303 585 l 1200 585 l 1218 688 l 1322 688 l 1303 585 m 1069 714 l 964 714 l 982 817 l 1088 817 l 1069 714 m 644 1229 l 539 1229 l 557 1333 l 663 1333 l 644 1229 m 856 971 l 753 971 l 771 1076 l 874 1076 l 856 971 m 749 1100 l 646 1100 l 664 1204 l 767 1204 l 749 1100 m 1174 585 l 1071 585 l 1089 688 l 1192 688 l 1174 585 m 621 1100 l 517 1100 l 535 1204 l 639 1204 l 621 1100 m 940 714 l 835 714 l 853 817 l 958 817 l 940 714 m 1046 585 l 942 585 l 960 688 l 1064 688 l 1046 585 m 1258 326 l 1154 326 l 1174 431 l 1276 431 l 1258 326 m 515 1229 l 410 1229 l 428 1333 l 533 1333 l 515 1229 m 726 971 l 624 971 l 642 1076 l 744 1076 l 726 971 m 1235 197 l 1132 197 l 1150 301 l 1253 301 l 1235 197 m 385 1229 l 282 1229 l 300 1333 l 404 1333 l 385 1229 m 599 971 l 493 971 l 513 1076 l 617 1076 l 599 971 m 810 714 l 707 714 l 725 817 l 828 817 l 810 714 m 492 1100 l 388 1100 l 406 1204 l 510 1204 l 492 1100 m 1128 326 l 1025 326 l 1043 431 l 1147 431 l 1128 326 m 917 585 l 813 585 l 831 688 l 935 688 l 917 585 m 363 1100 l 260 1100 l 278 1204 l 381 1204 l 363 1100 m 1000 326 l 896 326 l 914 431 l 1019 431 l 1000 326 m 1106 197 l 1003 197 l 1021 301 l 1124 301 l 1106 197 m 1213 68 l 1110 68 l 1128 172 l 1231 172 l 1213 68 m 256 1229 l 153 1229 l 171 1333 l 274 1333 l 256 1229 m 469 971 l 364 971 l 383 1076 l 488 1076 l 469 971 m 681 714 l 578 714 l 596 817 l 699 817 l 681 714 m 788 585 l 685 585 l 703 688 l 806 688 l 788 585 m 978 197 l 874 197 l 892 301 l 996 301 l 978 197 m 340 971 l 236 971 l 256 1076 l 358 1076 l 340 971 m 553 714 l 449 714 l 467 817 l 571 817 l 553 714 m 233 1100 l 131 1100 l 149 1204 l 251 1204 l 233 1100 m 871 326 l 767 326 l 785 431 l 890 431 l 871 326 m 1083 68 l 981 68 l 999 172 l 1101 172 l 1083 68 m 658 585 l 556 585 l 574 688 l 676 688 l 658 585 m 849 197 l 744 197 l 763 301 l 867 301 l 849 197 m 956 68 l 850 68 l 868 172 l 974 172 l 956 68 m 210 971 l 107 971 l 125 1076 l 229 1076 l 210 971 m 424 714 l 319 714 l 338 817 l 442 817 l 424 714 m 742 326 l 639 326 l 657 431 l 760 431 l 742 326 m 531 585 l 425 585 l 443 688 l 549 688 l 531 585 m 719 197 l 617 197 l 635 301 l 738 301 l 719 197 m 294 714 l 192 714 l 210 817 l 313 817 l 294 714 m 826 68 l 721 68 l 739 172 l 844 172 l 826 68 m 613 326 l 510 326 l 528 431 l 631 431 l 613 326 m 401 585 l 296 585 l 314 688 l 419 688 l 401 585 m 590 197 l 486 197 l 506 301 l 608 301 l 590 197 m 165 714 l 61 714 l 81 817 l 183 817 l 165 714 m 485 326 l 381 326 l 399 431 l 503 431 l 485 326 m 696 68 l 593 68 l 611 172 l 715 172 l 696 68 m 271 585 l 168 585 l 186 688 l 290 688 l 271 585 m 378 456 l 274 456 l 292 560 l 396 560 l 378 456 m 463 197 l 357 197 l 375 301 l 481 301 l 463 197 m 249 456 l 146 456 l 164 560 l 267 560 l 249 456 m 356 326 l 250 326 l 269 431 l 374 431 l 356 326 m 567 68 l 464 68 l 482 172 l 585 172 l 567 68 m 142 585 l 39 585 l 57 688 l 160 688 l 142 585 m 333 197 l 228 197 l 246 301 l 351 301 l 333 197 m 226 326 l 122 326 l 142 431 l 244 431 l 226 326 m 439 68 l 335 68 l 353 172 l 457 172 l 439 68 m 119 456 l 17 456 l 35 560 l 138 560 l 119 456 m 203 197 l 100 197 l 118 301 l 222 301 l 203 197 m 96 326 l -7 326 l 11 431 l 115 431 l 96 326 m 310 68 l 206 68 l 224 172 l 328 172 l 310 68 m 74 197 l -29 197 l -11 301 l 92 301 l 74 197 m 181 68 l 78 68 l 96 172 l 199 172 l 181 68 z "},"\\":{"ha":1528,"x_min":536,"x_max":1108,"o":"m 903 1228 l 800 1228 l 819 1333 l 921 1333 l 903 1228 m 775 1228 l 672 1228 l 690 1333 l 793 1333 l 775 1228 m 881 1100 l 778 1100 l 796 1204 l 899 1204 l 881 1100 m 1089 842 l 988 842 l 1006 946 l 1108 946 l 1089 842 m 751 1100 l 650 1100 l 668 1204 l 769 1204 l 751 1100 m 857 971 l 756 971 l 774 1075 l 875 1075 l 857 971 m 961 842 l 858 842 l 878 946 l 979 946 l 961 842 m 1067 714 l 964 714 l 982 817 l 1085 817 l 1067 714 m 729 971 l 626 971 l 644 1075 l 747 1075 l 729 971 m 835 842 l 732 842 l 751 947 l 853 947 l 835 842 m 939 714 l 836 714 l 854 817 l 957 817 l 939 714 m 1044 585 l 942 585 l 960 688 l 1063 688 l 1044 585 m 707 842 l 604 842 l 622 947 l 725 947 l 707 842 m 811 713 l 710 713 l 728 817 l 831 817 l 811 713 m 915 585 l 814 585 l 832 688 l 933 688 l 915 585 m 1021 456 l 919 456 l 938 560 l 1039 560 l 1021 456 m 683 713 l 581 713 l 600 817 l 701 817 l 683 713 m 789 585 l 688 585 l 706 688 l 807 688 l 789 585 m 893 456 l 790 456 l 808 560 l 911 560 l 893 456 m 999 326 l 896 326 l 914 431 l 1017 431 l 999 326 m 661 585 l 558 585 l 576 688 l 679 688 l 661 585 m 767 456 l 664 456 l 682 558 l 785 558 l 767 456 m 869 326 l 768 326 l 786 431 l 889 431 l 869 326 m 975 197 l 874 197 l 892 301 l 994 301 l 975 197 m 638 456 l 536 456 l 554 558 l 657 558 l 638 456 m 847 197 l 746 197 l 764 301 l 865 301 l 847 197 m 953 68 l 850 68 l 869 172 l 971 172 l 953 68 m 825 68 l 722 68 l 740 172 l 843 172 l 825 68 z "},"a":{"ha":1528,"x_min":-51,"x_max":1413,"o":"m 1394 1100 l 1292 1100 l 1310 1204 l 1413 1204 l 1394 1100 m 1288 1229 l 1185 1229 l 1203 1333 l 1306 1333 l 1288 1229 m 1160 1229 l 1056 1229 l 1074 1333 l 1178 1333 l 1160 1229 m 1372 971 l 1268 971 l 1288 1076 l 1390 1076 l 1372 971 m 1265 1100 l 1163 1100 l 1181 1204 l 1283 1204 l 1265 1100 m 1138 1100 l 1032 1100 l 1050 1204 l 1156 1204 l 1138 1100 m 1349 842 l 1246 842 l 1264 946 l 1367 946 l 1349 842 m 1031 1229 l 926 1229 l 944 1333 l 1049 1333 l 1031 1229 m 1242 971 l 1139 971 l 1157 1076 l 1261 1076 l 1242 971 m 1114 971 l 1010 971 l 1028 1076 l 1133 1076 l 1114 971 m 1326 714 l 1224 714 l 1242 817 l 1344 817 l 1326 714 m 901 1229 l 799 1229 l 817 1333 l 919 1333 l 901 1229 m 1008 1100 l 903 1100 l 921 1204 l 1026 1204 l 1008 1100 m 1219 842 l 1117 842 l 1135 946 l 1238 946 l 1219 842 m 878 1100 l 775 1100 l 793 1204 l 897 1204 l 878 1100 m 1092 842 l 988 842 l 1006 946 l 1110 946 l 1092 842 m 985 971 l 881 971 l 899 1076 l 1003 1076 l 985 971 m 1197 714 l 1093 714 l 1113 817 l 1215 817 l 1197 714 m 772 1229 l 668 1229 l 688 1333 l 790 1333 l 772 1229 m 1303 585 l 1200 585 l 1218 688 l 1322 688 l 1303 585 m 1069 714 l 964 714 l 982 817 l 1088 817 l 1069 714 m 644 1229 l 539 1229 l 557 1333 l 663 1333 l 644 1229 m 856 971 l 753 971 l 771 1076 l 874 1076 l 856 971 m 1281 456 l 1178 456 l 1196 560 l 1299 560 l 1281 456 m 749 1100 l 646 1100 l 664 1204 l 767 1204 l 749 1100 m 1174 585 l 1071 585 l 1089 688 l 1192 688 l 1174 585 m 621 1100 l 517 1100 l 535 1204 l 639 1204 l 621 1100 m 1258 326 l 1154 326 l 1174 431 l 1276 431 l 1258 326 m 726 971 l 624 971 l 642 1076 l 744 1076 l 726 971 m 1046 585 l 942 585 l 960 688 l 1064 688 l 1046 585 m 1151 456 l 1049 456 l 1067 560 l 1169 560 l 1151 456 m 515 1229 l 410 1229 l 428 1333 l 533 1333 l 515 1229 m 1235 197 l 1132 197 l 1150 301 l 1253 301 l 1235 197 m 599 971 l 493 971 l 513 1076 l 617 1076 l 599 971 m 1024 456 l 918 456 l 938 560 l 1042 560 l 1024 456 m 385 1229 l 282 1229 l 300 1333 l 404 1333 l 385 1229 m 492 1100 l 388 1100 l 406 1204 l 510 1204 l 492 1100 m 1128 326 l 1025 326 l 1043 431 l 1147 431 l 1128 326 m 917 585 l 813 585 l 831 688 l 935 688 l 917 585 m 363 1100 l 260 1100 l 278 1204 l 381 1204 l 363 1100 m 1106 197 l 1003 197 l 1021 301 l 1124 301 l 1106 197 m 1000 326 l 896 326 l 914 431 l 1019 431 l 1000 326 m 1213 68 l 1110 68 l 1128 172 l 1231 172 l 1213 68 m 894 456 l 789 456 l 808 560 l 913 560 l 894 456 m 469 971 l 364 971 l 383 1076 l 488 1076 l 469 971 m 788 585 l 685 585 l 703 688 l 806 688 l 788 585 m 978 197 l 874 197 l 892 301 l 996 301 l 978 197 m 340 971 l 236 971 l 256 1076 l 358 1076 l 340 971 m 765 456 l 661 456 l 681 560 l 783 560 l 765 456 m 233 1100 l 131 1100 l 149 1204 l 251 1204 l 233 1100 m 1083 68 l 981 68 l 999 172 l 1101 172 l 1083 68 m 446 842 l 342 842 l 360 946 l 465 946 l 446 842 m 658 585 l 556 585 l 574 688 l 676 688 l 658 585 m 956 68 l 850 68 l 868 172 l 974 172 l 956 68 m 317 842 l 214 842 l 232 946 l 335 946 l 317 842 m 210 971 l 107 971 l 125 1076 l 229 1076 l 210 971 m 424 714 l 319 714 l 338 817 l 442 817 l 424 714 m 531 585 l 425 585 l 443 688 l 549 688 l 531 585 m 635 456 l 532 456 l 550 560 l 654 560 l 635 456 m 294 714 l 192 714 l 210 817 l 313 817 l 294 714 m 507 456 l 403 456 l 421 560 l 526 560 l 507 456 m 188 842 l 85 842 l 103 946 l 206 946 l 188 842 m 401 585 l 296 585 l 314 688 l 419 688 l 401 585 m 165 714 l 61 714 l 81 817 l 183 817 l 165 714 m 271 585 l 168 585 l 186 688 l 290 688 l 271 585 m 378 456 l 274 456 l 292 560 l 396 560 l 378 456 m 249 456 l 146 456 l 164 560 l 267 560 l 249 456 m 356 326 l 250 326 l 269 431 l 374 431 l 356 326 m 142 585 l 39 585 l 57 688 l 160 688 l 142 585 m 333 197 l 228 197 l 246 301 l 351 301 l 333 197 m 226 326 l 122 326 l 142 431 l 244 431 l 226 326 m 119 456 l 17 456 l 35 560 l 138 560 l 119 456 m 203 197 l 100 197 l 118 301 l 222 301 l 203 197 m 96 326 l -7 326 l 11 431 l 115 431 l 96 326 m 310 68 l 206 68 l 224 172 l 328 172 l 310 68 m 74 197 l -29 197 l -11 301 l 92 301 l 74 197 m 181 68 l 78 68 l 96 172 l 199 172 l 181 68 m 51 68 l -51 68 l -33 172 l 69 172 l 51 68 z "},"b":{"ha":1528,"x_min":-51,"x_max":1322,"o":"m 1031 1229 l 926 1229 l 944 1333 l 1049 1333 l 1031 1229 m 1138 1100 l 1032 1100 l 1050 1204 l 1156 1204 l 1138 1100 m 901 1229 l 799 1229 l 817 1333 l 919 1333 l 901 1229 m 1114 971 l 1010 971 l 1028 1076 l 1133 1076 l 1114 971 m 1008 1100 l 903 1100 l 921 1204 l 1026 1204 l 1008 1100 m 1092 843 l 988 843 l 1006 947 l 1110 947 l 1092 843 m 878 1100 l 775 1100 l 793 1204 l 897 1204 l 878 1100 m 772 1229 l 668 1229 l 688 1333 l 790 1333 l 772 1229 m 985 971 l 881 971 l 899 1076 l 1003 1076 l 985 971 m 1303 585 l 1200 585 l 1218 688 l 1322 688 l 1303 585 m 1197 714 l 1093 714 l 1113 817 l 1215 817 l 1197 714 m 963 843 l 858 843 l 876 947 l 981 947 l 963 843 m 1281 456 l 1178 456 l 1196 560 l 1299 560 l 1281 456 m 856 971 l 753 971 l 771 1076 l 874 1076 l 856 971 m 644 1229 l 539 1229 l 557 1333 l 663 1333 l 644 1229 m 1069 714 l 964 714 l 982 817 l 1088 817 l 1069 714 m 749 1100 l 646 1100 l 664 1204 l 767 1204 l 749 1100 m 1174 585 l 1071 585 l 1089 688 l 1192 688 l 1174 585 m 833 843 l 729 843 l 749 947 l 851 947 l 833 843 m 1151 456 l 1049 456 l 1067 560 l 1169 560 l 1151 456 m 515 1229 l 410 1229 l 428 1333 l 533 1333 l 515 1229 m 940 714 l 835 714 l 853 817 l 958 817 l 940 714 m 621 1100 l 517 1100 l 535 1204 l 639 1204 l 621 1100 m 726 971 l 624 971 l 642 1076 l 744 1076 l 726 971 m 1046 585 l 942 585 l 960 688 l 1064 688 l 1046 585 m 1258 326 l 1154 326 l 1174 431 l 1276 431 l 1258 326 m 1024 456 l 919 456 l 938 560 l 1042 560 l 1024 456 m 810 714 l 707 714 l 725 817 l 828 817 l 810 714 m 1235 197 l 1132 197 l 1150 301 l 1253 301 l 1235 197 m 599 971 l 493 971 l 513 1076 l 617 1076 l 599 971 m 385 1229 l 282 1229 l 300 1333 l 404 1333 l 385 1229 m 492 1100 l 388 1100 l 406 1204 l 510 1204 l 492 1100 m 917 585 l 813 585 l 831 688 l 935 688 l 917 585 m 1128 326 l 1025 326 l 1043 431 l 1147 431 l 1128 326 m 256 1229 l 153 1229 l 171 1333 l 274 1333 l 256 1229 m 788 585 l 685 585 l 703 688 l 806 688 l 788 585 m 469 971 l 364 971 l 383 1076 l 488 1076 l 469 971 m 681 714 l 578 714 l 596 817 l 699 817 l 681 714 m 1106 197 l 1003 197 l 1021 301 l 1124 301 l 1106 197 m 363 1100 l 260 1100 l 278 1204 l 381 1204 l 363 1100 m 1000 326 l 896 326 l 914 431 l 1019 431 l 1000 326 m 553 714 l 449 714 l 467 817 l 571 817 l 553 714 m 978 197 l 874 197 l 892 301 l 996 301 l 978 197 m 340 971 l 236 971 l 256 1076 l 358 1076 l 340 971 m 233 1100 l 131 1100 l 149 1204 l 251 1204 l 233 1100 m 446 842 l 342 842 l 360 946 l 465 946 l 446 842 m 658 585 l 556 585 l 574 688 l 676 688 l 658 585 m 871 326 l 767 326 l 785 431 l 890 431 l 871 326 m 1083 68 l 981 68 l 999 172 l 1101 172 l 1083 68 m 210 971 l 107 971 l 125 1076 l 229 1076 l 210 971 m 424 714 l 319 714 l 338 817 l 442 817 l 424 714 m 849 197 l 744 197 l 763 301 l 867 301 l 849 197 m 531 585 l 425 585 l 443 688 l 549 688 l 531 585 m 742 326 l 639 326 l 657 431 l 760 431 l 742 326 m 956 68 l 850 68 l 868 172 l 974 172 l 956 68 m 317 842 l 214 842 l 232 946 l 335 946 l 317 842 m 719 197 l 617 197 l 635 301 l 738 301 l 719 197 m 294 714 l 192 714 l 210 817 l 313 817 l 294 714 m 188 842 l 85 842 l 103 946 l 206 946 l 188 842 m 401 585 l 296 585 l 314 688 l 419 688 l 401 585 m 826 68 l 721 68 l 739 172 l 844 172 l 826 68 m 613 326 l 510 326 l 528 431 l 631 431 l 613 326 m 165 714 l 61 714 l 81 817 l 183 817 l 165 714 m 696 68 l 593 68 l 611 172 l 715 172 l 696 68 m 378 456 l 274 456 l 292 560 l 396 560 l 378 456 m 590 197 l 486 197 l 506 301 l 608 301 l 590 197 m 271 585 l 168 585 l 186 688 l 290 688 l 271 585 m 485 326 l 381 326 l 399 431 l 503 431 l 485 326 m 463 197 l 357 197 l 375 301 l 481 301 l 463 197 m 249 456 l 146 456 l 164 560 l 267 560 l 249 456 m 142 585 l 39 585 l 57 688 l 160 688 l 142 585 m 567 68 l 464 68 l 482 172 l 585 172 l 567 68 m 356 326 l 250 326 l 269 431 l 374 431 l 356 326 m 119 456 l 17 456 l 35 560 l 138 560 l 119 456 m 333 197 l 228 197 l 246 301 l 351 301 l 333 197 m 439 68 l 335 68 l 353 172 l 457 172 l 439 68 m 226 326 l 122 326 l 142 431 l 244 431 l 226 326 m 203 197 l 100 197 l 118 301 l 222 301 l 203 197 m 310 68 l 206 68 l 224 172 l 328 172 l 310 68 m 96 326 l -7 326 l 11 431 l 115 431 l 96 326 m 74 197 l -29 197 l -11 301 l 92 301 l 74 197 m 181 68 l 78 68 l 96 172 l 199 172 l 181 68 m 51 68 l -51 68 l -33 172 l 69 172 l 51 68 z "},"c":{"ha":1528,"x_min":-29,"x_max":1435,"o":"m 1417 1229 l 1314 1229 l 1332 1333 l 1435 1333 l 1417 1229 m 1394 1100 l 1292 1100 l 1310 1204 l 1413 1204 l 1394 1100 m 1288 1229 l 1185 1229 l 1203 1333 l 1306 1333 l 1288 1229 m 1160 1229 l 1056 1229 l 1074 1333 l 1178 1333 l 1160 1229 m 1372 971 l 1268 971 l 1288 1076 l 1390 1076 l 1372 971 m 1265 1100 l 1163 1100 l 1181 1204 l 1283 1204 l 1265 1100 m 1031 1229 l 926 1229 l 944 1333 l 1049 1333 l 1031 1229 m 1138 1100 l 1032 1100 l 1050 1204 l 1156 1204 l 1138 1100 m 1242 971 l 1139 971 l 1157 1076 l 1261 1076 l 1242 971 m 901 1229 l 799 1229 l 817 1333 l 919 1333 l 901 1229 m 1114 971 l 1010 971 l 1028 1076 l 1133 1076 l 1114 971 m 1008 1100 l 903 1100 l 921 1204 l 1026 1204 l 1008 1100 m 878 1100 l 775 1100 l 793 1204 l 897 1204 l 878 1100 m 772 1229 l 668 1229 l 688 1333 l 790 1333 l 772 1229 m 985 971 l 881 971 l 899 1076 l 1003 1076 l 985 971 m 856 971 l 753 971 l 771 1076 l 874 1076 l 856 971 m 644 1229 l 539 1229 l 557 1333 l 663 1333 l 644 1229 m 749 1100 l 646 1100 l 664 1204 l 767 1204 l 749 1100 m 515 1229 l 410 1229 l 428 1333 l 533 1333 l 515 1229 m 621 1100 l 517 1100 l 535 1204 l 639 1204 l 621 1100 m 726 971 l 624 971 l 642 1076 l 744 1076 l 726 971 m 1258 326 l 1154 326 l 1174 431 l 1276 431 l 1258 326 m 1235 197 l 1132 197 l 1150 301 l 1253 301 l 1235 197 m 599 971 l 493 971 l 513 1076 l 617 1076 l 599 971 m 385 1229 l 282 1229 l 300 1333 l 404 1333 l 385 1229 m 492 1100 l 388 1100 l 406 1204 l 510 1204 l 492 1100 m 1128 326 l 1025 326 l 1043 431 l 1147 431 l 1128 326 m 469 971 l 364 971 l 383 1076 l 488 1076 l 469 971 m 1213 68 l 1110 68 l 1128 172 l 1231 172 l 1213 68 m 1106 197 l 1003 197 l 1021 301 l 1124 301 l 1106 197 m 363 1100 l 260 1100 l 278 1204 l 381 1204 l 363 1100 m 1000 326 l 896 326 l 914 431 l 1019 431 l 1000 326 m 978 197 l 874 197 l 892 301 l 996 301 l 978 197 m 340 971 l 236 971 l 256 1076 l 358 1076 l 340 971 m 233 1100 l 131 1100 l 149 1204 l 251 1204 l 233 1100 m 446 842 l 342 842 l 360 946 l 465 946 l 446 842 m 871 326 l 767 326 l 785 431 l 890 431 l 871 326 m 1083 68 l 981 68 l 999 172 l 1101 172 l 1083 68 m 210 971 l 107 971 l 125 1076 l 229 1076 l 210 971 m 424 714 l 319 714 l 338 817 l 442 817 l 424 714 m 849 197 l 744 197 l 763 301 l 867 301 l 849 197 m 742 326 l 639 326 l 657 431 l 760 431 l 742 326 m 956 68 l 850 68 l 868 172 l 974 172 l 956 68 m 317 842 l 214 842 l 232 946 l 335 946 l 317 842 m 719 197 l 617 197 l 635 301 l 738 301 l 719 197 m 294 714 l 192 714 l 210 817 l 313 817 l 294 714 m 188 842 l 85 842 l 103 946 l 206 946 l 188 842 m 401 585 l 296 585 l 314 688 l 419 688 l 401 585 m 826 68 l 721 68 l 739 172 l 844 172 l 826 68 m 613 326 l 510 326 l 528 431 l 631 431 l 613 326 m 165 714 l 61 714 l 81 817 l 183 817 l 165 714 m 696 68 l 593 68 l 611 172 l 715 172 l 696 68 m 378 456 l 274 456 l 292 560 l 396 560 l 378 456 m 590 197 l 486 197 l 506 301 l 608 301 l 590 197 m 271 585 l 168 585 l 186 688 l 290 688 l 271 585 m 485 326 l 381 326 l 399 431 l 503 431 l 485 326 m 463 197 l 357 197 l 375 301 l 481 301 l 463 197 m 249 456 l 146 456 l 164 560 l 267 560 l 249 456 m 142 585 l 39 585 l 57 688 l 160 688 l 142 585 m 567 68 l 464 68 l 482 172 l 585 172 l 567 68 m 356 326 l 250 326 l 269 431 l 374 431 l 356 326 m 119 456 l 17 456 l 35 560 l 138 560 l 119 456 m 333 197 l 228 197 l 246 301 l 351 301 l 333 197 m 439 68 l 335 68 l 353 172 l 457 172 l 439 68 m 226 326 l 122 326 l 142 431 l 244 431 l 226 326 m 203 197 l 100 197 l 118 301 l 222 301 l 203 197 m 310 68 l 206 68 l 224 172 l 328 172 l 310 68 m 96 326 l -7 326 l 11 431 l 115 431 l 96 326 m 74 197 l -29 197 l -11 301 l 92 301 l 74 197 m 181 68 l 78 68 l 96 172 l 199 172 l 181 68 z "},"d":{"ha":1528,"x_min":-51,"x_max":1413,"o":"m 1394 1100 l 1292 1100 l 1310 1204 l 1413 1204 l 1394 1100 m 1288 1229 l 1185 1229 l 1203 1333 l 1306 1333 l 1288 1229 m 1160 1229 l 1056 1229 l 1074 1333 l 1178 1333 l 1160 1229 m 1372 971 l 1268 971 l 1288 1076 l 1390 1076 l 1372 971 m 1265 1100 l 1163 1100 l 1181 1204 l 1283 1204 l 1265 1100 m 1138 1100 l 1032 1100 l 1050 1204 l 1156 1204 l 1138 1100 m 1349 842 l 1246 842 l 1264 946 l 1367 946 l 1349 842 m 1031 1229 l 926 1229 l 944 1333 l 1049 1333 l 1031 1229 m 1242 971 l 1139 971 l 1157 1076 l 1261 1076 l 1242 971 m 1114 971 l 1010 971 l 1028 1076 l 1133 1076 l 1114 971 m 1326 714 l 1224 714 l 1242 817 l 1344 817 l 1326 714 m 901 1229 l 799 1229 l 817 1333 l 919 1333 l 901 1229 m 1008 1100 l 903 1100 l 921 1204 l 1026 1204 l 1008 1100 m 1219 842 l 1117 842 l 1135 946 l 1238 946 l 1219 842 m 878 1100 l 775 1100 l 793 1204 l 897 1204 l 878 1100 m 1092 842 l 988 842 l 1006 946 l 1110 946 l 1092 842 m 985 971 l 881 971 l 899 1076 l 1003 1076 l 985 971 m 1197 714 l 1093 714 l 1113 817 l 1215 817 l 1197 714 m 772 1229 l 668 1229 l 688 1333 l 790 1333 l 772 1229 m 1303 585 l 1200 585 l 1218 688 l 1322 688 l 1303 585 m 1069 714 l 964 714 l 982 817 l 1088 817 l 1069 714 m 644 1229 l 539 1229 l 557 1333 l 663 1333 l 644 1229 m 856 971 l 753 971 l 771 1076 l 874 1076 l 856 971 m 1281 456 l 1178 456 l 1196 560 l 1299 560 l 1281 456 m 749 1100 l 646 1100 l 664 1204 l 767 1204 l 749 1100 m 1174 585 l 1071 585 l 1089 688 l 1192 688 l 1174 585 m 621 1100 l 517 1100 l 535 1204 l 639 1204 l 621 1100 m 1258 326 l 1154 326 l 1174 431 l 1276 431 l 1258 326 m 726 971 l 624 971 l 642 1076 l 744 1076 l 726 971 m 1046 585 l 942 585 l 960 688 l 1064 688 l 1046 585 m 1151 456 l 1049 456 l 1067 560 l 1169 560 l 1151 456 m 515 1229 l 410 1229 l 428 1333 l 533 1333 l 515 1229 m 1235 197 l 1132 197 l 1150 301 l 1253 301 l 1235 197 m 599 971 l 493 971 l 513 1076 l 617 1076 l 599 971 m 1024 456 l 918 456 l 938 560 l 1042 560 l 1024 456 m 385 1229 l 282 1229 l 300 1333 l 404 1333 l 385 1229 m 492 1100 l 388 1100 l 406 1204 l 510 1204 l 492 1100 m 1128 326 l 1025 326 l 1043 431 l 1147 431 l 1128 326 m 363 1100 l 260 1100 l 278 1204 l 381 1204 l 363 1100 m 1106 197 l 1003 197 l 1021 301 l 1124 301 l 1106 197 m 1000 326 l 896 326 l 914 431 l 1019 431 l 1000 326 m 256 1229 l 153 1229 l 171 1333 l 274 1333 l 256 1229 m 469 971 l 364 971 l 383 1076 l 488 1076 l 469 971 m 978 197 l 874 197 l 892 301 l 996 301 l 978 197 m 340 971 l 236 971 l 256 1076 l 358 1076 l 340 971 m 233 1100 l 131 1100 l 149 1204 l 251 1204 l 233 1100 m 1083 68 l 981 68 l 999 172 l 1101 172 l 1083 68 m 446 842 l 342 842 l 360 946 l 465 946 l 446 842 m 871 325 l 767 325 l 785 428 l 889 428 l 871 325 m 849 197 l 744 197 l 763 301 l 867 301 l 849 197 m 956 68 l 850 68 l 868 172 l 974 172 l 956 68 m 317 842 l 214 842 l 232 946 l 335 946 l 317 842 m 742 326 l 639 326 l 657 431 l 760 431 l 742 326 m 210 971 l 107 971 l 125 1076 l 229 1076 l 210 971 m 424 714 l 319 714 l 338 817 l 442 817 l 424 714 m 719 197 l 617 197 l 635 301 l 738 301 l 719 197 m 294 714 l 192 714 l 210 817 l 313 817 l 294 714 m 826 68 l 721 68 l 739 172 l 844 172 l 826 68 m 188 842 l 85 842 l 103 946 l 206 946 l 188 842 m 613 326 l 510 326 l 528 431 l 631 431 l 613 326 m 401 585 l 296 585 l 314 688 l 419 688 l 401 585 m 590 197 l 486 197 l 506 301 l 608 301 l 590 197 m 696 68 l 593 68 l 611 172 l 715 172 l 696 68 m 165 714 l 61 714 l 81 817 l 183 817 l 165 714 m 271 585 l 168 585 l 186 688 l 290 688 l 271 585 m 378 456 l 274 456 l 292 560 l 396 560 l 378 456 m 485 325 l 379 325 l 399 428 l 503 428 l 485 325 m 463 197 l 357 197 l 375 301 l 481 301 l 463 197 m 249 456 l 146 456 l 164 560 l 267 560 l 249 456 m 567 68 l 464 68 l 482 172 l 585 172 l 567 68 m 356 326 l 250 326 l 269 431 l 374 431 l 356 326 m 142 585 l 39 585 l 57 688 l 160 688 l 142 585 m 333 197 l 228 197 l 246 301 l 351 301 l 333 197 m 439 68 l 335 68 l 353 172 l 457 172 l 439 68 m 226 326 l 122 326 l 142 431 l 244 431 l 226 326 m 119 456 l 17 456 l 35 560 l 138 560 l 119 456 m 203 197 l 100 197 l 118 301 l 222 301 l 203 197 m 96 326 l -7 326 l 11 431 l 115 431 l 96 326 m 310 68 l 206 68 l 224 172 l 328 172 l 310 68 m 74 197 l -29 197 l -11 301 l 92 301 l 74 197 m 181 68 l 78 68 l 96 172 l 199 172 l 181 68 m 51 68 l -51 68 l -33 172 l 69 172 l 51 68 z "},"e":{"ha":1528,"x_min":-29,"x_max":1435,"o":"m 1417 1229 l 1314 1229 l 1332 1333 l 1435 1333 l 1417 1229 m 1394 1100 l 1292 1100 l 1310 1204 l 1413 1204 l 1394 1100 m 1288 1229 l 1185 1229 l 1203 1333 l 1306 1333 l 1288 1229 m 1160 1229 l 1056 1229 l 1074 1333 l 1178 1333 l 1160 1229 m 1372 971 l 1268 971 l 1288 1076 l 1390 1076 l 1372 971 m 1265 1100 l 1163 1100 l 1181 1204 l 1283 1204 l 1265 1100 m 1031 1229 l 926 1229 l 944 1333 l 1049 1333 l 1031 1229 m 1138 1100 l 1032 1100 l 1050 1204 l 1156 1204 l 1138 1100 m 1242 971 l 1139 971 l 1157 1076 l 1261 1076 l 1242 971 m 901 1229 l 799 1229 l 817 1333 l 919 1333 l 901 1229 m 1114 971 l 1010 971 l 1028 1076 l 1133 1076 l 1114 971 m 1008 1100 l 903 1100 l 921 1204 l 1026 1204 l 1008 1100 m 878 1100 l 775 1100 l 793 1204 l 897 1204 l 878 1100 m 772 1229 l 668 1229 l 688 1333 l 790 1333 l 772 1229 m 985 971 l 881 971 l 899 1076 l 1003 1076 l 985 971 m 1197 714 l 1093 714 l 1113 817 l 1215 817 l 1197 714 m 856 971 l 753 971 l 771 1076 l 874 1076 l 856 971 m 644 1229 l 539 1229 l 557 1333 l 663 1333 l 644 1229 m 1069 714 l 964 714 l 982 817 l 1088 817 l 1069 714 m 749 1100 l 646 1100 l 664 1204 l 767 1204 l 749 1100 m 1174 585 l 1071 585 l 1089 688 l 1192 688 l 1174 585 m 515 1229 l 410 1229 l 428 1333 l 533 1333 l 515 1229 m 940 714 l 835 714 l 853 817 l 958 817 l 940 714 m 621 1100 l 517 1100 l 535 1204 l 639 1204 l 621 1100 m 726 971 l 624 971 l 642 1076 l 744 1076 l 726 971 m 1046 585 l 942 585 l 960 688 l 1064 688 l 1046 585 m 1258 326 l 1154 326 l 1174 431 l 1276 431 l 1258 326 m 810 714 l 707 714 l 725 817 l 828 817 l 810 714 m 1235 197 l 1132 197 l 1150 301 l 1253 301 l 1235 197 m 599 971 l 493 971 l 513 1076 l 617 1076 l 599 971 m 385 1229 l 282 1229 l 300 1333 l 404 1333 l 385 1229 m 492 1100 l 388 1100 l 406 1204 l 510 1204 l 492 1100 m 917 585 l 813 585 l 831 688 l 935 688 l 917 585 m 1128 326 l 1025 326 l 1043 431 l 1147 431 l 1128 326 m 788 585 l 685 585 l 703 688 l 806 688 l 788 585 m 469 971 l 364 971 l 383 1076 l 488 1076 l 469 971 m 681 714 l 578 714 l 596 817 l 699 817 l 681 714 m 1213 68 l 1110 68 l 1128 172 l 1231 172 l 1213 68 m 1106 197 l 1003 197 l 1021 301 l 1124 301 l 1106 197 m 363 1100 l 260 1100 l 278 1204 l 381 1204 l 363 1100 m 1000 326 l 896 326 l 914 431 l 1019 431 l 1000 326 m 553 714 l 449 714 l 467 817 l 571 817 l 553 714 m 978 197 l 874 197 l 892 301 l 996 301 l 978 197 m 340 971 l 236 971 l 256 1076 l 358 1076 l 340 971 m 233 1100 l 131 1100 l 149 1204 l 251 1204 l 233 1100 m 446 842 l 342 842 l 360 946 l 465 946 l 446 842 m 658 585 l 556 585 l 574 688 l 676 688 l 658 585 m 871 326 l 767 326 l 785 431 l 890 431 l 871 326 m 1083 68 l 981 68 l 999 172 l 1101 172 l 1083 68 m 210 971 l 107 971 l 125 1076 l 229 1076 l 210 971 m 424 714 l 319 714 l 338 817 l 442 817 l 424 714 m 849 197 l 744 197 l 763 301 l 867 301 l 849 197 m 531 585 l 425 585 l 443 688 l 549 688 l 531 585 m 742 326 l 639 326 l 657 431 l 760 431 l 742 326 m 956 68 l 850 68 l 868 172 l 974 172 l 956 68 m 317 842 l 214 842 l 232 946 l 335 946 l 317 842 m 719 197 l 617 197 l 635 301 l 738 301 l 719 197 m 294 714 l 192 714 l 210 817 l 313 817 l 294 714 m 188 842 l 85 842 l 103 946 l 206 946 l 188 842 m 401 585 l 296 585 l 314 688 l 419 688 l 401 585 m 826 68 l 721 68 l 739 172 l 844 172 l 826 68 m 613 326 l 510 326 l 528 431 l 631 431 l 613 326 m 165 714 l 61 714 l 81 817 l 183 817 l 165 714 m 696 68 l 593 68 l 611 172 l 715 172 l 696 68 m 378 456 l 274 456 l 292 560 l 396 560 l 378 456 m 590 197 l 486 197 l 506 301 l 608 301 l 590 197 m 271 585 l 168 585 l 186 688 l 290 688 l 271 585 m 485 326 l 381 326 l 399 431 l 503 431 l 485 326 m 463 197 l 357 197 l 375 301 l 481 301 l 463 197 m 249 456 l 146 456 l 164 560 l 267 560 l 249 456 m 142 585 l 39 585 l 57 688 l 160 688 l 142 585 m 567 68 l 464 68 l 482 172 l 585 172 l 567 68 m 356 326 l 250 326 l 269 431 l 374 431 l 356 326 m 119 456 l 17 456 l 35 560 l 138 560 l 119 456 m 333 197 l 228 197 l 246 301 l 351 301 l 333 197 m 439 68 l 335 68 l 353 172 l 457 172 l 439 68 m 226 326 l 122 326 l 142 431 l 244 431 l 226 326 m 203 197 l 100 197 l 118 301 l 222 301 l 203 197 m 310 68 l 206 68 l 224 172 l 328 172 l 310 68 m 96 326 l -7 326 l 11 431 l 115 431 l 96 326 m 74 197 l -29 197 l -11 301 l 92 301 l 74 197 m 181 68 l 78 68 l 96 172 l 199 172 l 181 68 z "},"f":{"ha":1528,"x_min":-51,"x_max":1435,"o":"m 1417 1229 l 1314 1229 l 1332 1333 l 1435 1333 l 1417 1229 m 1394 1100 l 1292 1100 l 1310 1204 l 1413 1204 l 1394 1100 m 1288 1229 l 1185 1229 l 1203 1333 l 1306 1333 l 1288 1229 m 1160 1229 l 1056 1229 l 1074 1333 l 1178 1333 l 1160 1229 m 1372 971 l 1268 971 l 1288 1076 l 1390 1076 l 1372 971 m 1265 1100 l 1163 1100 l 1181 1204 l 1283 1204 l 1265 1100 m 1031 1229 l 926 1229 l 944 1333 l 1049 1333 l 1031 1229 m 1138 1100 l 1032 1100 l 1050 1204 l 1156 1204 l 1138 1100 m 1242 971 l 1139 971 l 1157 1076 l 1261 1076 l 1242 971 m 901 1229 l 799 1229 l 817 1333 l 919 1333 l 901 1229 m 1114 971 l 1010 971 l 1028 1076 l 1133 1076 l 1114 971 m 1008 1100 l 903 1100 l 921 1204 l 1026 1204 l 1008 1100 m 878 1100 l 775 1100 l 793 1204 l 897 1204 l 878 1100 m 772 1229 l 668 1229 l 688 1333 l 790 1333 l 772 1229 m 985 971 l 881 971 l 899 1076 l 1003 1076 l 985 971 m 1197 714 l 1093 714 l 1113 817 l 1215 817 l 1197 714 m 856 971 l 753 971 l 771 1076 l 874 1076 l 856 971 m 644 1229 l 539 1229 l 557 1333 l 663 1333 l 644 1229 m 1069 714 l 964 714 l 982 817 l 1088 817 l 1069 714 m 749 1100 l 646 1100 l 664 1204 l 767 1204 l 749 1100 m 1174 585 l 1071 585 l 1089 688 l 1192 688 l 1174 585 m 515 1229 l 410 1229 l 428 1333 l 533 1333 l 515 1229 m 940 714 l 835 714 l 853 817 l 958 817 l 940 714 m 621 1100 l 517 1100 l 535 1204 l 639 1204 l 621 1100 m 726 971 l 624 971 l 642 1076 l 744 1076 l 726 971 m 1046 585 l 942 585 l 960 688 l 1064 688 l 1046 585 m 810 714 l 707 714 l 725 817 l 828 817 l 810 714 m 599 971 l 493 971 l 513 1076 l 617 1076 l 599 971 m 385 1229 l 282 1229 l 300 1333 l 404 1333 l 385 1229 m 492 1100 l 388 1100 l 406 1204 l 510 1204 l 492 1100 m 917 585 l 813 585 l 831 688 l 935 688 l 917 585 m 788 585 l 685 585 l 703 688 l 806 688 l 788 585 m 469 971 l 364 971 l 383 1076 l 488 1076 l 469 971 m 681 714 l 578 714 l 596 817 l 699 817 l 681 714 m 363 1100 l 260 1100 l 278 1204 l 381 1204 l 363 1100 m 553 714 l 449 714 l 467 817 l 571 817 l 553 714 m 340 971 l 236 971 l 256 1076 l 358 1076 l 340 971 m 233 1100 l 131 1100 l 149 1204 l 251 1204 l 233 1100 m 446 842 l 342 842 l 360 946 l 465 946 l 446 842 m 658 585 l 556 585 l 574 688 l 676 688 l 658 585 m 210 971 l 107 971 l 125 1076 l 229 1076 l 210 971 m 424 714 l 319 714 l 338 817 l 442 817 l 424 714 m 531 585 l 425 585 l 443 688 l 549 688 l 531 585 m 317 842 l 214 842 l 232 946 l 335 946 l 317 842 m 294 714 l 192 714 l 210 817 l 313 817 l 294 714 m 188 842 l 85 842 l 103 946 l 206 946 l 188 842 m 401 585 l 296 585 l 314 688 l 419 688 l 401 585 m 165 714 l 61 714 l 81 817 l 183 817 l 165 714 m 378 456 l 274 456 l 292 560 l 396 560 l 378 456 m 271 585 l 168 585 l 186 688 l 290 688 l 271 585 m 249 456 l 146 456 l 164 560 l 267 560 l 249 456 m 142 585 l 39 585 l 57 688 l 160 688 l 142 585 m 356 326 l 250 326 l 269 431 l 374 431 l 356 326 m 119 456 l 17 456 l 35 560 l 138 560 l 119 456 m 333 197 l 228 197 l 246 301 l 351 301 l 333 197 m 226 326 l 122 326 l 142 431 l 244 431 l 226 326 m 203 197 l 100 197 l 118 301 l 222 301 l 203 197 m 310 68 l 206 68 l 224 172 l 328 172 l 310 68 m 96 326 l -7 326 l 11 431 l 115 431 l 96 326 m 74 197 l -29 197 l -11 301 l 92 301 l 74 197 m 181 68 l 78 68 l 96 172 l 199 172 l 181 68 m 51 68 l -51 68 l -33 172 l 69 172 l 51 68 z "},"g":{"ha":1528,"x_min":-29,"x_max":1413,"o":"m 1394 1100 l 1292 1100 l 1310 1204 l 1413 1204 l 1394 1100 m 1288 1229 l 1185 1229 l 1203 1333 l 1306 1333 l 1288 1229 m 1160 1229 l 1056 1229 l 1074 1333 l 1178 1333 l 1160 1229 m 1372 971 l 1268 971 l 1288 1076 l 1390 1076 l 1372 971 m 1265 1100 l 1163 1100 l 1181 1204 l 1283 1204 l 1265 1100 m 1031 1229 l 926 1229 l 944 1333 l 1049 1333 l 1031 1229 m 1138 1100 l 1032 1100 l 1050 1204 l 1156 1204 l 1138 1100 m 1242 971 l 1139 971 l 1157 1076 l 1261 1076 l 1242 971 m 901 1229 l 799 1229 l 817 1333 l 919 1333 l 901 1229 m 1114 971 l 1010 971 l 1028 1076 l 1133 1076 l 1114 971 m 1008 1100 l 903 1100 l 921 1204 l 1026 1204 l 1008 1100 m 1304 585 l 1200 585 l 1219 690 l 1322 690 l 1304 585 m 878 1100 l 775 1100 l 793 1204 l 897 1204 l 878 1100 m 772 1229 l 668 1229 l 688 1333 l 790 1333 l 772 1229 m 985 971 l 881 971 l 899 1076 l 1003 1076 l 985 971 m 1281 457 l 1178 457 l 1196 561 l 1299 561 l 1281 457 m 1174 585 l 1071 585 l 1089 690 l 1193 690 l 1174 585 m 856 971 l 753 971 l 771 1076 l 874 1076 l 856 971 m 644 1229 l 539 1229 l 557 1333 l 663 1333 l 644 1229 m 749 1100 l 646 1100 l 664 1204 l 767 1204 l 749 1100 m 1046 585 l 942 585 l 960 690 l 1065 690 l 1046 585 m 1151 457 l 1049 457 l 1067 561 l 1169 561 l 1151 457 m 515 1229 l 410 1229 l 428 1333 l 533 1333 l 515 1229 m 621 1100 l 517 1100 l 535 1204 l 639 1204 l 621 1100 m 726 971 l 624 971 l 642 1076 l 744 1076 l 726 971 m 1258 326 l 1154 326 l 1174 431 l 1276 431 l 1258 326 m 1024 457 l 919 457 l 938 561 l 1042 561 l 1024 457 m 1235 197 l 1132 197 l 1150 301 l 1253 301 l 1235 197 m 599 971 l 493 971 l 513 1076 l 617 1076 l 599 971 m 385 1229 l 282 1229 l 300 1333 l 404 1333 l 385 1229 m 492 1100 l 388 1100 l 406 1204 l 510 1204 l 492 1100 m 1128 326 l 1025 326 l 1043 431 l 1147 431 l 1128 326 m 469 971 l 364 971 l 383 1076 l 488 1076 l 469 971 m 1106 197 l 1003 197 l 1021 301 l 1124 301 l 1106 197 m 363 1100 l 260 1100 l 278 1204 l 381 1204 l 363 1100 m 1000 326 l 896 326 l 914 431 l 1019 431 l 1000 326 m 978 197 l 874 197 l 892 301 l 996 301 l 978 197 m 340 971 l 236 971 l 256 1076 l 358 1076 l 340 971 m 233 1100 l 131 1100 l 149 1204 l 251 1204 l 233 1100 m 446 842 l 342 842 l 360 946 l 465 946 l 446 842 m 871 326 l 767 326 l 785 431 l 890 431 l 871 326 m 1083 68 l 981 68 l 999 172 l 1101 172 l 1083 68 m 210 971 l 107 971 l 125 1076 l 229 1076 l 210 971 m 424 714 l 319 714 l 338 817 l 442 817 l 424 714 m 849 197 l 744 197 l 763 301 l 867 301 l 849 197 m 742 326 l 639 326 l 657 431 l 760 431 l 742 326 m 956 68 l 850 68 l 868 172 l 974 172 l 956 68 m 317 842 l 214 842 l 232 946 l 335 946 l 317 842 m 719 197 l 617 197 l 635 301 l 738 301 l 719 197 m 294 714 l 192 714 l 210 817 l 313 817 l 294 714 m 188 842 l 85 842 l 103 946 l 206 946 l 188 842 m 401 585 l 296 585 l 314 688 l 419 688 l 401 585 m 826 68 l 721 68 l 739 172 l 844 172 l 826 68 m 613 326 l 510 326 l 528 431 l 631 431 l 613 326 m 165 714 l 61 714 l 81 817 l 183 817 l 165 714 m 696 68 l 593 68 l 611 172 l 715 172 l 696 68 m 378 456 l 274 456 l 292 560 l 396 560 l 378 456 m 590 197 l 486 197 l 506 301 l 608 301 l 590 197 m 271 585 l 168 585 l 186 688 l 290 688 l 271 585 m 485 326 l 381 326 l 399 431 l 503 431 l 485 326 m 463 197 l 357 197 l 375 301 l 481 301 l 463 197 m 249 456 l 146 456 l 164 560 l 267 560 l 249 456 m 142 585 l 39 585 l 57 688 l 160 688 l 142 585 m 567 68 l 464 68 l 482 172 l 585 172 l 567 68 m 356 326 l 250 326 l 269 431 l 374 431 l 356 326 m 119 456 l 17 456 l 35 560 l 138 560 l 119 456 m 333 197 l 228 197 l 246 301 l 351 301 l 333 197 m 439 68 l 335 68 l 353 172 l 457 172 l 439 68 m 226 326 l 122 326 l 142 431 l 244 431 l 226 326 m 203 197 l 100 197 l 118 301 l 222 301 l 203 197 m 310 68 l 206 68 l 224 172 l 328 172 l 310 68 m 96 326 l -7 326 l 11 431 l 115 431 l 96 326 m 74 197 l -29 197 l -11 301 l 92 301 l 74 197 m 181 68 l 78 68 l 96 172 l 199 172 l 181 68 z "},"h":{"ha":1528,"x_min":-51,"x_max":1435,"o":"m 1417 1229 l 1314 1229 l 1332 1333 l 1435 1333 l 1417 1229 m 1394 1100 l 1292 1100 l 1310 1204 l 1413 1204 l 1394 1100 m 1288 1229 l 1185 1229 l 1203 1333 l 1306 1333 l 1288 1229 m 1160 1229 l 1056 1229 l 1074 1333 l 1178 1333 l 1160 1229 m 1372 971 l 1268 971 l 1288 1076 l 1390 1076 l 1372 971 m 1265 1100 l 1163 1100 l 1181 1204 l 1283 1204 l 1265 1100 m 1138 1100 l 1032 1100 l 1050 1204 l 1156 1204 l 1138 1100 m 1349 842 l 1246 842 l 1264 946 l 1367 946 l 1349 842 m 1242 971 l 1139 971 l 1157 1076 l 1261 1076 l 1242 971 m 1114 971 l 1010 971 l 1028 1076 l 1133 1076 l 1114 971 m 1326 714 l 1224 714 l 1242 817 l 1344 817 l 1326 714 m 1219 842 l 1117 842 l 1135 946 l 1238 946 l 1219 842 m 1092 842 l 988 842 l 1006 946 l 1110 946 l 1092 842 m 1197 714 l 1093 714 l 1113 817 l 1215 817 l 1197 714 m 1303 585 l 1200 585 l 1218 688 l 1322 688 l 1303 585 m 1069 714 l 964 714 l 982 817 l 1088 817 l 1069 714 m 1281 456 l 1178 456 l 1196 560 l 1299 560 l 1281 456 m 1174 585 l 1071 585 l 1089 688 l 1192 688 l 1174 585 m 940 714 l 835 714 l 853 817 l 958 817 l 940 714 m 1258 326 l 1154 326 l 1174 431 l 1276 431 l 1258 326 m 1046 585 l 942 585 l 960 688 l 1064 688 l 1046 585 m 1151 456 l 1049 456 l 1067 560 l 1169 560 l 1151 456 m 515 1229 l 410 1229 l 428 1333 l 533 1333 l 515 1229 m 1235 197 l 1132 197 l 1150 301 l 1253 301 l 1235 197 m 810 714 l 707 714 l 725 817 l 828 817 l 810 714 m 1024 456 l 918 456 l 938 560 l 1042 560 l 1024 456 m 385 1229 l 282 1229 l 300 1333 l 404 1333 l 385 1229 m 492 1100 l 388 1100 l 406 1204 l 510 1204 l 492 1100 m 1128 326 l 1025 326 l 1043 431 l 1147 431 l 1128 326 m 917 585 l 813 585 l 831 688 l 935 688 l 917 585 m 363 1100 l 260 1100 l 278 1204 l 381 1204 l 363 1100 m 1106 197 l 1003 197 l 1021 301 l 1124 301 l 1106 197 m 1000 326 l 896 326 l 914 431 l 1019 431 l 1000 326 m 1213 68 l 1110 68 l 1128 172 l 1231 172 l 1213 68 m 681 714 l 578 714 l 596 817 l 699 817 l 681 714 m 256 1229 l 153 1229 l 171 1333 l 274 1333 l 256 1229 m 469 971 l 364 971 l 383 1076 l 488 1076 l 469 971 m 788 585 l 685 585 l 703 688 l 806 688 l 788 585 m 978 197 l 874 197 l 892 301 l 996 301 l 978 197 m 553 714 l 449 714 l 467 817 l 571 817 l 553 714 m 340 971 l 236 971 l 256 1076 l 358 1076 l 340 971 m 233 1100 l 131 1100 l 149 1204 l 251 1204 l 233 1100 m 1083 68 l 981 68 l 999 172 l 1101 172 l 1083 68 m 446 842 l 342 842 l 360 946 l 465 946 l 446 842 m 658 585 l 556 585 l 574 688 l 676 688 l 658 585 m 956 68 l 850 68 l 868 172 l 974 172 l 956 68 m 317 842 l 214 842 l 232 946 l 335 946 l 317 842 m 210 971 l 107 971 l 125 1076 l 229 1076 l 210 971 m 424 714 l 319 714 l 338 817 l 442 817 l 424 714 m 531 585 l 425 585 l 443 688 l 549 688 l 531 585 m 294 714 l 192 714 l 210 817 l 313 817 l 294 714 m 188 842 l 85 842 l 103 946 l 206 946 l 188 842 m 401 585 l 296 585 l 314 688 l 419 688 l 401 585 m 165 714 l 61 714 l 81 817 l 183 817 l 165 714 m 271 585 l 168 585 l 186 688 l 290 688 l 271 585 m 378 456 l 274 456 l 292 560 l 396 560 l 378 456 m 249 456 l 146 456 l 164 560 l 267 560 l 249 456 m 356 326 l 250 326 l 269 431 l 374 431 l 356 326 m 142 585 l 39 585 l 57 688 l 160 688 l 142 585 m 333 197 l 228 197 l 246 301 l 351 301 l 333 197 m 226 326 l 122 326 l 142 431 l 244 431 l 226 326 m 119 456 l 17 456 l 35 560 l 138 560 l 119 456 m 203 197 l 100 197 l 118 301 l 222 301 l 203 197 m 96 326 l -7 326 l 11 431 l 115 431 l 96 326 m 310 68 l 206 68 l 224 172 l 328 172 l 310 68 m 74 197 l -29 197 l -11 301 l 92 301 l 74 197 m 181 68 l 78 68 l 96 172 l 199 172 l 181 68 m 51 68 l -51 68 l -33 172 l 69 172 l 51 68 z "},"i":{"ha":1528,"x_min":-51,"x_max":1435,"o":"m 1417 1229 l 1314 1229 l 1332 1333 l 1435 1333 l 1417 1229 m 1288 1229 l 1185 1229 l 1203 1333 l 1306 1333 l 1288 1229 m 1394 1100 l 1292 1100 l 1310 1204 l 1413 1204 l 1394 1100 m 1372 971 l 1268 971 l 1288 1076 l 1390 1076 l 1372 971 m 1160 1229 l 1056 1229 l 1074 1333 l 1178 1333 l 1160 1229 m 1265 1100 l 1163 1100 l 1181 1204 l 1283 1204 l 1265 1100 m 1242 971 l 1139 971 l 1157 1076 l 1261 1076 l 1242 971 m 1031 1229 l 926 1229 l 944 1333 l 1049 1333 l 1031 1229 m 1138 1100 l 1032 1100 l 1050 1204 l 1156 1204 l 1138 1100 m 901 1229 l 799 1229 l 817 1333 l 919 1333 l 901 1229 m 1114 971 l 1010 971 l 1028 1076 l 1133 1076 l 1114 971 m 1008 1100 l 903 1100 l 921 1204 l 1026 1204 l 1008 1100 m 985 971 l 881 971 l 899 1076 l 1003 1076 l 985 971 m 878 1100 l 775 1100 l 793 1204 l 897 1204 l 878 1100 m 772 1229 l 668 1229 l 688 1333 l 790 1333 l 772 1229 m 856 971 l 753 971 l 771 1076 l 874 1076 l 856 971 m 644 1229 l 539 1229 l 557 1333 l 663 1333 l 644 1229 m 749 1100 l 646 1100 l 664 1204 l 767 1204 l 749 1100 m 515 1229 l 410 1229 l 428 1333 l 533 1333 l 515 1229 m 621 1100 l 517 1100 l 535 1204 l 639 1204 l 621 1100 m 726 971 l 624 971 l 642 1076 l 744 1076 l 726 971 m 833 842 l 729 842 l 749 946 l 851 946 l 833 842 m 1258 326 l 1154 326 l 1174 431 l 1276 431 l 1258 326 m 385 1229 l 282 1229 l 300 1333 l 404 1333 l 385 1229 m 599 971 l 493 971 l 513 1076 l 617 1076 l 599 971 m 810 714 l 707 714 l 725 817 l 828 817 l 810 714 m 1235 197 l 1132 197 l 1150 301 l 1253 301 l 1235 197 m 1128 326 l 1025 326 l 1043 431 l 1147 431 l 1128 326 m 492 1100 l 388 1100 l 406 1204 l 510 1204 l 492 1100 m 703 842 l 600 842 l 618 946 l 722 946 l 703 842 m 575 842 l 472 842 l 490 946 l 593 946 l 575 842 m 363 1100 l 260 1100 l 278 1204 l 381 1204 l 363 1100 m 469 971 l 364 971 l 383 1076 l 488 1076 l 469 971 m 1106 197 l 1003 197 l 1021 301 l 1124 301 l 1106 197 m 256 1229 l 153 1229 l 171 1333 l 274 1333 l 256 1229 m 788 585 l 685 585 l 703 688 l 806 688 l 788 585 m 1000 326 l 896 326 l 914 431 l 1019 431 l 1000 326 m 1213 68 l 1110 68 l 1128 172 l 1231 172 l 1213 68 m 681 714 l 578 714 l 596 817 l 699 817 l 681 714 m 553 714 l 449 714 l 468 817 l 571 817 l 553 714 m 340 971 l 236 971 l 256 1076 l 358 1076 l 340 971 m 765 456 l 661 456 l 681 560 l 783 560 l 765 456 m 978 197 l 874 197 l 892 301 l 996 301 l 978 197 m 1083 68 l 981 68 l 999 172 l 1101 172 l 1083 68 m 233 1100 l 131 1100 l 149 1204 l 251 1204 l 233 1100 m 871 326 l 767 326 l 785 431 l 890 431 l 871 326 m 658 585 l 556 585 l 574 688 l 676 688 l 658 585 m 529 585 l 426 585 l 444 688 l 547 688 l 529 585 m 210 971 l 107 971 l 125 1076 l 229 1076 l 210 971 m 742 326 l 639 326 l 657 431 l 760 431 l 742 326 m 849 197 l 744 197 l 763 301 l 867 301 l 849 197 m 635 456 l 532 456 l 550 560 l 654 560 l 635 456 m 956 68 l 850 68 l 868 172 l 974 172 l 956 68 m 507 456 l 404 456 l 422 560 l 525 560 l 507 456 m 719 197 l 617 197 l 635 301 l 738 301 l 719 197 m 826 68 l 721 68 l 739 172 l 844 172 l 826 68 m 613 326 l 510 326 l 528 431 l 631 431 l 613 326 m 485 326 l 381 326 l 399 431 l 503 431 l 485 326 m 696 68 l 593 68 l 611 172 l 715 172 l 696 68 m 590 197 l 486 197 l 506 301 l 608 301 l 590 197 m 463 197 l 357 197 l 375 301 l 481 301 l 463 197 m 356 326 l 250 326 l 269 431 l 374 431 l 356 326 m 567 68 l 464 68 l 482 172 l 585 172 l 567 68 m 226 326 l 122 326 l 142 431 l 244 431 l 226 326 m 333 197 l 228 197 l 246 301 l 351 301 l 333 197 m 439 68 l 335 68 l 353 172 l 457 172 l 439 68 m 203 197 l 100 197 l 118 301 l 222 301 l 203 197 m 96 326 l -7 326 l 11 431 l 115 431 l 96 326 m 310 68 l 206 68 l 224 172 l 328 172 l 310 68 m 181 68 l 78 68 l 96 172 l 199 172 l 181 68 m 74 197 l -29 197 l -11 301 l 92 301 l 74 197 m 51 68 l -51 68 l -33 172 l 69 172 l 51 68 z "},"j":{"ha":1528,"x_min":-51,"x_max":1413,"o":"m 1394 1100 l 1292 1100 l 1310 1204 l 1413 1204 l 1394 1100 m 1288 1229 l 1185 1229 l 1203 1333 l 1306 1333 l 1288 1229 m 1160 1229 l 1056 1229 l 1074 1333 l 1178 1333 l 1160 1229 m 1372 971 l 1268 971 l 1288 1076 l 1390 1076 l 1372 971 m 1265 1100 l 1163 1100 l 1181 1204 l 1283 1204 l 1265 1100 m 1138 1100 l 1032 1100 l 1050 1204 l 1156 1204 l 1138 1100 m 1349 842 l 1246 842 l 1264 946 l 1367 946 l 1349 842 m 1031 1229 l 926 1229 l 944 1333 l 1049 1333 l 1031 1229 m 1242 971 l 1139 971 l 1157 1076 l 1261 1076 l 1242 971 m 1114 971 l 1010 971 l 1028 1076 l 1133 1076 l 1114 971 m 1326 714 l 1224 714 l 1242 817 l 1344 817 l 1326 714 m 901 1229 l 799 1229 l 817 1333 l 919 1333 l 901 1229 m 1008 1100 l 903 1100 l 921 1204 l 1026 1204 l 1008 1100 m 1219 842 l 1117 842 l 1135 946 l 1238 946 l 1219 842 m 878 1100 l 775 1100 l 793 1204 l 897 1204 l 878 1100 m 1092 842 l 988 842 l 1006 946 l 1110 946 l 1092 842 m 985 971 l 881 971 l 899 1076 l 1003 1076 l 985 971 m 1197 714 l 1093 714 l 1113 817 l 1215 817 l 1197 714 m 772 1229 l 668 1229 l 688 1333 l 790 1333 l 772 1229 m 1303 585 l 1200 585 l 1218 688 l 1322 688 l 1303 585 m 1069 714 l 964 714 l 982 817 l 1088 817 l 1069 714 m 644 1229 l 539 1229 l 557 1333 l 663 1333 l 644 1229 m 856 971 l 753 971 l 771 1076 l 874 1076 l 856 971 m 1281 456 l 1178 456 l 1196 560 l 1299 560 l 1281 456 m 749 1100 l 646 1100 l 664 1204 l 767 1204 l 749 1100 m 1174 585 l 1071 585 l 1089 688 l 1192 688 l 1174 585 m 621 1100 l 517 1100 l 535 1204 l 639 1204 l 621 1100 m 1258 326 l 1154 326 l 1174 431 l 1276 431 l 1258 326 m 726 971 l 624 971 l 642 1076 l 744 1076 l 726 971 m 1046 585 l 942 585 l 960 688 l 1064 688 l 1046 585 m 1151 456 l 1049 456 l 1067 560 l 1169 560 l 1151 456 m 515 1229 l 410 1229 l 428 1333 l 533 1333 l 515 1229 m 1235 197 l 1132 197 l 1150 301 l 1253 301 l 1235 197 m 599 971 l 493 971 l 513 1076 l 617 1076 l 599 971 m 1024 456 l 918 456 l 938 560 l 1042 560 l 1024 456 m 385 1229 l 282 1229 l 300 1333 l 404 1333 l 385 1229 m 492 1100 l 388 1100 l 406 1204 l 510 1204 l 492 1100 m 1128 326 l 1025 326 l 1043 431 l 1147 431 l 1128 326 m 363 1100 l 260 1100 l 278 1204 l 381 1204 l 363 1100 m 1106 197 l 1003 197 l 1021 301 l 1124 301 l 1106 197 m 1000 326 l 896 326 l 914 431 l 1019 431 l 1000 326 m 469 971 l 364 971 l 383 1076 l 488 1076 l 469 971 m 978 197 l 874 197 l 892 301 l 996 301 l 978 197 m 340 971 l 236 971 l 256 1076 l 358 1076 l 340 971 m 871 326 l 767 326 l 785 431 l 890 431 l 871 326 m 1083 68 l 981 68 l 999 172 l 1101 172 l 1083 68 m 849 197 l 744 197 l 763 301 l 867 301 l 849 197 m 956 68 l 850 68 l 868 172 l 974 172 l 956 68 m 742 326 l 639 326 l 657 431 l 760 431 l 742 326 m 719 197 l 617 197 l 635 301 l 738 301 l 719 197 m 826 68 l 721 68 l 739 172 l 844 172 l 826 68 m 613 326 l 510 326 l 528 431 l 631 431 l 613 326 m 590 197 l 486 197 l 506 301 l 608 301 l 590 197 m 485 326 l 381 326 l 399 431 l 503 431 l 485 326 m 696 68 l 593 68 l 611 172 l 715 172 l 696 68 m 463 197 l 357 197 l 375 301 l 481 301 l 463 197 m 567 68 l 464 68 l 482 172 l 585 172 l 567 68 m 356 326 l 250 326 l 269 431 l 374 431 l 356 326 m 333 197 l 228 197 l 246 301 l 351 301 l 333 197 m 439 68 l 335 68 l 353 172 l 457 172 l 439 68 m 226 326 l 122 326 l 142 431 l 244 431 l 226 326 m 203 197 l 100 197 l 118 301 l 222 301 l 203 197 m 96 326 l -7 326 l 11 431 l 115 431 l 96 326 m 310 68 l 206 68 l 224 172 l 328 172 l 310 68 m 74 197 l -29 197 l -11 301 l 92 301 l 74 197 m 181 68 l 78 68 l 96 172 l 199 172 l 181 68 m 51 68 l -51 68 l -33 172 l 69 172 l 51 68 z "},"k":{"ha":1528,"x_min":-51,"x_max":1344,"o":"m 1160 1229 l 1056 1229 l 1074 1333 l 1178 1333 l 1160 1229 m 1138 1100 l 1032 1100 l 1050 1204 l 1156 1204 l 1138 1100 m 1031 1229 l 926 1229 l 944 1333 l 1049 1333 l 1031 1229 m 1114 971 l 1010 971 l 1028 1076 l 1133 1076 l 1114 971 m 1326 714 l 1224 714 l 1242 817 l 1344 817 l 1326 714 m 901 1229 l 799 1229 l 817 1333 l 919 1333 l 901 1229 m 1008 1100 l 903 1100 l 921 1204 l 1026 1204 l 1008 1100 m 878 1100 l 775 1100 l 793 1204 l 897 1204 l 878 1100 m 1092 842 l 988 842 l 1006 946 l 1110 946 l 1092 842 m 985 971 l 881 971 l 899 1076 l 1003 1076 l 985 971 m 1197 714 l 1093 714 l 1113 817 l 1215 817 l 1197 714 m 1303 585 l 1200 585 l 1218 688 l 1322 688 l 1303 585 m 1069 714 l 964 714 l 982 817 l 1088 817 l 1069 714 m 856 971 l 753 971 l 771 1076 l 874 1076 l 856 971 m 1281 456 l 1178 456 l 1196 560 l 1299 560 l 1281 456 m 963 842 l 857 842 l 876 946 l 981 946 l 963 842 m 1174 585 l 1071 585 l 1089 688 l 1192 688 l 1174 585 m 833 842 l 729 842 l 749 946 l 851 946 l 833 842 m 940 714 l 835 714 l 853 817 l 958 817 l 940 714 m 1258 326 l 1154 326 l 1174 431 l 1276 431 l 1258 326 m 1046 585 l 942 585 l 960 688 l 1064 688 l 1046 585 m 1151 456 l 1049 456 l 1067 560 l 1169 560 l 1151 456 m 515 1229 l 410 1229 l 428 1333 l 533 1333 l 515 1229 m 1235 197 l 1132 197 l 1150 301 l 1253 301 l 1235 197 m 810 714 l 707 714 l 725 817 l 828 817 l 810 714 m 1024 456 l 918 456 l 938 560 l 1042 560 l 1024 456 m 385 1229 l 282 1229 l 300 1333 l 404 1333 l 385 1229 m 492 1100 l 388 1100 l 406 1204 l 510 1204 l 492 1100 m 1128 326 l 1025 326 l 1043 431 l 1147 431 l 1128 326 m 917 585 l 813 585 l 831 688 l 935 688 l 917 585 m 363 1100 l 260 1100 l 278 1204 l 381 1204 l 363 1100 m 1106 197 l 1003 197 l 1021 301 l 1124 301 l 1106 197 m 1000 326 l 896 326 l 914 431 l 1019 431 l 1000 326 m 1213 68 l 1110 68 l 1128 172 l 1231 172 l 1213 68 m 681 714 l 578 714 l 596 817 l 699 817 l 681 714 m 256 1229 l 153 1229 l 171 1333 l 274 1333 l 256 1229 m 469 971 l 364 971 l 383 1076 l 488 1076 l 469 971 m 788 585 l 685 585 l 703 688 l 806 688 l 788 585 m 978 197 l 874 197 l 892 301 l 996 301 l 978 197 m 553 714 l 449 714 l 467 817 l 571 817 l 553 714 m 340 971 l 236 971 l 256 1076 l 358 1076 l 340 971 m 233 1100 l 131 1100 l 149 1204 l 251 1204 l 233 1100 m 1083 68 l 981 68 l 999 172 l 1101 172 l 1083 68 m 446 842 l 342 842 l 360 946 l 465 946 l 446 842 m 658 585 l 556 585 l 574 688 l 676 688 l 658 585 m 956 68 l 850 68 l 868 172 l 974 172 l 956 68 m 317 842 l 214 842 l 232 946 l 335 946 l 317 842 m 210 971 l 107 971 l 125 1076 l 229 1076 l 210 971 m 424 714 l 319 714 l 338 817 l 442 817 l 424 714 m 531 585 l 425 585 l 443 688 l 549 688 l 531 585 m 294 714 l 192 714 l 210 817 l 313 817 l 294 714 m 188 842 l 85 842 l 103 946 l 206 946 l 188 842 m 401 585 l 296 585 l 314 688 l 419 688 l 401 585 m 165 714 l 61 714 l 81 817 l 183 817 l 165 714 m 271 585 l 168 585 l 186 688 l 290 688 l 271 585 m 378 456 l 274 456 l 292 560 l 396 560 l 378 456 m 249 456 l 146 456 l 164 560 l 267 560 l 249 456 m 356 326 l 250 326 l 269 431 l 374 431 l 356 326 m 142 585 l 39 585 l 57 688 l 160 688 l 142 585 m 333 197 l 228 197 l 246 301 l 351 301 l 333 197 m 226 326 l 122 326 l 142 431 l 244 431 l 226 326 m 119 456 l 17 456 l 35 560 l 138 560 l 119 456 m 203 197 l 100 197 l 118 301 l 222 301 l 203 197 m 96 326 l -7 326 l 11 431 l 115 431 l 96 326 m 310 68 l 206 68 l 224 172 l 328 172 l 310 68 m 74 197 l -29 197 l -11 301 l 92 301 l 74 197 m 181 68 l 78 68 l 96 172 l 199 172 l 181 68 m 51 68 l -51 68 l -33 172 l 69 172 l 51 68 z "},"l":{"ha":1528,"x_min":-51,"x_max":1276,"o":"m 515 1229 l 410 1229 l 428 1333 l 533 1333 l 515 1229 m 1258 326 l 1154 326 l 1174 429 l 1276 429 l 1258 326 m 1235 197 l 1132 197 l 1150 301 l 1253 301 l 1235 197 m 385 1229 l 282 1229 l 300 1333 l 404 1333 l 385 1229 m 492 1100 l 388 1100 l 406 1204 l 510 1204 l 492 1100 m 1129 326 l 1025 326 l 1043 429 l 1147 429 l 1129 326 m 363 1100 l 260 1100 l 278 1204 l 381 1204 l 363 1100 m 1106 197 l 1003 197 l 1021 301 l 1124 301 l 1106 197 m 1213 68 l 1110 68 l 1128 172 l 1231 172 l 1213 68 m 256 1229 l 153 1229 l 171 1333 l 274 1333 l 256 1229 m 469 971 l 364 971 l 383 1076 l 488 1076 l 469 971 m 1000 326 l 896 326 l 914 429 l 1019 429 l 1000 326 m 978 197 l 874 197 l 892 301 l 996 301 l 978 197 m 340 971 l 236 971 l 256 1076 l 358 1076 l 340 971 m 233 1100 l 131 1100 l 149 1204 l 251 1204 l 233 1100 m 1083 68 l 981 68 l 999 172 l 1101 172 l 1083 68 m 446 842 l 342 842 l 360 946 l 465 946 l 446 842 m 871 326 l 767 326 l 785 429 l 889 429 l 871 326 m 849 197 l 744 197 l 763 301 l 867 301 l 849 197 m 956 68 l 850 68 l 868 172 l 974 172 l 956 68 m 317 842 l 214 842 l 232 946 l 335 946 l 317 842 m 210 971 l 107 971 l 125 1076 l 229 1076 l 210 971 m 424 714 l 319 714 l 338 817 l 442 817 l 424 714 m 742 326 l 639 326 l 657 429 l 760 429 l 742 326 m 719 197 l 617 197 l 635 301 l 738 301 l 719 197 m 294 714 l 192 714 l 210 817 l 313 817 l 294 714 m 826 68 l 721 68 l 739 172 l 844 172 l 826 68 m 188 842 l 85 842 l 103 946 l 206 946 l 188 842 m 401 585 l 296 585 l 314 688 l 419 688 l 401 585 m 613 326 l 510 326 l 528 429 l 631 429 l 613 326 m 590 197 l 486 197 l 506 301 l 608 301 l 590 197 m 696 68 l 593 68 l 611 172 l 715 172 l 696 68 m 165 714 l 61 714 l 81 817 l 183 817 l 165 714 m 271 585 l 168 585 l 186 688 l 290 688 l 271 585 m 378 456 l 274 456 l 292 560 l 396 560 l 378 456 m 485 326 l 381 326 l 399 429 l 503 429 l 485 326 m 463 197 l 357 197 l 375 301 l 481 301 l 463 197 m 249 456 l 146 456 l 164 560 l 267 560 l 249 456 m 567 68 l 464 68 l 482 172 l 585 172 l 567 68 m 356 326 l 250 326 l 269 431 l 374 431 l 356 326 m 142 585 l 39 585 l 57 688 l 160 688 l 142 585 m 333 197 l 228 197 l 246 301 l 351 301 l 333 197 m 439 68 l 335 68 l 353 172 l 457 172 l 439 68 m 226 326 l 122 326 l 142 431 l 244 431 l 226 326 m 119 456 l 17 456 l 35 560 l 138 560 l 119 456 m 203 197 l 100 197 l 118 301 l 222 301 l 203 197 m 96 326 l -7 326 l 11 431 l 115 431 l 96 326 m 310 68 l 206 68 l 224 172 l 328 172 l 310 68 m 74 197 l -29 197 l -11 301 l 92 301 l 74 197 m 181 68 l 78 68 l 96 172 l 199 172 l 181 68 m 51 68 l -51 68 l -33 172 l 69 172 l 51 68 z "},"m":{"ha":1528,"x_min":-51,"x_max":1413,"o":"m 1394 1100 l 1292 1100 l 1310 1204 l 1413 1204 l 1394 1100 m 1288 1229 l 1185 1229 l 1203 1333 l 1306 1333 l 1288 1229 m 1160 1229 l 1056 1229 l 1074 1333 l 1178 1333 l 1160 1229 m 1372 971 l 1268 971 l 1288 1076 l 1390 1076 l 1372 971 m 1265 1100 l 1163 1100 l 1181 1204 l 1283 1204 l 1265 1100 m 1138 1100 l 1032 1100 l 1050 1204 l 1156 1204 l 1138 1100 m 1349 842 l 1246 842 l 1264 946 l 1367 946 l 1349 842 m 1031 1229 l 926 1229 l 944 1333 l 1049 1333 l 1031 1229 m 1242 971 l 1139 971 l 1157 1076 l 1261 1076 l 1242 971 m 1114 971 l 1010 971 l 1028 1076 l 1133 1076 l 1114 971 m 1326 714 l 1224 714 l 1242 817 l 1344 817 l 1326 714 m 901 1229 l 799 1229 l 817 1333 l 919 1333 l 901 1229 m 1008 1100 l 903 1100 l 921 1204 l 1026 1204 l 1008 1100 m 1219 842 l 1117 842 l 1135 946 l 1238 946 l 1219 842 m 878 1100 l 775 1100 l 793 1204 l 897 1204 l 878 1100 m 1092 842 l 988 842 l 1006 946 l 1110 946 l 1092 842 m 985 971 l 881 971 l 899 1076 l 1003 1076 l 985 971 m 1197 714 l 1093 714 l 1113 817 l 1215 817 l 1197 714 m 772 1229 l 668 1229 l 688 1333 l 790 1333 l 772 1229 m 1303 585 l 1200 585 l 1218 688 l 1322 688 l 1303 585 m 1069 714 l 964 714 l 982 817 l 1088 817 l 1069 714 m 644 1229 l 539 1229 l 557 1333 l 663 1333 l 644 1229 m 856 971 l 753 971 l 771 1076 l 874 1076 l 856 971 m 1281 456 l 1178 456 l 1196 560 l 1299 560 l 1281 456 m 749 1100 l 646 1100 l 664 1204 l 767 1204 l 749 1100 m 1174 585 l 1071 585 l 1089 688 l 1192 688 l 1174 585 m 621 1100 l 517 1100 l 535 1204 l 639 1204 l 621 1100 m 833 842 l 729 842 l 749 946 l 851 946 l 833 842 m 1258 326 l 1154 326 l 1174 431 l 1276 431 l 1258 326 m 726 971 l 624 971 l 642 1076 l 744 1076 l 726 971 m 1046 585 l 942 585 l 960 688 l 1064 688 l 1046 585 m 1151 456 l 1049 456 l 1067 560 l 1169 560 l 1151 456 m 515 1229 l 410 1229 l 428 1333 l 533 1333 l 515 1229 m 1235 197 l 1132 197 l 1150 301 l 1253 301 l 1235 197 m 599 971 l 493 971 l 513 1076 l 617 1076 l 599 971 m 810 714 l 707 714 l 725 817 l 828 817 l 810 714 m 1024 456 l 918 456 l 938 560 l 1042 560 l 1024 456 m 385 1229 l 282 1229 l 300 1333 l 404 1333 l 385 1229 m 492 1100 l 388 1100 l 406 1204 l 510 1204 l 492 1100 m 703 842 l 600 842 l 618 946 l 722 946 l 703 842 m 1128 326 l 1025 326 l 1043 431 l 1147 431 l 1128 326 m 363 1100 l 260 1100 l 278 1204 l 381 1204 l 363 1100 m 1106 197 l 1003 197 l 1021 301 l 1124 301 l 1106 197 m 1000 326 l 896 326 l 914 431 l 1019 431 l 1000 326 m 1213 68 l 1110 68 l 1128 172 l 1231 172 l 1213 68 m 681 714 l 578 714 l 596 817 l 699 817 l 681 714 m 469 971 l 364 971 l 383 1076 l 488 1076 l 469 971 m 788 585 l 685 585 l 703 688 l 806 688 l 788 585 m 978 197 l 874 197 l 892 301 l 996 301 l 978 197 m 340 971 l 236 971 l 256 1076 l 358 1076 l 340 971 m 765 456 l 661 456 l 681 560 l 783 560 l 765 456 m 233 1100 l 131 1100 l 149 1204 l 251 1204 l 233 1100 m 1083 68 l 981 68 l 999 172 l 1101 172 l 1083 68 m 446 842 l 342 842 l 360 946 l 465 946 l 446 842 m 658 585 l 556 585 l 574 688 l 676 688 l 658 585 m 956 68 l 850 68 l 868 172 l 974 172 l 956 68 m 317 842 l 214 842 l 232 946 l 335 946 l 317 842 m 742 326 l 639 326 l 657 431 l 760 431 l 742 326 m 210 971 l 107 971 l 125 1076 l 229 1076 l 210 971 m 424 714 l 319 714 l 338 817 l 442 817 l 424 714 m 635 456 l 532 456 l 550 560 l 654 560 l 635 456 m 719 197 l 617 197 l 635 301 l 738 301 l 719 197 m 294 714 l 192 714 l 210 817 l 313 817 l 294 714 m 188 842 l 85 842 l 103 946 l 206 946 l 188 842 m 613 326 l 510 326 l 528 431 l 631 431 l 613 326 m 401 585 l 296 585 l 314 688 l 419 688 l 401 585 m 590 197 l 486 197 l 506 301 l 608 301 l 590 197 m 165 714 l 61 714 l 81 817 l 183 817 l 165 714 m 271 585 l 168 585 l 186 688 l 290 688 l 271 585 m 378 456 l 274 456 l 292 560 l 396 560 l 378 456 m 249 456 l 146 456 l 164 560 l 267 560 l 249 456 m 356 326 l 250 326 l 269 431 l 374 431 l 356 326 m 142 585 l 39 585 l 57 688 l 160 688 l 142 585 m 333 197 l 228 197 l 246 301 l 351 301 l 333 197 m 226 326 l 122 326 l 142 431 l 244 431 l 226 326 m 119 456 l 17 456 l 35 560 l 138 560 l 119 456 m 203 197 l 100 197 l 118 301 l 222 301 l 203 197 m 96 326 l -7 326 l 11 431 l 115 431 l 96 326 m 310 68 l 206 68 l 224 172 l 328 172 l 310 68 m 74 197 l -29 197 l -11 301 l 92 301 l 74 197 m 181 68 l 78 68 l 96 172 l 199 172 l 181 68 m 51 68 l -51 68 l -33 172 l 69 172 l 51 68 z "},"n":{"ha":1528,"x_min":-51,"x_max":1435,"o":"m 1417 1229 l 1314 1229 l 1332 1333 l 1435 1333 l 1417 1229 m 1288 1229 l 1185 1229 l 1203 1333 l 1306 1333 l 1288 1229 m 1394 1100 l 1292 1100 l 1310 1204 l 1413 1204 l 1394 1100 m 1160 1229 l 1056 1229 l 1074 1333 l 1178 1333 l 1160 1229 m 1372 971 l 1268 971 l 1288 1076 l 1390 1076 l 1372 971 m 1265 1100 l 1163 1100 l 1181 1204 l 1283 1204 l 1265 1100 m 1242 971 l 1139 971 l 1157 1076 l 1261 1076 l 1242 971 m 1138 1100 l 1032 1100 l 1050 1204 l 1156 1204 l 1138 1100 m 1349 842 l 1246 842 l 1264 946 l 1367 946 l 1349 842 m 901 1229 l 799 1229 l 817 1333 l 919 1333 l 901 1229 m 1114 971 l 1010 971 l 1028 1076 l 1133 1076 l 1114 971 m 1326 714 l 1224 714 l 1242 817 l 1344 817 l 1326 714 m 1219 842 l 1117 842 l 1135 946 l 1238 946 l 1219 842 m 1197 714 l 1093 714 l 1113 817 l 1215 817 l 1197 714 m 878 1100 l 775 1100 l 793 1204 l 897 1204 l 878 1100 m 1092 842 l 988 842 l 1006 946 l 1110 946 l 1092 842 m 772 1229 l 668 1229 l 688 1333 l 790 1333 l 772 1229 m 1303 585 l 1200 585 l 1218 688 l 1322 688 l 1303 585 m 856 971 l 753 971 l 771 1076 l 874 1076 l 856 971 m 644 1229 l 539 1229 l 557 1333 l 663 1333 l 644 1229 m 1069 714 l 964 714 l 982 817 l 1088 817 l 1069 714 m 1281 456 l 1178 456 l 1196 560 l 1299 560 l 1281 456 m 1174 585 l 1071 585 l 1089 688 l 1192 688 l 1174 585 m 749 1100 l 646 1100 l 664 1204 l 767 1204 l 749 1100 m 1151 456 l 1049 456 l 1067 560 l 1169 560 l 1151 456 m 515 1229 l 410 1229 l 428 1333 l 533 1333 l 515 1229 m 833 842 l 729 842 l 749 946 l 851 946 l 833 842 m 621 1100 l 517 1100 l 535 1204 l 639 1204 l 621 1100 m 726 971 l 624 971 l 642 1076 l 744 1076 l 726 971 m 1046 585 l 942 585 l 960 688 l 1064 688 l 1046 585 m 1258 326 l 1154 326 l 1174 431 l 1276 431 l 1258 326 m 385 1229 l 282 1229 l 300 1333 l 404 1333 l 385 1229 m 599 971 l 493 971 l 513 1076 l 617 1076 l 599 971 m 810 714 l 707 714 l 725 817 l 828 817 l 810 714 m 1024 456 l 918 456 l 938 560 l 1042 560 l 1024 456 m 1235 197 l 1132 197 l 1150 301 l 1253 301 l 1235 197 m 1128 326 l 1025 326 l 1043 431 l 1147 431 l 1128 326 m 492 1100 l 388 1100 l 406 1204 l 510 1204 l 492 1100 m 703 842 l 600 842 l 618 946 l 722 946 l 703 842 m 363 1100 l 260 1100 l 278 1204 l 381 1204 l 363 1100 m 1106 197 l 1003 197 l 1021 301 l 1124 301 l 1106 197 m 469 971 l 364 971 l 383 1076 l 488 1076 l 469 971 m 788 585 l 685 585 l 703 688 l 806 688 l 788 585 m 681 714 l 578 714 l 596 817 l 699 817 l 681 714 m 1000 326 l 896 326 l 914 431 l 1019 431 l 1000 326 m 340 971 l 236 971 l 256 1076 l 358 1076 l 340 971 m 765 456 l 661 456 l 681 560 l 783 560 l 765 456 m 978 197 l 874 197 l 892 301 l 996 301 l 978 197 m 1083 68 l 981 68 l 999 172 l 1101 172 l 1083 68 m 233 1100 l 131 1100 l 149 1204 l 251 1204 l 233 1100 m 446 842 l 342 842 l 360 946 l 465 946 l 446 842 m 871 326 l 767 326 l 785 431 l 890 431 l 871 326 m 658 585 l 556 585 l 574 688 l 676 688 l 658 585 m 317 842 l 214 842 l 232 946 l 335 946 l 317 842 m 210 971 l 107 971 l 125 1076 l 229 1076 l 210 971 m 424 714 l 319 714 l 338 817 l 442 817 l 424 714 m 849 197 l 744 197 l 763 301 l 867 301 l 849 197 m 635 456 l 532 456 l 550 560 l 654 560 l 635 456 m 742 326 l 639 326 l 657 431 l 760 431 l 742 326 m 956 68 l 850 68 l 868 172 l 974 172 l 956 68 m 294 714 l 192 714 l 210 817 l 313 817 l 294 714 m 719 197 l 617 197 l 635 301 l 738 301 l 719 197 m 188 842 l 85 842 l 103 946 l 206 946 l 188 842 m 401 585 l 296 585 l 314 688 l 419 688 l 401 585 m 826 68 l 721 68 l 739 172 l 844 172 l 826 68 m 613 326 l 510 326 l 528 431 l 631 431 l 613 326 m 271 585 l 168 585 l 186 688 l 290 688 l 271 585 m 165 714 l 61 714 l 81 817 l 183 817 l 165 714 m 378 456 l 274 456 l 292 560 l 396 560 l 378 456 m 696 68 l 593 68 l 611 172 l 715 172 l 696 68 m 590 197 l 486 197 l 506 301 l 608 301 l 590 197 m 249 456 l 146 456 l 164 560 l 267 560 l 249 456 m 142 585 l 39 585 l 57 688 l 160 688 l 142 585 m 356 326 l 250 326 l 269 431 l 374 431 l 356 326 m 567 68 l 464 68 l 482 172 l 585 172 l 567 68 m 119 456 l 17 456 l 35 560 l 138 560 l 119 456 m 226 326 l 122 326 l 142 431 l 244 431 l 226 326 m 333 197 l 228 197 l 246 301 l 351 301 l 333 197 m 203 197 l 100 197 l 118 301 l 222 301 l 203 197 m 96 326 l -7 326 l 11 431 l 115 431 l 96 326 m 310 68 l 206 68 l 224 172 l 328 172 l 310 68 m 181 68 l 78 68 l 96 172 l 199 172 l 181 68 m 74 197 l -29 197 l -11 301 l 92 301 l 74 197 m 51 68 l -51 68 l -33 172 l 69 172 l 51 68 z "}}}
